<ttFont>
          <CharString index="0">
            -18 -11 -21 -14 -2 -1 1 -1 hhcurveto
            4 2 2 6 1 3 rrcurveto
            -1 -16 -2 -33 -10 -10 -7 4 -10 -1 -5 -1 -1 hhcurveto
            3 -2 1 -2 -4 vvcurveto
            -36 hlineto
            -5 0 6 3 1 23 13 15 8 hvcurveto
            -7 -8 1 3 -2 hvcurveto
            -2 -10 -50 -20 -7 vvcurveto
            -5 8 -4 4 -1 vhcurveto
            -5 -3 -8 -9 -7 -12 rrcurveto
            -1 -5 2 0 hvcurveto
            -14 -12 -21 -12 hvcurveto
            5 2 6 8 1 -38 callsubr
            14 8 -18 -31 -20 -44 -7 -16 rlinecurve
            -6 -13 -1 -6 hhcurveto
            -19 -35 2 11 22 36 20 12 9 hvcurveto
            5 vlineto
            9 -2 -4 2 -1 hhcurveto
            -3 -7 -9 -2 -4 hvcurveto
            6 hlineto
            -4 -2 -3 -4 -1 vhcurveto
            0 -7 7 2 vvcurveto
            20 47 23 16 6 vhcurveto
            5 vlineto
            -4 -4 -4 -1 -3 hhcurveto
            -3 -1 1 0 4 17 7 2 hvcurveto
            4 -4 1 4 rlineto
            6 -6 2 -5 -17 -20 -31 -8 -17 vhcurveto
            32 38 11 26 vhcurveto
            9 vlineto
            -1 -11 0 3 -8 hvcurveto
            -27 -19 rlineto
            21 9 36 10 13 vhcurveto
            6 8 17 7 9 vvcurveto
            -4 hlineto
            10 98 62 12 vvcurveto
            2 -2 1 -3 3 vhcurveto
            -8 -8 rlineto
            4 vlineto
            -29 -15 16 15 rlineto
            -28 -17 -39 -22 hhcurveto
            12 24 rlineto
            8 hlineto
            15 23 54 9 9 hvcurveto
            2 4 10 8 1 vvcurveto
            6 -7 1 0 vhcurveto
            -13 -16 rlineto
            149 callgsubr
            -9 -7 -17 -4 hhcurveto
            -3 1 3 -1 3 hhcurveto
            4 hlineto
            -11 -7 -10 -22 -15 hhcurveto
            0 17 64 19 13 vhcurveto
            16 11 15 2 13 11 3 3 31 16 2 4 -1 4 rcurveline
            -3 -8 -4 -8 -12 hhcurveto
            0 -3 9 callgsubr
            2 11 -5 9 10 hhcurveto
            9 vlineto
            return
          </CharString>
          <CharString index="1">
            -24 -17 -18 -29 -34 -1 rrcurveto
            12 vlineto
            22 7 -4 69 17 vhcurveto
            -334 -26 34 callgsubr
            23 6 8 11 -1 -7 -23 -22 -8 -1 rrcurveto
            256 52 rmoveto
            16 12 5 16 hhcurveto
            -5 vlineto
            -16 -5 -17 -4 -11 -13 rrcurveto
            -237 40 rmoveto
            -6 -6 0 -6 vvcurveto
            -5 6 -1 4 vhcurveto
            -9 -20 -7 -3 -1 vhcurveto
            1 -1 7 2 vvcurveto
            2 7 23 13 vhcurveto
            311 -14 rmoveto
            -12 -8 -1 -9 vhcurveto
            -10 hlineto
            8 7 9 4 10 2 rrcurveto
            -78 34 rmoveto
            19 38 2 13 5 vhcurveto
            -3 -13 -44 -43 rlineto
            -4 10 0 9 11 vvcurveto
            51 hmoveto
            -2 -19 callsubr
            6 16 -23 callgsubr
            4 -2 0 -14 -3 vvcurveto
            -12 -30 -7 -8 vhcurveto
            42 4 rmoveto
            -4 -8 vlineto
            -303 21 rmoveto
            9 vlineto
            -2 2 2 -1 3 hhcurveto
            10 8 21 4 hvcurveto
            -2 -3 -1 -2 hhcurveto
            -2 216 callsubr
            23 35 35 16 16 hhcurveto
            -5 -22 -4 9 -26 -26 4 -4 -29 -18 rlinecurve
            0 -19 -18 -7 vhcurveto
            274 66 rmoveto
            -7 -3 -12 -13 -3 -10 rrcurveto
            4 -2 -1 4 -3 -12 -3 -14 -12 hhcurveto
            21 39 11 16 vhcurveto
            -81 16 rmoveto
            -3 -2 -2 -5 -2 hhcurveto
            -2 1 -1 2 8 21 26 2 7 vhcurveto
            5 9 23 1 10 hhcurveto
            -6 vlineto
            8 2 6 6 3 5 rrcurveto
            5 -4 -4 0 -6 -16 -16 -5 -16 hhcurveto
            3 1 45 33 6 5 rrcurveto
            3 -3 11 -2 -7 -11 -5 -5 -6 vhcurveto
            0 -1 11 callgsubr
            4 2 4 7 vhcurveto
            -1 -5 4 -2 hhcurveto
            -7 -21 -18 0 hvcurveto
            -3 -8 15 8 hvcurveto
            2 5 21 -4 24 15 rrcurveto
            1 182 callsubr
            -1 -4 -7 -1 vvcurveto
            0 1 -1 2 vhcurveto
            24 -6 7 7 hhcurveto
            9 11 -80 -19 -14 0 -17 -10 -12 hvcurveto
            4 -3 -5 1 -5 hhcurveto
            -2 -3 0 -1 -2 hvcurveto
            2 15 22 -2 18 vvcurveto
            4 -21 2 28 callsubr
            -21 -37 -26 -3 -20 hvcurveto
            2 -3 -7 2 -2 hhcurveto
            -18 -18 -7 -10 -15 hvcurveto
            14 17 24 12 22 9 rrcurveto
            3 23 rmoveto
            -57 -26 -29 -15 hhcurveto
            return
          </CharString>
          <CharString index="2">
            -2 -13 -1 -2 hhcurveto
            -29 -14 15 12 -26 hvcurveto
            -168 -9 rmoveto
            5 3 52 5 5 hhcurveto
            27 -14 rlineto
            172 25 rmoveto
            2 30 -12 -5 11 hvcurveto
            -3 -3 -7 -6 -4 hhcurveto
            -11 3 -15 12 -3 11 rrcurveto
            -173 39 rmoveto
            -3 87 -14 -8 41 hvcurveto
            30 -26 rlineto
            -5 vlineto
            -20 -46 19 4 -16 hvcurveto
            -1 -4 -1 -5 hhcurveto
            -6 -6 1 5 5 -42 9 -9 11 hvcurveto
            -2 -43 rmoveto
            1 1 -40 callgsubr
            3 4 1 4 1 hvcurveto
            -4 3 -1 2 5 vvcurveto
            7 24 -5 -5 hvcurveto
            -3 -10 -9 -6 -11 hhcurveto
            -4 -2 0 5 -2 hvcurveto
            -61 9 rmoveto
            4 10 -7 -2 6 hvcurveto
            -35 hlineto
            2 1 11 9 2 -1 rrcurveto
            227 12 rmoveto
            5 7 6 5 8 hhcurveto
            13 20 -21 -10 6 hvcurveto
            -4 hlineto
            -267 24 rmoveto
            11 16 -3 -5 12 hvcurveto
            -6 -7 -4 -2 -6 -26 19 -1 2 vhcurveto
            275 2 rmoveto
            6 6 -5 -3 6 hvcurveto
            -2 -3 -3 0 -2 hhcurveto
            -6 -3 5 5 -1 hvcurveto
            -24 20 229 callsubr
            -5 5 -2 5 -2 rlinecurve
            -8 -9 rlineto
            20 6 rmoveto
            8 1 14 2 8 5 rrcurveto
            -1 -1 -3 -16 -5 hhcurveto
            -3 -14 6 3 -4 hvcurveto
            -212 17 rmoveto
            -1 -6 -3 -2 -1 hvcurveto
            return
          </CharString>
          <CharString index="3">
            8 36 16 21 hhcurveto
            -1 -26 -11 -14 vvcurveto
            -1 6 -5 3 vhcurveto
            0 7 5 0 2 2 -3 -2 vhcurveto
            25 10 28 4 22 14 -8 -15 -16 -14 -11 -11 rrcurveto
            -18 vlineto
            18 7 10 5 18 hvcurveto
            -13 -7 -11 -11 -15 hhcurveto
            -12 -102 30 23 hvcurveto
            234 -34 rmoveto
            -6 -5 -6 -6 -4 -8 rrcurveto
            8 2 8 7 10 vvcurveto
            71 hmoveto
            5 12 4 7 vvcurveto
            -5 vlineto
            -4 0 -3 4 -4 vhcurveto
            -3 -3 -5 -3 -4 -2 rrcurveto
            -3 1 -1 4 3 vvcurveto
            -158 40 rmoveto
            0 32 17 14 3 11 0 -1 4 vhcurveto
            -2 -8 -25 -18 -3 hhcurveto
            -47 -28 rlineto
            -5 hlineto
            11 8 8 13 5 11 rrcurveto
            -186 68 rmoveto
            11 13 0 3 12 vhcurveto
            5 -8 rlineto
            66 hlineto
            -11 -63 -28 -10 -5 4 0 4 hvcurveto
            19 19 4 20 hhcurveto
            10 7 0 -4 11 hvcurveto
            -7 -14 -39 -29 -27 hhcurveto
            -16 -11 53 11 hvcurveto
            127 -60 rmoveto
            10 6 21 9 13 hhcurveto
            2 8 -2 -1 1 hvcurveto
            -1 -30 -19 -13 -1 -6 3 23 callsubr
            8 35 rmoveto
            2 -3 6 -3 4 -2 rrcurveto
            -11 -37 -4 -4 -3 hhcurveto
            4 vlineto
            -5 -8 -14 -8 -10 hhcurveto
            0 -3 1 0 vhcurveto
            14 21 36 -8 17 18 rrcurveto
            -48 33 rmoveto
            -5 vlineto
            8 5 17 -17 -5 -4 rlineto
            -12 -40 -4 -15 hhcurveto
            12 10 27 10 8 5 rrcurveto
            -43 27 rmoveto
            15 13 14 6 12 hvcurveto
            -1 -1 -1 -2 -7 5 -8 -8 vvcurveto
            -14 hlineto
            -8 -8 -1 -4 -6 hvcurveto
            4 vlineto
            -59 11 rmoveto
            return
          </CharString>
          <CharString index="4">
            -4 129 callgsubr
            -2 -3 -1 -3 -7 hvcurveto
            -1 9 74 33 9 4 rrcurveto
            -94 -12 rmoveto
            12 10 74 20 10 hhcurveto
            4 6 -7 callgsubr
            -7 -13 -30 -2 -11 -7 -8 -4 -37 -22 -7 -4 rrcurveto
            1 -4 13 7 vvcurveto
            90 61 rmoveto
            4 9 22 -9 rlineto
            1 -2 1 -2 -2 vvcurveto
            -11 -75 -11 -17 -9 vhcurveto
            2 11 52 19 10 7 rrcurveto
            -91 9 rmoveto
            74 -5 hlineto
            -9 -12 -44 -14 -20 -13 rrcurveto
            -2 7 -1 6 5 9 2 8 9 vvcurveto
            return
          </CharString>
          <CharString index="5">
            -14 -9 7 -11 hhcurveto
            -5 -24 -11 -7 -11 hvcurveto
            -5 7 rlineto
            1 4 2 0 vhcurveto
            15 12 rlineto
            -7 -6 -3 -6 hhcurveto
            -2 2 -1 3 -1 4 rrcurveto
            17 9 35 16 9 vvcurveto
            1 -4 -23 callgsubr
            -8 -4 -27 -14 -15 -11 -1 10 -1 10 -4 1 4 4 rcurveline
            3 callgsubr
            -3 -10 -5 -2 vhcurveto
            -2 2 -5 8 2 vvcurveto
            7 4 0 18 1 vvcurveto
            -1 -1 -7 -2 -3 hhcurveto
            1 -10 3 7 5 21 17 3 7 hvcurveto
            -9 -8 -12 -10 hhcurveto
            -4 -3 0 4 -1 hvcurveto
            -8 -3 -6 -2 -6 -6 -6 2 -5 hhcurveto
            1 2 59 28 13 1 185 callgsubr
            -3 2 5 -6 2 hhcurveto
            -2 37 23 2 hvcurveto
            -1 -7 -7 0 -5 -11 -6 1 -1 hhcurveto
            -4 -37 -41 -5 -11 hvcurveto
            3 4 12 20 10 vvcurveto
            return
          </CharString>
          <CharString index="6">
            -2 8 -12 3 10 vvcurveto
            20 hlineto
            -22 0 -60 -19 vhcurveto
            -69 -17 rlineto
            -8 hlineto
            20 6 70 64 8 vvcurveto
            -82 -31 rmoveto
            3 8 34 14 14 hhcurveto
            -14 -16 -26 -20 -20 -11 rrcurveto
            5 -1 7 4 vvcurveto
            5 0 5 5 4 vhcurveto
            298 5 rmoveto
            12 13 55 9 14 hhcurveto
            -20 -23 -44 -11 -14 -22 rrcurveto
            78 9 rmoveto
            -44 hlineto
            13 21 24 22 11 hhcurveto
            -1 -12 -2 -16 -6 -11 rrcurveto
            -387 77 rmoveto
            52 hlineto
            -14 -21 -25 -21 -2 hhcurveto
            -4 hlineto
            302 29 rmoveto
            4 13 0 8 hvcurveto
            21 hlineto
            -4 -11 rlineto
            -1 -1 -32 -12 -1 hhcurveto
            51 18 rmoveto
            43 hlineto
            -13 -8 -18 -1 -12 -3 -12 -11 callgsubr
            return
          </CharString>
          <CharString index="7">
            -24 -12 rlineto
            167 callgsubr
            hhcurveto
            -4 -1 6 3 hvcurveto
            -39 32 rmoveto
            2 -3 1 -1 1 -8 -5 -3 -1 vhcurveto
            -1 1 0 5 0 vvcurveto
            11 11 0 8 vhcurveto
            11 -5 -12 11 3 1 4 4 2 121 callgsubr
            39 20 rlineto
            -6 5 -10 -6 vvcurveto
            -27 -24 -9 -26 hhcurveto
            -15 47 rmoveto
            -7 2 -1 5 164 callgsubr
            vhcurveto
            53 hlineto
            -5 -7 -4 -3 -3 vhcurveto
            4 -1 -4 0 -2 hhcurveto
            -7 -2 -1 -7 -4 hvcurveto
            -43 hlineto
            return
          </CharString>
          <CharString index="8">
            -6 6 -6 7 vhcurveto
            249 191 rmoveto
            39 13 34 22 25 16 35 29 rlinecurve
            6 -8 vlineto
            2 4 7 5 5 2 22 24 rcurveline
            4 hlineto
            -15 25 -59 7 -21 vhcurveto
            5 -16 34 -48 -17 vvcurveto
            -15 -4 -2 -7 -15 vhcurveto
            5 1 6 3 13 8 rrcurveto
            -23 -13 7 -10 vvcurveto
            -3 -1 0 -40 -22 vhcurveto
            -1 1 36 0 1 14 -10 21 12 hhcurveto
            26 -16 -47 -10 21 hvcurveto
            -5 -4 rlineto
            1 -59 3 7 -14 hhcurveto
            -6 -8 -1 -3 -15 hvcurveto
            -3 -3 3 3 -2 hvcurveto
            28 4 42 6 2 4 rrcurveto
            return
          </CharString>
          <CharString index="9">
            0 -32 callsubr
            20 36 21 12 6 vhcurveto
            11 6 3 8 22 7 rrcurveto
            138 -265 rmoveto
            -3 -22 -28 -5 vhcurveto
            -5 hlineto
            -12 -16 -15 -11 -20 -5 rrcurveto
            34 49 16 30 13 vhcurveto
            -320 -120 rmoveto
            -3 4 -5 4 vhcurveto
            11 60 17 22 vvcurveto
            -7 -12 -27 -13 -10 -3 5 3 13 11 5 5 rrcurveto
            3 17 30 5 20 vvcurveto
            -7 0 -12 -6 214 callsubr
            -2 hvcurveto
            -63 -64 0 -1 0 vvcurveto
            209 271 rmoveto
            -33 -4 -58 -56 -7 vvcurveto
            return
          </CharString>
          <CharString index="10">
            27 callsubr
            23 callsubr
            -13 -13 -9 -9 -14 -9 rrcurveto
            -2 -8 -19 -21 -9 vvcurveto
            -3 2 -2 5 14 34 18 14 2 vhcurveto
            1 -1 3 -6 -1 vvcurveto
            -15 -36 -9 -15 -24 vhcurveto
            -1 -1 -1 -1 hhcurveto
            -4 -1 2 3 hvcurveto
            4 2 6 2 vvcurveto
            -7 hlineto
            -4 -4 24 3 -3 hvcurveto
            -3 5 -7 4 0 vvcurveto
            -7 -3 -10 -30 -9 -11 -3 -5 -15 -22 -5 -5 rrcurveto
            -6 -1 -15 -4 -8 -76 callgsubr
            20 8 rlineto
            -14 -28 -38 -15 vvcurveto
            return
          </CharString>
          <CharString index="11">
            95 90 rmoveto
            -53 -20 12 -14 vvcurveto
            -4 5 -71 -33 19 35 63 16 13 32 rlinecurve
            -95 -28 rmoveto
            19 48 23 10 hvcurveto
            -16 -40 -4 -1 -1 hhcurveto
            22 29 20 16 11 vhcurveto
            -5 vlineto
            7 4 21 16 12 vvcurveto
            183 callsubr
            0 vvcurveto
            -10 -72 -76 -5 hhcurveto
            32 vlineto
            26 3 24 27 21 6 rrcurveto
            1 -6 3 -2 vhcurveto
            -12 -6 -30 -4 -11 hhcurveto
            1 6 36 32 2 -2 20 11 21 14 15 18 rrcurveto
            3 -12 -121 -9 -11 1 -9 -7 -5 vhcurveto
            -4 3 rlineto
            -4 -1 -4 -3 hvcurveto
            -2 1 -26 callsubr
            -17 -13 -38 -26 -16 -20 rrcurveto
            -315 153 rmoveto
            -14 -1 -33 -20 vhcurveto
            0 -3 5 0 -2 -29 -10 -11 -13 vhcurveto
            17 22 27 30 24 11 rrcurveto
            return
          </CharString>
          <CharString index="12">
            -22 6 -19 -20 vvcurveto
            26 5 rmoveto
            3 -1 -9 -3 1 hvcurveto
            -11 hlineto
            6 0 6 8 vhcurveto
            44 20 rmoveto
            2 -7 3 -11 -9 vvcurveto
            -32 hlineto
            5 13 7 11 15 3 rrcurveto
            -55 hmoveto
            32 vlineto
            23 4 rlineto
            7 callsubr
            -12 -5 -21 -10 -4 -4 1 2 -1 vhcurveto
            39 36 rmoveto
            18 hlineto
            -10 -12 -13 -6 -1 vhcurveto
            endchar
          </CharString>
          <CharString index="13">
            285 33 rmoveto
            -60 -31 rlineto
            -7 -3 -3 -6 -7 vvcurveto
            8 11 2 10 4 hvcurveto
            73 38 rlineto
            0 187 callsubr
            6 -3 4 -6 -10 -61 -9 -8 -11 vhcurveto
            -151 29 rmoveto
            4 -6 6 -11 -9 vvcurveto
            -4 -3 1 -3 -28 -19 -18 -26 hhcurveto
            -26 35 rmoveto
            8 49 9 19 5 7 -1 -1 5 vhcurveto
            -9 -7 -57 -28 -4 hhcurveto
            -7 -10 15 7 hvcurveto
            292 76 rmoveto
            5 8 7 1 7 hhcurveto
            13 hlineto
            6 8 1 3 8 hvcurveto
            -12 -10 -51 -22 -3 -16 rrcurveto
            -4 24 25 0 26 hhcurveto
            -16 -22 -51 -4 -37 -8 rrcurveto
            -4 1 -1 2 3 vvcurveto
            16 31 40 12 14 vhcurveto
            -314 -33 rmoveto
            12 4 21 1 16 13 10 -1 13 hhcurveto
            -5 -11 -45 -11 -14 -12 -6 4 -6 15 -1 3 rrcurveto
            99 9 rmoveto
            4 -6 1 -2 -6 vvcurveto
            -9 -24 -11 -8 -30 hhcurveto
            18 13 23 10 19 8 rrcurveto
            276 26 rmoveto
            -4 vlineto
            14 17 17 4 16 hvcurveto
            -21 -48 rlineto
            5 -5 -4 0 -6 -18 -17 -10 -20 -1 -9 -25 callgsubr
            19 8 34 21 3 6 rrcurveto
            -304 17 rmoveto
            8 2 -14 -3 1 hvcurveto
            -10 -5 -61 -8 -16 hhcurveto
            9 5 56 26 10 hhcurveto
            -88 1 rmoveto
            10 53 11 25 vhcurveto
            -5 -44 -36 -19 -11 -4 11 9 vhcurveto
            357 46 rmoveto
            -2 3 2 0 2 hhcurveto
            3 2 1 3 return
          </CharString>
          <CharString index="14">
            -7 -25 -54 -67 -15 hhcurveto
            -24 9 -27 13 -14 22 rrcurveto
            250 73 rmoveto
            21 3 19 9 19 hhcurveto
            13 vlineto
            54 35 rlineto
            3 -9 2 -11 -10 vvcurveto
            -16 -1 -30 -8 -4 vvcurveto
            -1 2 0 6 5 6 0 1 8 vhcurveto
            -14 -23 -33 -8 -21 -13 -26 -16 -24 -24 -28 -16 -29 -17 -59 -31 2 1 13 25 35 15 21 25 26 10 36 10 20 27 rrcurveto
            -25 -73 rmoveto
            return
          </CharString>
          <CharString index="15">
            20 16 rmoveto
            2 11 16 4 6 8 rrcurveto
            73 callsubr
            hhcurveto
            8 9 4 9 2 hvcurveto
            3 -8 -36 -43 rlineto
            0 -1 -1 -2 -8 -4 9 8 vhcurveto
            8 35 rmoveto
            7 11 14 -9 6 14 rrcurveto
            -1 4 -3 1 3 12 8 12 8 vhcurveto
            4 -5 12 8 rlineto
            return
          </CharString>
          <CharString index="16">
            -22 -18 -8 rrcurveto
            hintmask 0100110111111100
            -30 -19 0 -53 -23 vvcurveto
            hintmask 1000010111111100
            -26 5 -38 25 vhcurveto
            25 25 9 25 hhcurveto
            -71 21 rmoveto
            hintmask 0110000111111100
            20 62 2 13 7 1 -5 -7 -14 -61 -9 -13 -9 0 6 7 vhcurveto
            53 39 rmoveto
            hintmask 0101010111111100
            -5 6 -1 7 vhcurveto
            hintmask 0100110111111100
            6 6 1 5 hhcurveto
            hintmask 0110000111111100
            -12 -15 -46 0 -9 hhcurveto
            4 7 28 5 8 5 rrcurveto
            -61 1 rmoveto
            4 12 4 6 vhcurveto
            hintmask 1000010111111100
            1 6 -5 1 12 24 5 -1 hhcurveto
            -11 -13 -22 -7 -15 hhcurveto
            -8 -3 3 7 hvcurveto
            30 81 rmoveto
            7 6 -6 9 hhcurveto
            3 4 0 1 2 hvcurveto
            -8 -15 -41 3 -21 vvcurveto
            -11 24 -2 3 -6 vhcurveto
            -1 -7 -17 -3 -11 hhcurveto
            43 vlineto
            5 27 12 -35 callgsubr
            48 -48 rmoveto
            5 -1 1 -8 -4 vvcurveto
            -6 hlineto
            -40 24 rmoveto
            5 12 7 5 vhcurveto
            -10 6 -4 -5 vvcurveto
            -1 -3 -3 -2 vhcurveto
            -3 9 -15 -10 12 vvcurveto
            31 55 rmoveto
            17 hlineto
            -8 -10 rlineto
            -31 hlineto
            22 30 rmoveto
            7 17 7 1 vhcurveto
            -6 -3 -16 -9 -3 -3 3 5 vhcurveto
            16 21 rmoveto
            5 3 4 5 6 hhcurveto
            -5 -2 -4 -3 -4 vhcurveto
            return
          </CharString>
          <CharString index="17">
            6 -2 -7 2 -2 hhcurveto
            -8 -14 -6 -5 -3 hvcurveto
            4 5 -3 -1 3 hvcurveto
            -33 -20 -49 -28 -37 -12 rrcurveto
            42 50 -8 18 14 vhcurveto
            3 -7 -3 -11 callgsubr
            -2 -3 -1 -3 -6 hvcurveto
            10 12 44 12 10 vvcurveto
            -24 -30 -23 -11 -24 hvcurveto
            9 3 8 31 10 hhcurveto
            -2 2 6 -3 1 hhcurveto
            21 27 14 10 17 hvcurveto
            -16 -12 -9 -15 hhcurveto
            -8 callgsubr
            hvcurveto
            17 7 23 17 16 8 rrcurveto
            4 vlineto
            -28 -8 -29 -15 -23 -17 rrcurveto
            4 vlineto
            24 56 15 3 rlineto
            -9 -6 -9 -13 -10 vvcurveto
            7 9 6 7 hhcurveto
            36 19 49 16 37 12 rrcurveto
            -4 -11 -71 -22 -14 vvcurveto
            17 14 30 5 20 9 rrcurveto
            -13 -8 -23 -23 vhcurveto
            -5 -1 5 -1 hhcurveto
            -24 -9 -19 -13 -1 vvcurveto
            5 8 6 9 hhcurveto
            -7 -21 -13 -15 -7 vhcurveto
            4 -5 22 13 21 6 20 13 rlinecurve
            -30 -27 -34 -16 -27 vhcurveto
            -9 -16 -88 -7 -29 -12 -1 10 129 57 10 11 rrcurveto
            -55 -7 rmoveto
            -6 -1 -8 -2 -7 vvcurveto
            7 2 4 6 5 hvcurveto
            83 137 34 callgsubr
            7 3 1 vhcurveto
            -10 vlineto
            60 42 -1 -19 -10 -19 -9 -17 rlinecurve
            return
          </CharString>
          <CharString index="18">
            142 10 rmoveto
            3 3 0 -4 2 hvcurveto
            -2 -1 1 -1 -6 1 -6 -7 hhcurveto
            6 2 3 6 vhcurveto
            24 12 rmoveto
            -8 vlineto
            19 25 36 -6 28 23 rrcurveto
            16 27 -2 -13 24 hvcurveto
            -9 -21 -2 -14 -2 hvcurveto
            3 -5 2 -2 vhcurveto
            0 -17 -7 -3 -1 vhcurveto
            1 1 0 3 3 vvcurveto
            6 -2 7 -6 -2 -2 0 -1 -2 vhcurveto
            -62 -27 rlineto
            -2 -1 1 -1 hhcurveto
            -9 -8 -10 -3 -2 hvcurveto
            114 callgsubr
            5 1 2 11 1 hhcurveto
            -16 8 rmoveto
            44 31 rlineto
            39 hlineto
            -10 -58 -10 -25 -16 vhcurveto
            return
          </CharString>
          <CharString index="19">
            rmoveto
            9 -16 35 2 15 -10 25 -16 34 -3 29 -9 rrcurveto
            7 2 59 5 5 hvcurveto
            -22 8 10 10 -43 13 rrcurveto
            14 -24 -62 42 -23 hhcurveto
            -1 -4 -7 callgsubr
            -8 -2 -36 -10 -8 -3 rrcurveto
            return
          </CharString>
          <CharString index="20">
            -90 callgsubr
            103 58 rmoveto
            4 -1 4 -5 2 vhcurveto
            -7 -8 -37 -27 -10 -44 callsubr
            -22 -17 -38 -13 -26 -3 -15 -25 callgsubr
            27 16 28 20 26 22 rrcurveto
            200 -10 rmoveto
            -7 -5 -41 -4 vhcurveto
            -51 hlineto
            12 16 33 36 11 hhcurveto
            -121 -31 rmoveto
            22 8 -9 -16 rlineto
            -7 -1 3 5 -5 hvcurveto
            -280 4 rmoveto
            -18 callgsubr
            27 43 -5 25 vvcurveto
            -8 -10 -5 3 -12 -6 rrcurveto
            0 -1 11 callgsubr
            8 20 12 14 14 vhcurveto
            9 -17 rlineto
            -2 -2 -5 -1 hvcurveto
            return
          </CharString>
          <CharString index="21">
            -8 -3 -10 -5 -5 -7 rrcurveto
            -1 12 3 4 hhcurveto
            -13 -16 -23 -4 -12 -15 -11 -6 -52 -30 -11 -7 rrcurveto
            -4 -6 -21 -26 -13 hhcurveto
            300 112 rmoveto
            -8 -7 -4 -8 hhcurveto
            -55 -23 rlineto
            -11 -24 -24 -21 hhcurveto
            29 17 18 15 28 19 rrcurveto
            8 -2 13 6 hhcurveto
            55 hlineto
            5 0 -8 -2 -49 -34 21 -18 -18 hvcurveto
            -8 -8 -6 -9 -15 hhcurveto
            23 68 14 16 vvcurveto
            -300 -21 rmoveto
            3 30 28 6 10 vhcurveto
            3 4 56 37 4 1 rrcurveto
            -33 -1 8 -15 -9 vhcurveto
            return
          </CharString>
          <CharString index="22">
            -371 18 rmoveto
            4 18 -1 4 hhcurveto
            -1 -1 -69 -26 -38 -11 rrcurveto
            39 41 0 34 vhcurveto
            37 -13 rmoveto
            -76 callgsubr
            -11 -28 -4 -7 vhcurveto
            -2 -5 -25 callgsubr
            24 12 13 -1 6 6 rrcurveto
            258 -14 rmoveto
            1 52 31 4 4 hvcurveto
            5 5 16 5 0 vvcurveto
            -22 vlineto
            -82 -28 rlineto
            52 49 rmoveto
            -8 -13 -31 -28 -18 hhcurveto
            6 0 6 6 3 vhcurveto
            6 13 33 15 2 hhcurveto
            -367 -9 rmoveto
            -2 -1 48 19 23 8 7 5 0 8 6 4 rrcurveto
            return
          </CharString>
          <CharString index="23">
            -190 59 rmoveto
            -2 -18 -33 -22 -13 -7 rrcurveto
            0 -1 6 6 vvcurveto
            17 2 3 13 vhcurveto
            0 21 12 13 3 vhcurveto
            -12 -39 rmoveto
            -5 vlineto
            6 33 21 3 5 hvcurveto
            5 vlineto
            -17 -4 -12 -14 -15 -6 rrcurveto
            36 4 rmoveto
            -8 vlineto
            14 13 10 13 7 17 -6 -2 -6 -4 -4 -6 4 -3 rcurveline
            223 -4 rmoveto
            -6 -9 -2 -7 hvcurveto
            7 6 6 2 9 hvcurveto
            73 callgsubr
            -314 43 rmoveto
            166 callsubr
            7 10 8 7 hhcurveto
            return
          </CharString>
          <CharString index="24">
            -2 -19 -16 1 hhcurveto
            4 1 14 5 4 -3 28 4 vvcurveto
            39 24 rmoveto
            -11 -14 -17 -1 -21 vvcurveto
            19 38 15 10 10 hvcurveto
            -6 vlineto
            13 0 14 0 hvcurveto
            -4 -24 -21 -17 -23 hhcurveto
            5 5 11 9 10 vvcurveto
            -28 41 rmoveto
            16 hlineto
            -2 -8 -16 -9 -6 -8 rrcurveto
            19 3 -4 5 10 vhcurveto
            24 -10 rmoveto
            5 3 3 4 8 hhcurveto
            5 4 0 -4 5 hvcurveto
            -16 -8 -6 -7 rlineto
            -11 -8 -5 -11 hhcurveto
            17 17 1 -8 6 6 rrcurveto
            return
          </CharString>
          <CharString index="25">
            8 12 11 7 14 hhcurveto
            -2 41 rmoveto
            1 3 -7 150 callgsubr
            hvcurveto
            -39 hlineto
            11 10 16 1 13 hhcurveto
            -82 48 rmoveto
            4 19 17 2 15 hhcurveto
            10 10 -1 -1 8 hvcurveto
            -6 -51 -8 -16 -7 vhcurveto
            -6 4 0 9 -6 4 rrcurveto
            82 -8 rmoveto
            -9 -35 vlineto
            3 10 24 6 1 hhcurveto
            -108 26 rmoveto
            18 28 -7 15 5 vhcurveto
            1 15 9 1 hhcurveto
            3 15 -2 -2 4 hvcurveto
            -5 -5 -23 -6 -19 -6 -23 -9 rlinecurve
            return
          </CharString>
          <CharString index="26">
            rmoveto
            0 29 -16 5 vhcurveto
            0 2 0 73 79 vhcurveto
            12 vlineto
            5 -4 rlineto
            12 4 2 31 12 vvcurveto
            -2 7 -1 7 7 12 2 11 12 vvcurveto
            17 -2 18 -14 12 vhcurveto
            -55 -14 -5 -19 -7 -4 5 -8 hhcurveto
            -7 -8 -6 -6 -5 hvcurveto
            7 -2 1 224 callsubr
            -5 -5 vvcurveto
            return
          </CharString>
          <CharString index="27">
            9 7 15 1 10 hhcurveto
            -26 -41 -34 -11 -25 vhcurveto
            -24 -1 -23 -30 -16 -9 -59 -35 rcurveline
            -5 -8 rlineto
            -76 callgsubr
            38 30 62 46 hhcurveto
            -7 -18 -17 -19 -19 -7 rrcurveto
            -27 callgsubr
            2 3 13 10 1 vvcurveto
            -8 -29 -29 -3 hvcurveto
            1 22 5 3 8 hvcurveto
            -12 -25 -2 -8 vvcurveto
            1 11 4 2 5 hvcurveto
            -4 vlineto
            -30 -21 -29 -11 -32 -19 -11 -6 -14 -16 -14 -2 5 11 4 12 2 13 rrcurveto
            269 4 rmoveto
            -15 -6 2 -10 -11 -8 rrcurveto
            13 11 11 13 hvcurveto
            -182 47 rmoveto
            -8 -2 -64 -31 -11 vvcurveto
            23 14 8 17 12 hvcurveto
            5 7 18 1 11 vvcurveto
            60 -27 rmoveto
            0 6 0 2 vhcurveto
            -4 -8 -21 -5 0 vvcurveto
            12 8 1 9 vhcurveto
            8 136 rmoveto
            -14 -13 -10 -9 -9 hvcurveto
            13 23 2 17 hvcurveto
            -52 1 rmoveto
            -4 1 -5 4 2 2 1 1 2 vhcurveto
            48 19 rlineto
            return
          </CharString>
          <CharString index="28">
            -24 53 48 -19 60 hhcurveto
            28 11 8 9 24 hvcurveto
            98 37 52 40 111 vvcurveto
            42 -9 46 -16 39 vhcurveto
            -32 79 -29 50 -86 22 rrcurveto
            8 -30 -21 13 -31 hhcurveto
            -17 hlineto
            -85 -11 -73 -35 -39 -77 rrcurveto
            -39 -61 -18 -28 -73 vvcurveto
            297 -193 rmoveto
            25 23 35 2 23 22 rrcurveto
            4 57 16 24 37 hvcurveto
            -76 callgsubr
            -17 -34 -26 -14 -6 vhcurveto
            -12 -5 -52 -22 -2 1 rrcurveto
            return
          </CharString>
          <CharString index="29">
            5 12 -3 12 7 hhcurveto
            1 1 -1 -3 2 hvcurveto
            8 5 31 34 23 hhcurveto
            2 12 225 callgsubr
            -14 -11 -12 -19 -2 -2 rrcurveto
            128 callsubr
            -7 -36 -36 -3 vhcurveto
            -1 2 5 -4 1 hhcurveto
            11 3 30 29 0 vvcurveto
            14 30 28 9 hhcurveto
            -31 -32 rlineto
            return
          </CharString>
          <CharString index="30">
            -4 -28 -9 0 -29 hhcurveto
            -13 -15 1 8 -9 hvcurveto
            -263 39 rmoveto
            32 16 51 29 16 7 rrcurveto
            14 hlineto
            -21 -71 -24 -18 vvcurveto
            -4 3 0 3 -3 vhcurveto
            9 3 15 5 5 10 5 -5 rcurveline
            1 70 36 2 vvcurveto
            2 4 -2 -2 1 hvcurveto
            return
          </CharString>
          <CharString index="31">
            38 49 47 29 hhcurveto
            -8 vlineto
            -21 -29 -27 -16 -12 hvcurveto
            -4 1 6 -1 5 hhcurveto
            8 hlineto
            16 28 31 22 33 hhcurveto
            -13 0 -20 -14 vhcurveto
            5 -5 rlineto
            -7 -11 -13 -1 -12 -58 -58 5 -58 hhcurveto
            -8 -4 rlineto
            -28 vlineto
            -11 -31 8 -17 vvcurveto
            2 -3 2 -2 -6 -28 -16 -8 -1 vhcurveto
            1 1 1 1 hhcurveto
            9 20 30 14 7 hhcurveto
            5 5 -8 -3 1 hvcurveto
            return
          </CharString>
          <CharString index="32">
            6 16 59 20 16 hhcurveto
            -1 -1 -2 -1 -3 168 callgsubr
            -18 -46 -2 -20 -15 -6 1 4 -4 vhcurveto
            56 31 rmoveto
            -5 vlineto
            0 -23 -4 -7 -1 -3 0 0 vhcurveto
            7 2 12 3 10 hhcurveto
            4 3 225 callgsubr
            26 34 rmoveto
            5 2 4 0 3 hhcurveto
            8 2 -27 -3 hvcurveto
            -66 hlineto
            -17 12 rmoveto
            7 12 12 7 -1 1 22 -65 callgsubr
            -9 -13 -13 -8 -17 hhcurveto
            0 -4 3 callsubr
            -73 21 rmoveto
            19 28 86 7 19 hhcurveto
            -36 -38 -36 2 1 hvcurveto
            -11 -4 9 -16 hhcurveto
            -1 -7 0 -1 hvcurveto
            -4 -8 rlineto
            6 -5 3 -6 -2 -3 0 -1 -1 vhcurveto
            142 23 rmoveto
            3 -6 2 -6 -5 vvcurveto
            -17 -22 -4 -2 -14 hvcurveto
            5 32 11 16 7 vhcurveto
            -77 23 rmoveto
            4 -4 2 -5 vhcurveto
            return
          </CharString>
          <CharString index="33">
            -24 -41 0 -2 -6 hhcurveto
            14 18 70 34 19 vvcurveto
            -10 -8 -8 -8 -7 hvcurveto
            2 -1 -2 2 -3 hhcurveto
            -1 -14 -6 -2 -4 hvcurveto
            12 12 2 10 7 vhcurveto
            2 -2 9 callgsubr
            -11 hlineto
            16 8 6 -8 rlineto
            2 38 26 8 7 vhcurveto
            return
          </CharString>
          <CharString index="34">
            274 rmoveto
            -22 7 -76 17 vhcurveto
            55 8 10 34 hhcurveto
            hintmask 01010010
            5 18 -9 11 hhcurveto
            6 4 2 7 hvcurveto
            59 vlineto
            1 5 7 13 4 vvcurveto
            3 -23 67 -8 vhcurveto
            -17 1 rlineto
            hintmask 10001010
            1 -22 -31 6 -18 hhcurveto
            -9 -37 -3 -8 hvcurveto
            -18 -8 -14 -28 vvcurveto
            hintmask 01101100
            34 -33 rmoveto
            23 13 -14 18 13 vhcurveto
            -1 1 7 -3 1 13 15 9 14 3 9 -40 callgsubr
            -15 -21 -52 -5 -29 vvcurveto
            -6 -16 -4 -1 -2 hvcurveto
            -4 14 -1 6 14 vvcurveto
            100 -13 rmoveto
            -12 vlineto
            -16 -15 -5 -16 hhcurveto
            15 3 18 5 14 9 rrcurveto
            -108 48 rmoveto
            52 vlineto
            28 27 -1 -4 27 hvcurveto
            -3 -13 -6 -1 -6 -7 -7 1 -15 hhcurveto
            -15 45 4 14 -3 vhcurveto
            -7 -7 -70 -27 -5 -1 rrcurveto
            endchar
          </CharString>
          <CharString index="35">
            19 11 -1 32 hhcurveto
            25 30 3 14 hvcurveto
            39 -11 41 40 5 1 4 5 vvcurveto
            -21 122 rlineto
            36 -5 37 37 41 9 36 40 vvcurveto
            8 -131 14 0 -15 -1 -22 -17 -15 4 -124 1 -16 vhcurveto
            -3 -1 -23 -17 vvcurveto
            return
          </CharString>
          <CharString index="36">
            -9 -9 1 5 -4 hvcurveto
            -17 -19 1 -17 hhcurveto
            -19 -18 -1 -5 -9 hvcurveto
            34 135 14 25 17 vhcurveto
            -18 39 rmoveto
            -14 -13 -6 -13 vvcurveto
            -2 165 callsubr
            -74 -22 18 23 43 25 25 13 rlinecurve
            74 -38 rmoveto
            -6 vlineto
            -2 -41 -13 -9 hhcurveto
            0 -4 1 0 vhcurveto
            13 8 34 5 14 hhcurveto
            -111 36 rmoveto
            0 4 -3 -1 vvcurveto
            -6 -47 -29 -6 -6 vhcurveto
            -1 3 0 3 2 vvcurveto
            23 32 10 18 4 vhcurveto
            55 40 rmoveto
            -24 -8 -30 -6 -18 hhcurveto
            3 5 31 19 22 6 rrcurveto
            -39 26 rmoveto
            47 -4 rlineto
            -5 -55 -25 0 vhcurveto
            -9 hlineto
            73 69 rmoveto
            -11 -4 -28 -11 -13 -11 rrcurveto
            2 -3 2 5 vvcurveto
            4 2 9 13 1 hhcurveto
            67 -4 rmoveto
            0 2 -5 0 vhcurveto
            return
          </CharString>
          <CharString index="37">
            150 -24 31 -31 105 -89 -21 29 -21 33 -21 28 -21 25 23 -23 63 -19 134 -47 47 16 70 -27 27 -27 157 -134 86 49 63 -39 39 -20 -20 25 -20 27 -20 24 -20 21 181 callsubr
            489 -24 callsubr
            27 30 -27 -20 21 -20 21 164 callsubr
            58 25 -10 82 -67 67 -36 36 return
          </CharString>
          <CharString index="38">
            7 15 9 11 hhcurveto
            2 2 226 callgsubr
            -16 0 -24 -5 -17 vhcurveto
            -5 -16 -39 8 -4 -19 rrcurveto
            2 15 5 3 11 hvcurveto
            -59 -44 -1 1 0 vvcurveto
            -4 -6 -12 -1 -5 hvcurveto
            75 25 rmoveto
            -76 callgsubr
            -12 -12 -5 -10 vhcurveto
            12 13 4 8 4 vhcurveto
            -45 140 rmoveto
            -5 -2 -4 -6 hvcurveto
            -12 callsubr
            return
          </CharString>
          <CharString index="39">
            -4 -3 -5 15 -86 -9 -12 77 rlinecurve
            -1 2 7 0 7 hhcurveto
            7 6 0 1 3 hvcurveto
            225 15 20 12 10 2 -1 2 2 vvcurveto
            3 2 2 7 3 vhcurveto
            -1 -4 2 2 hvcurveto
            6 5 -2 24 vvcurveto
            -6 55 -7 60 -43 35 rrcurveto
            24 -30 -87 31 -34 hhcurveto
            -45 -82 -46 -6 -6 hvcurveto
            -29 -22 -20 -19 -10 -34 rrcurveto
            return
          </CharString>
          <CharString index="40">
            304 50 rmoveto
            26 17 6 23 hhcurveto
            -12 -17 -38 -23 -8 -4 rrcurveto
            -7 4 -2 14 10 vvcurveto
            4 0 4 1 2 vhcurveto
            83 6 rmoveto
            -38 vlineto
            -17 -17 -5 -17 hhcurveto
            13 17 24 9 14 17 rrcurveto
            -301 65 rmoveto
            return
          </CharString>
          <CharString index="41">
            rmoveto
            7 0 10 -4 6 vhcurveto
            -87 90 -1 4 -36 48 -23 30 rlinecurve
            1 1 1 2 vvcurveto
            13 -12 19 -15 vhcurveto
            -121 -48 5 -8 13 -4 4 -11 rlinecurve
            24 -57 43 -50 41 -45 -23 -17 -3 -42 -34 -22 -6 -11 -30 -55 -8 -11 rrcurveto
            -6 -9 -29 -15 -19 vvcurveto
            -5 2 -4 5 vhcurveto
            21 26 5 25 hhcurveto
            return
          </CharString>
          <CharString index="42">
            45 callgsubr
            -271 -22 rmoveto
            42 4 rlineto
            -4 vlineto
            -1 -31 -4 -2 -6 -3 0 5 vhcurveto
            -101 24 rmoveto
            20 -9 -8 -8 12 hvcurveto
            18 2 13 8 17 hhcurveto
            7 9 -19 -2 8 hvcurveto
            -10 -10 -16 0 -16 hhcurveto
            -4 hlineto
            -17 -16 2 19 hvcurveto
            200 -11 rmoveto
            -11 6 4 -47 hhcurveto
            14 4 57 7 12 hhcurveto
            -13 -3 -4 -12 -14 hhcurveto
            -134 85 rmoveto
            50 15 28 28 44 vhcurveto
            12 5 15 1 hhcurveto
            32 11 -55 -19 hvcurveto
            -9 -11 -2 -9 -3 10 -7 -4 vvcurveto
            return
          </CharString>
          <CharString index="43">
            2 -3 -1 2 -2 -40 -35 -40 -41 hhcurveto
            18 23 30 15 27 9 rrcurveto
            -68 9 rmoveto
            3 callgsubr
            8 9 91 44 6 vvcurveto
            13 37 8 10 8 hhcurveto
            2 1 -2 -2 hvcurveto
            -62 -40 -55 -42 -62 -40 rrcurveto
            21 10 16 18 3 vhcurveto
            63 19 rmoveto
            2 1 -3 5 hhcurveto
            25 19 30 12 25 20 rrcurveto
            2 -1 1 -2 -3 vvcurveto
            -7 -52 -35 -1 vhcurveto
            -10 8 rlineto
            -8 -6 -23 -24 -14 -38 callgsubr
            4 4 14 10 1 9 rrcurveto
            -315 10 rmoveto
            18 106 40 16 8 vhcurveto
            -51 -48 rlineto
            4 vlineto
            -8 -3 -11 -11 -8 vvcurveto
            12 30 5 13 8 hvcurveto
            91 43 -44 -43 rlineto
            -12 -8 -18 -2 -11 hvcurveto
            return
          </CharString>
          <CharString index="44">
            52 99 rmoveto
            17 13 82 28 2 3 0 -1 2 vhcurveto
            39 -17 rlineto
            -20 16 0 1 -15 vhcurveto
            2 -19 3 -24 -19 vvcurveto
            -29 -22 -60 -34 -41 -12 76 29 vhcurveto
            161 -82 rmoveto
            -13 -17 -2 -10 -4 -4 1 0 vhcurveto
            4 8 24 10 3 hhcurveto
            -475 3 rmoveto
            21 -9 rlineto
            7 10 187 callsubr
            1 -6 0 0 vhcurveto
            -6 -12 -6 -5 hhcurveto
            294 5 rmoveto
            3 3 0 -5 2 hvcurveto
            -31 -4 rlineto
            7 4 11 2 8 hhcurveto
            -320 21 91 callsubr
            280 -9 rmoveto
            31 hlineto
            -9 -5 -17 0 -9 hhcurveto
            return
          </CharString>
          <CharString index="45">
            -24 -24 rlineto
            -9 -9 1 3 -5 hvcurveto
            27 20 10 5 2 vvcurveto
            -3 -28 -4 -1 -4 vhcurveto
            4 7 5 7 6 6 rrcurveto
            -13 -19 -21 -7 -7 hvcurveto
            3 -4 rlineto
            -8 -28 -9 -14 -11 vhcurveto
            -3 5 5 -1 4 hhcurveto
            8 8 2 6 7 hvcurveto
            -18 vlineto
            -11 -24 -11 -8 -6 hvcurveto
            -4 2 -1 3 vhcurveto
            return
          </CharString>
          <CharString index="46">
            -31 -56 -8 -32 vvcurveto
            -4 4 -1 4 9 52 14 7 -1 vhcurveto
            3 -5 1 -1 -62 -63 -2 -6 rlinecurve
            -24 callgsubr
            8 9 25 9 hhcurveto
            89 callsubr
            hvcurveto
            9 9 14 15 5 hhcurveto
            1 2 -3 -2 hvcurveto
            1 7 5 5 6 1 rrcurveto
            -12 4 -12 -12 vvcurveto
            -4 3 -6 1 0 vvcurveto
            return
          </CharString>
          <CharString index="47">
            65 278 rmoveto
            -25 4 -39 40 callsubr
            -3 -3 vvcurveto
            -45 58 -94 53 -32 vhcurveto
            13 -8 17 -2 14 -5 25 -17 17 2 29 -6 rrcurveto
            -1 14 16 -6 16 hhcurveto
            69 63 19 40 55 hvcurveto
            5 14 22 28 8 vvcurveto
            4 1 4 3 1 vhcurveto
            20 52 rlineto
            -1 4 0 5 5 vvcurveto
            return
          </CharString>
          <CharString index="48">
            -3 -1 2 4 hvcurveto
            21 26 7 6 26 21 rrcurveto
            43 -5 rmoveto
            3 16 -1 -7 2 hvcurveto
            -21 -5 -6 -25 -20 -5 rrcurveto
            5 vlineto
            1 19 38 6 hhcurveto
            -171 39 rmoveto
            2 -2 1 -2 -2 vvcurveto
            -8 -15 -10 -3 -6 vhcurveto
            -90 -47 rlineto
            26 17 56 51 32 hhcurveto
            -61 -5 rmoveto
            12 29 16 11 14 hvcurveto
            -19 -108 -42 -4 vhcurveto
            -5 hlineto
            61 48 rmoveto
            -8 -13 -28 -11 -3 hhcurveto
            16 2 16 4 14 hhcurveto
            4 4 0 -1 4 hvcurveto
            65 13 rmoveto
            1 1 12 11 1 vvcurveto
            2 -8 2 -4 -5 -44 -14 -3 -8 vhcurveto
            4 vlineto
            40 20 46 10 25 43 rrcurveto
            return
          </CharString>
          <CharString index="49">
            4 -2 3 -4 vhcurveto
            -88 -88 -9 -88 hhcurveto
            -15 -6 2 19 hvcurveto
            -3 12 -3 0 13 vvcurveto
            27 5 35 3 27 vhcurveto
            -8 16 rlineto
            47 46 -5 48 hhcurveto
            29 14 0 5 33 hvcurveto
            12 6 0 29 14 vvcurveto
            11 vlineto
            15 -13 17 5 7 10 12 4 vvcurveto
            1 -6 5 -3 vhcurveto
            return
          </CharString>
          <CharString index="50">
            -11 callsubr
            0 2 hhcurveto
            5 5 5 4 2 hvcurveto
            2 6 -8 -4 hvcurveto
            8 13 -10 8 25 hhcurveto
            1 167 callsubr
            -10 -10 -42 -34 -7 hhcurveto
            -5 hlineto
            12 1 13 4 11 vhcurveto
            474 32 rmoveto
            -16 -11 -17 -16 -11 -17 rrcurveto
            24 8 36 36 4 vvcurveto
            11 return
          </CharString>
          <CharString index="51">
            107 37 rmoveto
            7 3 0 -4 8 hvcurveto
            -23 -14 -25 -13 -25 -7 6 18 36 12 13 8 rrcurveto
            72 -12 rmoveto
            -8 -7 -10 -10 vhcurveto
            -38 callgsubr
            9 3 8 8 10 hhcurveto
            return
          </CharString>
          <CharString index="52">
            32 vvcurveto
            hintmask 100000100011011101000000
            26 -2 38 -25 vhcurveto
            hintmask 010101001011011101000000
            -25 -25 -9 -25 hhcurveto
            71 -21 rmoveto
            -20 -62 -2 -13 -7 -1 5 7 vhcurveto
            hintmask 010101010111011101000000
            14 61 9 13 9 0 -6 -7 vhcurveto
            -53 -39 rmoveto
            5 -6 1 -7 vhcurveto
            -6 -6 -1 -5 hhcurveto
            12 15 46 0 9 hhcurveto
            -4 -7 -28 -5 -8 -5 rrcurveto
            61 -1 rmoveto
            -4 -12 -4 -6 vhcurveto
            hintmask 010110100011011101000000
            -1 -6 5 -1 -12 -24 -5 1 hhcurveto
            11 13 22 7 15 hhcurveto
            8 3 -3 -7 hvcurveto
            -30 -81 rmoveto
            -7 -6 6 -9 hhcurveto
            -3 -4 0 -1 -2 hvcurveto
            return
          </CharString>
          <CharString index="53">
            -1 -1 -1 -2 vvcurveto
            -31 51 -32 27 vhcurveto
            22 -22 41 -11 38 -2 rrcurveto
            19 vmoveto
            14 6 9 4 13 vvcurveto
            -3 8 rlineto
            -3 8 17 -15 7 hhcurveto
            3 68 52 7 hvcurveto
            -2 -7 -55 -36 -14 hhcurveto
            -1 -4 0 17 hvcurveto
            6 -8 14 5 17 12 4 15 rlinecurve
            return
          </CharString>
          <CharString index="54">
            1 49 34 5 6 hvcurveto
            1 4 3 1 hvcurveto
            -5 4 -116 -47 rlineto
            -4 hlineto
            16 27 52 -2 9 31 63 -5 58 -3 60 -5 rrcurveto
            2 9 -3 -1 2 hvcurveto
            -29 -90 -48 -78 -44 -82 -9 -16 -23 -58 -19 -4 rrcurveto
            -3 -10 6 3 hvcurveto
            34 69 119 callsubr
            -5 -2 -5 -2 -3 -4 -87 -48 rcurveline
            -11 -5 -19 -3 -11 hhcurveto
            14 11 22 3 8 vhcurveto
            11 5 97 15 14 hhcurveto
            80 190 rmoveto
            -4 -60 -34 -15 -10 vhcurveto
            -4 -2 -23 -25 -4 -3 rrcurveto
            -12 -11 -7 9 -13 vvcurveto
            return
          </CharString>
          <CharString index="55">
            8 8 21 4 3 hvcurveto
            6 -3 18 -48 -1 -4 24 -60 rcurveline
            -94 hlineto
            -24 -11 rlineto
            -76 callgsubr
            -4 -11 -31 -21 -9 vvcurveto
            0 1 -12 4 -6 vhcurveto
            return
          </CharString>
          <CharString index="56">
            12 1 -40 callgsubr
            9 14 7 20 64 hvcurveto
            13 12 89 34 13 hhcurveto
            -11 -11 rlineto
            -4 -20 -2 -8 -2 2 -4 2 hvcurveto
            22 3 28 12 14 9 rrcurveto
            -6 3 -2 14 0 vvcurveto
            8 12 0 4 vhcurveto
            -8 -3 0 -8 vvcurveto
            return
          </CharString>
          <CharString index="57">
            58 callsubr
            21 43 2 callsubr
            78 41 rmoveto
            0 3 -3 -1 vvcurveto
            118 callgsubr
            1 6 31 10 1 hhcurveto
            -61 2 rmoveto
            -60 callgsubr
            40 47 rmoveto
            6 17 40 12 1 hhcurveto
            0 callgsubr
            return
          </CharString>
          <CharString index="58">
            90 callsubr
            8 4 4 5 hhcurveto
            -4 4 4 0 9 9 4 5 9 hhcurveto
            -17 -19 -22 -12 -9 vhcurveto
            return
          </CharString>
          <CharString index="59">
            -197 123 hlineto
            2 3 7 1 9 8 9 -1 9 hhcurveto
            21 22 2 11 14 hvcurveto
            -7 53 46 -5 59 hhcurveto
            4 3 4 10 3 9 -9 -3 40 vvcurveto
            30 0 37 -11 5 vhcurveto
            5 -56 -29 0 -59 hhcurveto
            return
          </CharString>
          <CharString index="60">
            1 3 -4 callsubr
            return
          </CharString>
          <CharString index="61">
            10 -47 -11 vlineto
            -38 callsubr
            20 4 rlineto
            -14 -23 -15 -14 -9 0 -11 23 callsubr
            1 -4 29 callgsubr
            -3 -12 -13 -23 -11 hhcurveto
            6 vlineto
            -27 13 rlineto
            4 vlineto
            7 26 30 19 27 hhcurveto
            8 vlineto
            return
          </CharString>
          <CharString index="62">
            8 15 41 -3 21 vvcurveto
            11 -24 2 -3 6 vhcurveto
            1 7 17 3 11 hhcurveto
            -43 vlineto
            -5 -27 -12 23 callsubr
            -48 48 rmoveto
            -5 1 -1 8 4 vvcurveto
            6 hlineto
            40 -24 rmoveto
            -5 -12 -7 -5 vhcurveto
            hintmask 010110100011011101000000
            10 -6 4 5 vvcurveto
            1 3 3 2 vhcurveto
            3 -9 15 10 -12 vvcurveto
            -31 -55 rmoveto
            -17 hlineto
            8 10 rlineto
            31 hlineto
            -22 -30 rmoveto
            -7 -17 -7 -1 vhcurveto
            hintmask 011010100011011101000000
            6 3 16 9 vhcurveto
            return
          </CharString>
          <CharString index="63">
            4 29 47 26 hhcurveto
            3 4 -1 -2 3 hvcurveto
            -17 vlineto
            12 22 4 7 12 hvcurveto
            -8 -18 3 9 -12 -8 -11 -8 3 -1 -9 -12 rrcurveto
            return
          </CharString>
          <CharString index="64">
            101 hlineto
            -7 -3 -1 -11 -5 hhcurveto
            -68 5 -9 -9 rlineto
            -19 callgsubr
            0 2 12 6 -11 13 hhcurveto
            3 7 0 1 4 hvcurveto
            -10 -7 -60 -11 -38 -16 7 21 -4 26 32 5 rrcurveto
            -299 9 rmoveto
            8 6 -15 -7 1 hvcurveto
            -31 -9 rlineto
            3 -3 2 -3 vhcurveto
            -9 -12 -10 -11 -38 callgsubr
            18 10 20 16 20 9 rrcurveto
            -80 -5 rmoveto
            52 hlineto
            -39 -21 -6 4 -6 15 -1 2 rlinecurve
            return
          </CharString>
          <CharString index="65">
            18 24 21 9 13 18 19 20 rcurveline
            1 12 0 4 vhcurveto
            7 18 -6 7 hhcurveto
            1 1 0 1 1 hvcurveto
            4 -9 25 -74 -8 vvcurveto
            return
          </CharString>
          <CharString index="66">
            33 30 5 9 12 hhcurveto
            -26 vlineto
            -12 -17 -7 -9 -4 -12 0 3 -5 vhcurveto
            -16 39 rmoveto
            27 hlineto
            5 -3 rlineto
            -13 -13 -19 -23 0 vvcurveto
            150 -29 rmoveto
            -10 -6 -7 -10 vvcurveto
            22 19 5 22 return
          </CharString>
          <CharString index="67">
            15 12 16 13 vvcurveto
            218 callsubr
            28 75 42 44 4 3 rrcurveto
            19 34 38 5 38 hhcurveto
            67 86 -46 -69 hvcurveto
            -33 7 6 -36 -10 -5 -30 -27 vvcurveto
            -12 -15 2 -33 -6 -19 rrcurveto
            return
          </CharString>
          <CharString index="68">
            17 18 7 2 16 hvcurveto
            -4 -5 rlineto
            -1 -37 -12 -10 -3 vhcurveto
            63 44 rmoveto
            -4 vlineto
            7 5 25 3 9 vvcurveto
            4 0 6 -4 1 vhcurveto
            13 7 19 5 6 vvcurveto
            4 -4 -4 1 -5 hhcurveto
            return
          </CharString>
          <CharString index="69">
            -24 callgsubr
            hhcurveto
            return
          </CharString>
          <CharString index="70">
            31 122 rmoveto
            7 -40 8 -21 19 -37 13 -27 45 -3 23 -5 rrcurveto
            -6 26 26 -2 27 hhcurveto
            29 57 29 14 16 hvcurveto
            return
          </CharString>
          <CharString index="71">
            0 -3 -1 -2 -12 -14 2 3 -11 vhcurveto
            4 47 rmoveto
            12 -5 13 -5 13 -3 -4 -8 -25 -1 -18 -13 rrcurveto
            14 1 14 8 7 vhcurveto
            237 -7 rmoveto
            -7 vlineto
            -18 1 -17 -21 hhcurveto
            17 25 7 13 vhcurveto
            -9 -19 rmoveto
            1 4 -3 -1 hvcurveto
            -13 hlineto
            1 7 3 1 vhcurveto
            233 22 2 callsubr
            return
          </CharString>
          <CharString index="72">
            -30 -8 hlineto
            -28 26 rmoveto
            9 19 8 9 hvcurveto
            -4 -8 -12 -10 -9 hhcurveto
            -481 22 rmoveto
            -4 3 4 0 2 hhcurveto
            2 16 5 5 1 -11 1 0 -3 -11 -5 -3 -2 hvcurveto
            return
          </CharString>
          <CharString index="73">
            233 27 rmoveto
            -28 -34 8 -18 -6 vhcurveto
            11 6 31 15 15 hhcurveto
            -483 hmoveto
            -50 callgsubr
            281 12 rmoveto
            4 -12 rlineto
            -35 hlineto
            1 1 17 8 13 3 rrcurveto
            159 -4 rmoveto
            0 3 1 1 3 4 0 -6 2 vhcurveto
            -13 -3 rlineto
            return
          </CharString>
          <CharString index="74">
            6 -2 9 -6 3 vhcurveto
            -12 -21 -2 -8 -29 hhcurveto
            42 30 13 7 11 vvcurveto
            14 12 12 -3 22 vvcurveto
            -14 -22 -2 -10 -13 hvcurveto
            5 vlineto
            5 59 24 4 2 vhcurveto
            -28 vlineto
            return
          </CharString>
          <CharString index="75">
            -1 9 callgsubr
            return
          </CharString>
          <CharString index="76">
            37 callgsubr
            114 hlineto
            4 4 rlineto
            3 1 71 23 hvcurveto
            8 4 10 6 4 -16 9 -4 -23 -33 -6 -3 -23 hvcurveto
            3 callgsubr
            -130 hlineto
            -16 4 4 9 36 68 7 6 rlinecurve
            47 72 0 1 1 vvcurveto
            7 11 14 2 4 vhcurveto
            103 185 rlineto
            10 70 129 -3 vvcurveto
            7 -2 4 -7 vhcurveto
            -8 -1 -5 -5 return
          </CharString>
          <CharString index="77">
            -10 -7 -5 -10 hhcurveto
            -2 -6 1 0 hvcurveto
            4 2 59 19 25 hhcurveto
            -28 -27 rlineto
            8 -5 -6 0 -12 hhcurveto
            189 22 rmoveto
            5 2 36 6 7 1 rrcurveto
            8 hlineto
            return
          </CharString>
          <CharString index="78">
            9 -39 131 -117 -21 38 -21 22 -21 28 -21 25 -21 29 -21 88 175 -124 124 48 78 return
          </CharString>
          <CharString index="79">
            rmoveto
            -47 callsubr
            return
          </CharString>
          <CharString index="80">
            19 callsubr
            -1 return
          </CharString>
          <CharString index="81">
            -1 -1 vvcurveto
            return
          </CharString>
          <CharString index="82">
            60 46 8 54 24 18 -2 29 hhcurveto
            -10 2 -2 -2 vvcurveto
            -2 -2 -2 -6 -8 vhcurveto
            -15 -12 -34 -96 -9 hhcurveto
            -10 -40 -29 -40 -26 vvcurveto
            -3 -6 -5 -14 0 vvcurveto
            -5 hlineto
            -9 -5 -35 -3 hhcurveto
            -12 -15 -66 -9 -7 hvcurveto
            -9 -14 -28 -52 -5 -5 -9 -25 -15 -40 -28 -6 rrcurveto
            -1 183 callgsubr
            vvcurveto
            return
          </CharString>
          <CharString index="83">
            -20 21 -20 return
          </CharString>
          <CharString index="84">
            -68 -18 20 20 51 8 23 -3 28 23 52 -20 20 -20 27 -27 70 -15 31 -15 47 -27 27 -27 58 -14 26 13 26 0 88 -63 63 -47 47 return
          </CharString>
          <CharString index="85">
            -1 -1 1 -1 hhcurveto
            return
          </CharString>
          <CharString index="86">
            16 10 5 3 hhcurveto
            60 57 17 22 53 hvcurveto
            6 3 9 6 4 hhcurveto
            11 10 23 32 14 hhcurveto
            43 43 24 65 4 122 -24 118 rcurveline
            return
          </CharString>
          <CharString index="87">
            -35 47 rmoveto
            23 4 -17 -8 12 hvcurveto
            12 -9 13 6 14 -14 rrcurveto
            -1 -3 -1 -1 hhcurveto
            2 -68 20 -31 4 vhcurveto
            13 vlineto
            2 20 2 6 vhcurveto
            return
          </CharString>
          <CharString index="88">
            1 -32 callsubr
            return
          </CharString>
          <CharString index="89">
            2 5 77 28 1 14 3 -3 rcurveline
            -22 -24 -57 -28 -7 -20 -5 5 rcurveline
            -5 -15 -26 14 -15 vvcurveto
            -2 -2 4 -2 1 -38 -8 -9 hhcurveto
            return
          </CharString>
          <CharString index="90">
            -1 -23 callgsubr
            return
          </CharString>
          <CharString index="91">
            2 8 -65 callgsubr
            -4 -20 -7 -10 -2 vhcurveto
            -1 -19 callsubr
            7 18 3 3 vhcurveto
            -66 17 rmoveto
            81 hlineto
            -2 -12 -61 1 -36 -15 rrcurveto
            -49 hlineto
            11 54 8 13 7 vhcurveto
            -38 6 rmoveto
            1 6 -3 1 hhcurveto
            -61 -21 rlineto
            -5 hlineto
            16 8 35 8 15 hhcurveto
            158 return
          </CharString>
          <CharString index="92">
            hhcurveto
            96 22 65 81 10 hvcurveto
            2 21 7 22 20 vvcurveto
            11 -13 27 -13 7 vhcurveto
            2 2 3 2 4 12 -9 21 2 vvcurveto
            -52 52 rlineto
            return
          </CharString>
          <CharString index="93">
            9 9 1 4 3 hvcurveto
            48 hlineto
            4 5 rlineto
            48 4 4 13 vvcurveto
            40 -63 -39 -19 44 vhcurveto
            return
          </CharString>
          <CharString index="94">
            hintmask 1001100011010010011000000010010101101000
            return
          </CharString>
          <CharString index="95">
            -1 168 callgsubr
            return
          </CharString>
          <CharString index="96">
            -1 1 1 return
          </CharString>
          <CharString index="97">
            -7 -29 2 3 -21 hvcurveto
            -45 callgsubr
            return
          </CharString>
          <CharString index="98">
            245 -13 rmoveto
            -5 27 15 0 25 hhcurveto
            55 38 6 46 46 hvcurveto
            -4 3 -2 36 rlineto
            6 1 10 9 vvcurveto
            16 -3 15 -16 vhcurveto
            return
          </CharString>
          <CharString index="99">
            14 callgsubr
            hvcurveto
            return
          </CharString>
          <CharString index="100">
            -3 2 1 -11 callsubr
            1 1 2 hhcurveto
            8 vlineto
            7 -2 6 -5 -7 vvcurveto
            -3 -13 -24 -5 -14 hhcurveto
            2 18 12 12 3 vhcurveto
            -104 9 rmoveto
            6 1 10 1 5 hhcurveto
            5 3 -3 -4 2 hvcurveto
            -2 -2 -12 -7 -3 hhcurveto
            -2 -7 7 2 hvcurveto
            endchar
          </CharString>
          <CharString index="101">
            -7 8 -19 -5 15 vvcurveto
            -61 -54 -22 -30 -48 hvcurveto
            -27 -33 0 -44 -40 vvcurveto
            -15 vlineto
            -4 1 -23 -5 vvcurveto
            137 -125 rmoveto
            return
          </CharString>
          <CharString index="102">
            48 -9 rlineto
            -2 -19 -33 -7 -18 hhcurveto
            13 15 19 26 -1 -1 rrcurveto
            return
          </CharString>
          <CharString index="103">
            0 0 hvcurveto
            return
          </CharString>
          <CharString index="104">
            8 -6 1 -10 -9 vvcurveto
            -28 -1 -21 -25 -17 vhcurveto
            -3 19 -11 11 -3 vhcurveto
            -6 -25 -55 -12 -25 hhcurveto
            22 36 -13 1 15 vhcurveto
            4 88 rmoveto
            8 20 1 11 4 3 0 0 -2 -23 -10 -11 -5 vhcurveto
            -2 -2 6 2 hvcurveto
            -121 73 rmoveto
            return
          </CharString>
          <CharString index="105">
            13 19 10 13 96 callgsubr
            38 22 rlineto
            5 hlineto
            -6 -6 -11 -8 -7 vvcurveto
            return
          </CharString>
          <CharString index="106">
            -2 -2 -2 40 callsubr
            2 2 return
          </CharString>
          <CharString index="107">
            7 39 13 2 39 hhcurveto
            -14 -17 -42 -5 -32 hhcurveto
            -8 -8 0 1 -6 hvcurveto
            -7 -13 -29 -6 -15 -2 rrcurveto
            -3 2 -2 12 3 vvcurveto
            35 28 rmoveto
            -6 vlineto
            -1 -27 -8 -4 vhcurveto
            12 8 4 11 3 5 0 -1 4 vhcurveto
            90 6 rmoveto
            return
          </CharString>
          <CharString index="108">
            2 -19 callgsubr
            vvcurveto
            -5 -36 -18 -5 -6 6 -3 5 hvcurveto
            -6 -12 -10 -3 -2 vhcurveto
            36 vlineto
            5 19 8 5 7 vhcurveto
            return
          </CharString>
          <CharString index="109">
            rmoveto
            3 -1 20 -5 -5 vvcurveto
            225 callsubr
            vhcurveto
            -31 -12 rlineto
            return
          </CharString>
          <CharString index="110">
            3 1 vvcurveto
            return
          </CharString>
          <CharString index="111">
            -1 -3 0 -3 -2 vvcurveto
            -20 13 -23 8 -16 vhcurveto
            -10 -4 -80 -19 -9 hhcurveto
            11 16 -2 2 12 229 callgsubr
            return
          </CharString>
          <CharString index="112">
            -13 vlineto
            -31 -4 -68 -20 -2 vvcurveto
            8 callsubr
            -1 hhcurveto
            14 14 13 -6 12 9 rrcurveto
            8 12 4 17 23 hhcurveto
            return
          </CharString>
          <CharString index="113">
            -12 -15 -31 -11 -22 vvcurveto
            -4 0 -2 4 -2 vhcurveto
            -4 -3 -6 -1 -6 hhcurveto
            return
          </CharString>
          <CharString index="114">
            -1 100 callgsubr
            return
          </CharString>
          <CharString index="115">
            -1 -3 1 return
          </CharString>
          <CharString index="116">
            -23 -72 10 -30 hhcurveto
            -19 -19 0 5 -15 hvcurveto
            47 52 29 69 36 60 34 82 rcurveline
            3 11 19 3 8 vhcurveto
            7 3 32 64 4 hhcurveto
            -1 -5 8 -4 vhcurveto
            -1 -8 -7 0 -8 hhcurveto
            -46 -45 9 4 -46 hvcurveto
            return
          </CharString>
          <CharString index="117">
            9 rmoveto
            2 1 -2 -3 -2 -1 -2 40 callsubr
            2 2 -8 callsubr
            return
          </CharString>
          <CharString index="118">
            16 -9 -14 26 hhcurveto
            3 12 1 10 10 20 -4 18 25 2 5 14 1 9 -35 -3 14 vvcurveto
            7 10 0 3 3 vhcurveto
            5 6 12 70 9 vvcurveto
            11 -7 4 -10 -15 -11 -11 -11 -8 vhcurveto
            hintmask 0110000111111100
            return
          </CharString>
          <CharString index="119">
            -37 -28 -32 -38 hhcurveto
            5 vlineto
            11 9 3 14 hvcurveto
            -6 -4 -32 -9 -1 -11 -48 -10 -57 -3 -34 -39 rrcurveto
            return
          </CharString>
          <CharString index="120">
            11 3 13 10 4 11 rrcurveto
            -24 vlineto
            -18 -5 4 -13 -21 -2 rrcurveto
            -7 vlineto
            0 4 -1 0 vhcurveto
            24 12 return
          </CharString>
          <CharString index="121">
            3 -28 10 -7 vhcurveto
            -112 hlineto
            -9 -9 -5 -10 hvcurveto
            -14 -25 -28 -84 -19 vvcurveto
            -57 -124 rlineto
            -5 -1 -5 -4 -5 hhcurveto
            0 -1 0 -39 91 vhcurveto
            19 -32 50 -11 16 vhcurveto
            -15 21 -20 44 0 vvcurveto
            return
          </CharString>
          <CharString index="122">
            -3 -7 -10 -1 -4 -1 rrcurveto
            4 -1 7 -3 -5 vvcurveto
            -16 -18 2 2 -15 hvcurveto
            -151 23 rmoveto
            7 2 -8 -7 hvcurveto
            -8 1 6 -3 -6 3 -6 -23 -2 -12 -11 callgsubr
            8 13 16 6 15 hhcurveto
            return
          </CharString>
          <CharString index="123">
            -2 1 -2 2 -2 vhcurveto
            9 hlineto
            6 45 27 3 5 hvcurveto
            -38 -39 rlineto
            return
          </CharString>
          <CharString index="124">
            hintmask 100000101010001000000000010000010101111110100000
            return
          </CharString>
          <CharString index="125">
            hintmask 100010110010010000000000000001011011011001000000
            return
          </CharString>
          <CharString index="126">
            -1 -2 1 return
          </CharString>
          <CharString index="127">
            -21 -18 4 -20 hhcurveto
            -7 -8 -2 -8 hvcurveto
            47 -63 47 -138 31 -43 8 -23 39 -106 9 -22 rrcurveto
            8 -21 15 -15 -23 vvcurveto
            -26 -63 -19 -40 -11 -27 -6 -15 rcurveline
            -23 -57 2 10 -30 -90 rrcurveto
            return
          </CharString>
          <CharString index="128">
            -29 -49 -50 -28 hhcurveto
            -18 14 15 4 -12 hvcurveto
            8 28 rlineto
            -1 3 3 0 2 13 9 5 13 hhcurveto
            return
          </CharString>
          <CharString index="129">
            -1 -2 -34 -11 -42 hhcurveto
            13 10 12 27 1 1 rrcurveto
            return
          </CharString>
          <CharString index="130">
            1 -1 vhcurveto
            return
          </CharString>
          <CharString index="131">
            -4 8 -23 6 -9 1 12 8 1 -8 8 17 rrcurveto
            -3 4 -2 1 vhcurveto
            11 45 46 17 hhcurveto
            return
          </CharString>
          <CharString index="132">
            0 20 12 7 vvcurveto
            0 0 1 4 -5 vhcurveto
            10 4 50 8 18 vvcurveto
            1 -1 -1 0 -2 hhcurveto
            return
          </CharString>
          <CharString index="133">
            -7 43 -19 27 33 22 10 19 23 vvcurveto
            51 -25 87 -34 42 vhcurveto
            return
          </CharString>
          <CharString index="134">
            -1 0 -1 return
          </CharString>
          <CharString index="135">
            -3 1 vhcurveto
            return
          </CharString>
          <CharString index="136">
            -12 hlineto
            9 11 10 -2 5 14 rrcurveto
            -6 -10 -3 -2 -11 hhcurveto
            3 4 17 17 4 3 rrcurveto
            return
          </CharString>
          <CharString index="137">
            7 10 17 7 7 -4 -9 17 hhcurveto
            5 5 0 1 2 hvcurveto
            -4 -5 -75 -31 rlineto
            -8 hlineto
            return
          </CharString>
          <CharString index="138">
            rmoveto
            1 38 -4 19 hhcurveto
            -4 -4 -49 -10 -9 hhcurveto
            return
          </CharString>
          <CharString index="139">
            hintmask 101001001100001010100101000001100100000100000000
            return
          </CharString>
          <CharString index="140">
            1 -2 -1 vvcurveto
            return
          </CharString>
          <CharString index="141">
            rmoveto
            2 -8 8 -7 6 -1 rrcurveto
            9 50 8 12 hhcurveto
            4 8 rlineto
            118 vlineto
            3 10 1 6 7 6 -1 8 16 35 1 49 13 21 -11 75 33 vvcurveto
            16 -66 13 -15 return
          </CharString>
          <CharString index="142">
            rmoveto
            -14 -10 -21 -9 hvcurveto
            -61 vlineto
            -55 168 12 20 -27 vhcurveto
            return
          </CharString>
          <CharString index="143">
            0 -3 0 -1 vhcurveto
            return
          </CharString>
          <CharString index="144">
            -9 -9 rlineto
            -38 hlineto
            -5 0 13 10 hvcurveto
            134 50 rmoveto
            -9 5 rlineto
            3 3 4 1 4 9 11 -4 8 hhcurveto
            -26 -12 -24 -20 -27 -7 rrcurveto
            2 35 25 12 7 vhcurveto
            return
          </CharString>
          <CharString index="145">
            -5 -1 4 -4 -24 -58 -56 -10 hhcurveto
            0 -1 1 36 35 vhcurveto
            -40 24 rmoveto
            24 -4 hlineto
            return
          </CharString>
          <CharString index="146">
            39 32 -4 42 hhcurveto
            37 48 3 33 hvcurveto
            -4 11 rlineto
            64 vlineto
            1 2 0 1 2 vvcurveto
            return
          </CharString>
          <CharString index="147">
            -2 -2 -1 return
          </CharString>
          <CharString index="148">
            -2 129 callgsubr
            14 19 28 12 18 16 rrcurveto
            -125 -39 rmoveto
            19 10 85 41 17 hhcurveto
            -22 -13 -34 -29 -8 -26 -15 1 -18 3 -15 4 rrcurveto
            194 43 rmoveto
            return
          </CharString>
          <CharString index="149">
            -9 -13 rlineto
            -52 hlineto
            8 -12 25 0 10 -1 -19 -15 -42 14 -17 -16 -3 -5 rcurveline
            return
          </CharString>
          <CharString index="150">
            rmoveto
            9 19 2 4 vhcurveto
            -4 17 vlineto
            -8 -6 -16 -6 -9 hhcurveto
            -3 -6 2 5 hvcurveto
            return
          </CharString>
          <CharString index="151">
            -2 7 12 -4 3 hhcurveto
            20 7 72 15 7 hvcurveto
            108 236 6 44 22 30 19 43 rlinecurve
            28 62 8 47 55 101 rrcurveto
            15 33 24 41 39 vvcurveto
            return
          </CharString>
          <CharString index="152">
            4 -65 callgsubr
            return
          </CharString>
          <CharString index="153">
            -125 12 rmoveto
            -31 -18 -17 -13 -33 -24 rrcurveto
            55 13 13 0 55 hhcurveto
            51 hmoveto
            -27 -9 -17 -31 -29 -11 rrcurveto
            8 4 28 43 8 hhcurveto
            69 1 rmoveto
            return
          </CharString>
          <CharString index="154">
            -46 -4 rmoveto
            -11 -6 -25 -21 -15 hhcurveto
            16 24 3 22 13 vhcurveto
            -199 68 rmoveto
            return
          </CharString>
          <CharString index="155">
            -5 vlineto
            28 22 -13 -8 6 hvcurveto
            -5 -4 rlineto
            return
          </CharString>
          <CharString index="156">
            -94 -93 8 -94 -47 -46 -5 -48 -7 -7 5 -6 hhcurveto
            -3 -3 -2 -4 -2 hvcurveto
            -4 -13 rlineto
            -7 -7 -8 -60 -6 vvcurveto
            -8 1 -21 10 -5 vhcurveto
            return
          </CharString>
          <CharString index="157">
            -4 -5 -19 -19 -5 -4 -12 -11 -33 -13 -2 -15 -4 4 rcurveline
            -8 -8 rlineto
            return
          </CharString>
          <CharString index="158">
            8 -8 -10 -18 -29 1 -12 -19 rlinecurve
            15 10 21 16 -41 callgsubr
            return
          </CharString>
          <CharString index="159">
            3 -2 0 5 -4 hhcurveto
            -21 -10 -39 -8 -34 hvcurveto
            -6 -9 5 -2 -8 hhcurveto
            return
          </CharString>
          <CharString index="160">
            73 callgsubr
            -14 -28 -10 -8 -11 hvcurveto
            4 9 return
          </CharString>
          <CharString index="161">
            -284 -27 25 0 -21 37 -21 493 -20 24 -24 callsubr
            31 -20 return
          </CharString>
          <CharString index="162">
            67 39 rmoveto
            -12 1 -35 18 vhcurveto
            25 29 9 27 24 23 -9 19 hhcurveto
            return
          </CharString>
          <CharString index="163">
            -3 -3 -5 -3 -22 6 -21 -23 -56 2 -32 -53 -5 -2 -15 -4 vvcurveto
            return
          </CharString>
          <CharString index="164">
            rmoveto
            -86 -21 rlineto
            7 3 6 14 4 hhcurveto
            return
          </CharString>
          <CharString index="165">
            0 -2 -1 -1 -16 -28 7 15 -8 vhcurveto
            return
          </CharString>
          <CharString index="166">
            -5 228 callgsubr
            -439 65 rmoveto
            -13 -40 -17 -7 -5 vhcurveto
            2 -1 6 1 vvcurveto
            3 0 13 4 1 vhcurveto
            273 -17 rmoveto
            return
          </CharString>
          <CharString index="167">
            -13 206 -181 -21 250 242 -23 23 return
          </CharString>
          <CharString index="168">
            2 41 rmoveto
            17 18 5 17 hhcurveto
            -5 -10 -26 -10 -16 hhcurveto
            73 51 rmoveto
            -9 -22 -26 -15 -25 hhcurveto
            24 5 51 8 23 hhcurveto
            return
          </CharString>
          <CharString index="169">
            -1 -1 -16 -8 -4 vvcurveto
            8 1 8 5 1 7 rrcurveto
            -39 2 rmoveto
            return
          </CharString>
          <CharString index="170">
            -11 -33 -99 -21 vhcurveto
            -15 -18 -20 -12 hhcurveto
            1 2 7 29 callgsubr
            return
          </CharString>
          <CharString index="171">
            2 4 8 5 0 vvcurveto
            5 1 -17 -5 -13 -59 -11 -16 -10 hvcurveto
            return
          </CharString>
          <CharString index="172">
            -20 -13 25 -12 122 -60 60 -27 27 67 25 -25 68 -68 197 8 141 -74 -20 60 -20 44 110 return
          </CharString>
          <CharString index="173">
            -11 -7 -12 -9 hhcurveto
            -2 -17 13 1 hvcurveto
            5 12 17 3 vvcurveto
            return
          </CharString>
          <CharString index="174">
            1 5 -40 callgsubr
            -15 -17 10 -13 vvcurveto
            0 1 -5 0 vhcurveto
            return
          </CharString>
          <CharString index="175">
            8 2 -9 17 19 7 43 17 53 27 46 12 -13 -17 rcurveline
            return
          </CharString>
          <CharString index="176">
            -9 -10 5 -4 -11 5 -27 -14 hhcurveto
            return
          </CharString>
          <CharString index="177">
            hintmask 1000110010001000001101010001000101000000
            return
          </CharString>
          <CharString index="178">
            hintmask 11000110100101001001100001100000
            return
          </CharString>
          <CharString index="179">
            1 120 callsubr
            return
          </CharString>
          <CharString index="180">
            -1 1 2 0 2 return
          </CharString>
          <CharString index="181">
            -4 -39 -2 -5 vhcurveto
            13 30 17 9 6 vhcurveto
            -55 34 rmoveto
            4 7 -2 -3 6 hvcurveto
            -10 -14 -48 -44 -5 hhcurveto
            return
          </CharString>
          <CharString index="182">
            52 -6 rmoveto
            15 19 10 14 24 4 -28 -17 -18 -8 -3 -10 -2 -41 8 33 vhcurveto
            105 -21 rmoveto
            -4 -9 rlineto
            return
          </CharString>
          <CharString index="183">
            73 18 rmoveto
            3 -5 2 -4 -5 vvcurveto
            -6 -9 -13 -11 -4 hhcurveto
            5 6 9 19 7 6 rrcurveto
            -107 -14 rmoveto
            return
          </CharString>
          <CharString index="184">
            -62 -19 25 -25 60 -60 103 -83 -21 26 -21 81 141 -119 197 -64 64 -64 84 -14 112 return
          </CharString>
          <CharString index="185">
            52 21 -4 50 hhcurveto
            8 3 11 6 21 -3 91 -10 hvcurveto
            return
          </CharString>
          <CharString index="186">
            hintmask 10000111011000000010010100000000
            return
          </CharString>
          <CharString index="187">
            13 6 14 14 hhcurveto
            -4 -2 -4 -3 vvcurveto
            return
          </CharString>
          <CharString index="188">
            hintmask 1010000100010000001010110101001000000000
            return
          </CharString>
          <CharString index="189">
            -22 22 14 3 -11 vhcurveto
            -7 -17 -38 -11 -21 hhcurveto
            -5 -1 10 3 -4 hvcurveto
            20 4 36 1 17 return
          </CharString>
          <CharString index="190">
            -20 -2 -36 -41 -32 -4 16 18 32 17 16 16 rrcurveto
            return
          </CharString>
          <CharString index="191">
            2 hvcurveto
            -3 -11 -3 -1 -3 hvcurveto
            -16 -3 6 -9 -20 return
          </CharString>
          <CharString index="192">
            -20 hstemhm
            68 21 -21 126 -106 94 -76 76 -38 38 return
          </CharString>
          <CharString index="193">
            hintmask 110011000101000010101010010100000110000100000000
            return
          </CharString>
          <CharString index="194">
            2 5 -4 -1 1 hvcurveto
            52 hlineto
            return
          </CharString>
          <CharString index="195">
            -1 -4 1 -1 hhcurveto
            return
          </CharString>
          <CharString index="196">
            1 1 0 -1 1 return
          </CharString>
          <CharString index="197">
            -4 5 0 4 vhcurveto
            return
          </CharString>
          <CharString index="198">
            rmoveto
            7 32 -3 -6 -5 -42 -3 -8 hvcurveto
            48 callgsubr
            return
          </CharString>
          <CharString index="199">
            31 callgsubr
            33 56 rmoveto
            1 89 callgsubr
            return
          </CharString>
          <CharString index="200">
            -80 -26 -74 -19 -71 hhcurveto
            -29 -84 17 35 -14 hvcurveto
            return
          </CharString>
          <CharString index="201">
            -2 -1 2 2 125 callsubr
            return
          </CharString>
          <CharString index="202">
            hintmask 10000001101010100000000011001110
            return
          </CharString>
          <CharString index="203">
            1 5 -7 callgsubr
            return
          </CharString>
          <CharString index="204">
            -25 -30 -76 -30 -22 -4 36 11 -4 vhcurveto
            -3 9 -10 4 12 vvcurveto
            362 -43 rmoveto
            return
          </CharString>
          <CharString index="205">
            111 callsubr
            22 callsubr
            return
          </CharString>
          <CharString index="206">
            1 -3 0 vhcurveto
            return
          </CharString>
          <CharString index="207">
            3 8 11 7 7 hhcurveto
            -245 8 rmoveto
            7 13 33 0 11 8 -9 -25 rcurveline
            return
          </CharString>
          <CharString index="208">
            2 6 12 10 8 1 -8 -11 -8 -5 -2 -13 rrcurveto
            -2 1 -2 7 4 vvcurveto
            return
          </CharString>
          <CharString index="209">
            37 callgsubr
            1 3 7 9 5 vvcurveto
            -9 25 -4 34 26 4 1 4 3 vvcurveto
            return
          </CharString>
          <CharString index="210">
            -7 -17 -23 rlinecurve
            2 -1 7 2 vvcurveto
            4 2 17 7 1 149 callsubr
            return
          </CharString>
          <CharString index="211">
            -12 -40 -13 -7 hhcurveto
            -2 -6 3 1 -1 hvcurveto
            return
          </CharString>
          <CharString index="212">
            -20 22 -20 24 -20 23 -20 24 -24 callsubr
            return
          </CharString>
          <CharString index="213">
            2 -3 23 callsubr
            -5 -5 -16 -4 0 vvcurveto
            return
          </CharString>
          <CharString index="214">
            hintmask 101001001100001010100100000101100100000100000000
            return
          </CharString>
          <CharString index="215">
            hintmask 101001001100001010100100010001100100000100000000
            return
          </CharString>
          <CharString index="216">
            hintmask 100000101010000000010000010000010101111110100000
            return
          </CharString>
          <CharString index="217">
            hintmask 100100100101101000000100000001101110110010000000
            return
          </CharString>
          <CharString index="218">
            17 -10 29 -8 6 -8 rrcurveto
            return
          </CharString>
          <CharString index="219">
            -4 1 -3 5 vhcurveto
            -75 vlineto
            return
          </CharString>
          <CharString index="220">
            -2 -2 -25 callgsubr
            return
          </CharString>
          <CharString index="221">
            184 callgsubr
            vhcurveto
            return
          </CharString>
          <CharString index="222">
            -54 -3 -1 -7 -7 vvcurveto
            -12 2 -14 8 -2 vhcurveto
            13 37 rmoveto
            20 25 78 return
          </CharString>
          <CharString index="223">
            hintmask 10000000011010100001000000000101000000010001010100000000
            return
          </CharString>
          <CharString index="224">
            hintmask 10000000011010100001000000010001000000010001010100000000
            return
          </CharString>
          <CharString index="225">
            hintmask 1010001010010000000010001011011001001000
            return
          </CharString>
          <CharString index="226">
            rmoveto
            182 callgsubr
            hvcurveto
            return
          </CharString>
          <CharString index="227">
            6 -65 callgsubr
            return
          </CharString>
          <CharString index="228">
            3 1 1 vhcurveto
            return
          </CharString>
          <CharString index="229">
            2 1 19 3 10 vhcurveto
            -402 16 rmoveto
            return
          </CharString>
          <CharString index="230">
            hintmask 10010010100011001101010010100000
            return
          </CharString>
          <CharString index="231">
            hintmask 10100111001000011010100001000000
            return
          </CharString>
          <CharString index="232">
            2 -19 callgsubr
            hvcurveto
            return
          </CharString>
          <CharString index="233">
            0 168 callgsubr
            return
          </CharString>
          <CharString index="234">
            3 -35 callgsubr
            return
          </CharString>
          <CharString index="235">
            1 -3 3 -1 return
          </CharString>
          <CharString index="236">
            -2 38 9 14 hhcurveto
            0 -61 -39 -9 vvcurveto
            -2 1 6 -6 2 hhcurveto
            return
          </CharString>
          <CharString index="237">
            rmoveto
            19 6 98 4 11 24 -5 20 26 vvcurveto
            18 13 2 15 vhcurveto
            return
          </CharString>
          <CharString index="238">
            5 -4 -3 -8 -13 3 -9 -4 rlinecurve
            -5 9 -5 -4 -5 8 rrcurveto
            return
          </CharString>
          <CharString index="239">
            2 0 2 2 return
          </CharString>
          <CharString index="240">
            38 65 29 -14 -20 25 -24 callsubr
            25 -20 41 -20 hstemhm
            43 return
          </CharString>
          <CharString index="241">
            3 12 -1 3 hhcurveto
            -15 -41 -21 -14 hvcurveto
            8 hlineto
            77 26 rlineto
            return
          </CharString>
          <CharString index="242">
            4 1 3 4 4 hhcurveto
            11 8 rlineto
            return
          </CharString>
          <CharString index="243">
            hintmask 100000101010000000010000010000010101011110100100
            return
          </CharString>
          <CharString index="244">
            hintmask 000100101010001000000000010000010101111110100000
            return
          </CharString>
          <CharString index="245">
            hintmask 100000101010000000100000010000010101111110100000
            return
          </CharString>
          <CharString index="246">
            hintmask 100100100101100100000000000001101110110010000000
            return
          </CharString>
          <CharString index="247">
            hintmask 000100101010001000000000010000010101011110100100
            return
          </CharString>
          <CharString index="248">
            hintmask 100000101010000010000010010000010101111110100000
            return
          </CharString>
          <CharString index="249">
            hintmask 1100011000100110101000000000000011100001
            return
          </CharString>
          <CharString index="250">
            hintmask 1000100100100000000000100001101010111000
            return
          </CharString>
          <CharString index="251">
            hintmask 10001100100010000011011001100100
            return
          </CharString>
          <CharString index="252">
            hintmask 10000000000101000011100100011000
            return
          </CharString>
          <CharString index="253">
            -4 4 11 -2 7 hhcurveto
            return
          </CharString>
          <CharString index="254">
            89 callsubr
            vhcurveto
            return
          </CharString>
          <CharString index="255">
            -2 -2 -4 callsubr
            return
          </CharString>
          <CharString index="256">
            2 0 -35 callgsubr
            return
          </CharString>
          <CharString index="257">
            6 121 callsubr
            return
          </CharString>
          <CharString index="258">
            hintmask 100101010100100010011000
            return
          </CharString>
          <CharString index="259">
            -1 -4 5 hvcurveto
            return
          </CharString>
          <CharString index="260">
            -1 -26 0 -25 -34 hhcurveto
            9 15 36 12 15 21 rrcurveto
            return
          </CharString>
          <CharString index="261">
            -303 547 -21 161 -20 hstem
            21 225 vstem
            return
          </CharString>
          <CharString index="262">
            9 4 -4 9 hhcurveto
            -27 -69 -3 -1 vhcurveto
            82 17 rmoveto
            return
          </CharString>
          <CharString index="263">
            rmoveto
            18 callgsubr
            return
          </CharString>
          <CharString index="264">
            hintmask 00100000001010100001000100000000000000010001010100000000
            return
          </CharString>
          <CharString index="265">
            -30 20 rmoveto
            -6 -15 -1 -7 hvcurveto
            return
          </CharString>
          <CharString index="266">
            -4 vlineto
            8 22 15 8 6 hvcurveto
            return
          </CharString>
          <CharString index="267">
            16 vmoveto
            1 27 callsubr
            -2 vvcurveto
            return
          </CharString>
          <CharString index="268">
            hintmask 10110001000000000001101110000000
            return
          </CharString>
          <CharString index="269">
            hintmask 10001010001010000101001010000000
            return
          </CharString>
          <CharString index="270">
            hintmask 10000111011000000000101001000000
            return
          </CharString>
          <CharString index="271">
            -20 22 -24 callsubr
            return
          </CharString>
          <CharString index="272">
            0 -2 1 -2 vhcurveto
            return
          </CharString>
          <CharString index="273">
            -1 1 6 -3 1 return
          </CharString>
          <CharString index="274">
            5 223 callsubr
            return
          </CharString>
          <CharString index="275">
            5 -2 5 -4 4 -2 rrcurveto
            16 vlineto
            57 39 rlineto
            return
          </CharString>
          <CharString index="276">
            3 -76 callgsubr
            -1 -2 -2 -2 -2 vhcurveto
            return
          </CharString>
          <CharString index="277">
            rmoveto
            4 3 22 2 4 vhcurveto
            -5 1 4 0 4 return
          </CharString>
          <CharString index="278">
            132 callsubr
            vhcurveto
            12 vmoveto
            2 1 -2 -2 hvcurveto
            return
          </CharString>
          <CharString index="279">
            231 -191 191 -103 103 -26 26 -9 30 return
          </CharString>
          <CharString index="280">
            6 8 -6 -3 10 hvcurveto
            138 hlineto
            19 -102 rmoveto
            return
          </CharString>
          <CharString index="281">
            hintmask 1001010011010010011000000010010101101000
            return
          </CharString>
          <CharString index="282">
            hintmask 1000000010000010000000000100101010001000
            return
          </CharString>
          <CharString index="283">
            hintmask 1010100001000000010001011010001100100000
            return
          </CharString>
          <CharString index="284">
            hintmask 1000010100001010001010100101000001000110
            return
          </CharString>
          <CharString index="285">
            hintmask 1100011000100110100100101000000011100001
            return
          </CharString>
          <CharString index="286">
            22 18 -33 -6 23 hvcurveto
            return
          </CharString>
          <CharString index="287">
            hhcurveto
            1 182 callsubr
            return
          </CharString>
          <CharString index="288">
            -24 callsubr
            26 -20 hstemhm
            return
          </CharString>
          <CharString index="289">
            3 -3 -1 hvcurveto
            return
          </CharString>
          <CharString index="290">
            27 callgsubr
            3 return
          </CharString>
          <CharString index="291">
            1 -5 -1 vvcurveto
            return
          </CharString>
          <CharString index="292">
            0 -3 -3 vvcurveto
            return
          </CharString>
          <CharString index="293">
            -1 -2 -1 -1 return
          </CharString>
          <CharString index="294">
            1 3 callsubr
            return
          </CharString>
          <CharString index="295">
            150 -13 rmoveto
            67 143 3 14 4 hvcurveto
            return
          </CharString>
          <CharString index="296">
            hintmask 100000101010000000100000001000010101111010000000
            return
          </CharString>
          <CharString index="297">
            hintmask 100100100101101000000000001010101110110010000000
            return
          </CharString>
          <CharString index="298">
            hintmask 101001001100001010100101000001100001000000000000
            return
          </CharString>
          <CharString index="299">
            vvcurveto
            95 callgsubr
            return
          </CharString>
          <CharString index="300">
            hintmask 100010110010000100000001100001011011011001000000
            return
          </CharString>
          <CharString index="301">
            hintmask 110011000101000010101010010000100110000100000000
            return
          </CharString>
          <CharString index="302">
            hintmask 100010110010000001000001100001011011011001000000
            return
          </CharString>
          <CharString index="303">
            hintmask 100010110000101000000001100001011011011001000000
            return
          </CharString>
          <CharString index="304">
            hintmask 101001001100001010100101000001100000010000000000
            return
          </CharString>
          <CharString index="305">
            hintmask 100000101010000100000000010000010101111110100000
            return
          </CharString>
          <CharString index="306">
            hintmask 100000101010000001000000110000010101111110100000
            return
          </CharString>
          <CharString index="307">
            hintmask 100000101010000001000000110000010101011110100100
            return
          </CharString>
          <CharString index="308">
            hintmask 001001101010001000000000010000010101111010000000
            return
          </CharString>
          <CharString index="309">
            hintmask 110011000101000010101010001000001110000100000000
            return
          </CharString>
          <CharString index="310">
            hintmask 100000101010000000100000010000010101011110100100
            return
          </CharString>
          <CharString index="311">
            -3 -6 -57 -17 -10 -12 rrcurveto
            return
          </CharString>
          <CharString index="312">
            53 -53 74 16 47 -47 70 return
          </CharString>
          <CharString index="313">
            -24 callsubr
            35 -20 36 -20 return
          </CharString>
          <CharString index="314">
            vvcurveto
            -3 1 -2 3 -1 vhcurveto
            return
          </CharString>
          <CharString index="315">
            hintmask 10010010000000100011000101001000
            return
          </CharString>
          <CharString index="316">
            hintmask 10101001000001100000011011000000
            return
          </CharString>
          <CharString index="317">
            hintmask 01000111010010000001001010000000
            return
          </CharString>
          <CharString index="318">
            hintmask 10100100110001000100000001101010
            return
          </CharString>
          <CharString index="319">
            hintmask 10101110010011011000100101110000
            return
          </CharString>
          <CharString index="320">
            hintmask 10010010100001000000110100110100
            return
          </CharString>
          <CharString index="321">
            hhcurveto
            -1 -11 callsubr
            return
          </CharString>
          <CharString index="322">
            -21 -4 1 -10 hhcurveto
            return
          </CharString>
          <CharString index="323">
            -2 1 3 -1 hvcurveto
            return
          </CharString>
          <CharString index="324">
            -1 -6 1 -1 hhcurveto
            return
          </CharString>
          <CharString index="325">
            128 callsubr
            vhcurveto
            return
          </CharString>
          <CharString index="326">
            -1 1 5 -3 2 return
          </CharString>
          <CharString index="327">
            19 0 69 20 hvcurveto
            return
          </CharString>
          <CharString index="328">
            0 -2 1 -1 return
          </CharString>
          <CharString index="329">
            -2 hhcurveto
            -2 -1 return
          </CharString>
          <CharString index="330">
            -3 -1 1 hvcurveto
            return
          </CharString>
          <CharString index="331">
            -5 -6 -5 -1 return
          </CharString>
          <CharString index="332">
            -1 -1 -2 0 return
          </CharString>
          <CharString index="333">
            rmoveto
            2 1 -2 -2 hvcurveto
            hintmask 100110000100001101011010
            return
          </CharString>
          <CharString index="334">
            33 -4 27 -14 vhcurveto
            -16 -16 -3 -17 hhcurveto
            return
          </CharString>
          <CharString index="335">
            -2 0 -2 -2 return
          </CharString>
          <CharString index="336">
            rmoveto
            4 5 3 return
          </CharString>
        <CharString name=".notdef">
          -346 151 callgsubr
          21 34 -34 165 hintmask 10001010
          21 -73 callsubr
        </CharString>
        <CharString name=".null">
          -562 endchar
        </CharString>
        <CharString name="A">
          -37 callgsubr
          hstemhm
          7 28 285 40 -8 71 hintmask 1000010101001010
          20 -2 rmoveto
          hintmask 0001010101001010
          -98 callgsubr
          hintmask 1000010101001010
          -99 callsubr
          hintmask 0100010101001100
          -102 callsubr
          hintmask 0010000101001010
          17 callgsubr
          hintmask 1000010101001010
          165 callgsubr
          hintmask 1000100101001100
          -107 callsubr
          -91 callgsubr
          -42 callsubr
          hintmask 1000010110001010
          -19 -17 -2 -12 -15 vhcurveto
          hintmask 1000010100101010
          80 callsubr
          hintmask 1000011000011010
          -97 callsubr
          -3 10 -5 0 13 33 52 38 vhcurveto
          -52 callsubr
          -78 callsubr
          -103 callgsubr
          18 41 46 11 14 hvcurveto
          23 18 50 30 1 12 rrcurveto
          4 vlineto
          -2 -15 -5 -4 -7 hvcurveto
          -3 5 rlineto
          -3 -2 -6 -5 -5 vvcurveto
          9 -4 hlineto
          -12 -84 -36 -32 -37 vhcurveto
          88 117 rmoveto
          4 -8 -28 -28 rlineto
          1 -3 -2 1 -2 -9 -1 -18 -8 hhcurveto
          -8 -20 -15 -4 -6 hvcurveto
          -98 callsubr
          -29 callgsubr
          hintmask 1000010100101010
          -20 -13 -28 -31 6 2 81 42 1 1 rlinecurve
          1 -2 -1 2 -3 hhcurveto
          35 -34 rmoveto
          -11 3 -15 3 -2 vhcurveto
          -12 -31 -16 -15 -3 hhcurveto
          17 35 27 9 11 vhcurveto
          -137 140 rmoveto
          18 0 -5 -5 17 hvcurveto
          -1 -1 -3 -2 -1 hhcurveto
          -3 3 -11 -11 -15 -16 -15 -9 rlinecurve
          18 14 11 17 vvcurveto
          232 -491 rmoveto
          -2 -5 4 -1 hhcurveto
          -2 -4 -11 -13 146 callgsubr
          0 27 18 12 15 vhcurveto
          6 0 2 -3 3 vhcurveto
          -17 -7 -55 -29 -3 vvcurveto
          20 4 20 11 16 13 rrcurveto
          -331 -37 rmoveto
          -14 -4 -32 -23 -13 vvcurveto
          -1 5 -4 1 vhcurveto
          1 28 10 5 23 vhcurveto
          2 3 5 7 1 vvcurveto
          43 194 rmoveto
          -12 -16 rlineto
          0 -42 -27 -10 -4 vhcurveto
          4 vlineto
          9 39 24 25 10 vhcurveto
          -33 -110 rmoveto
          -12 -5 -11 -9 -8 -10 rrcurveto
          5 3 4 4 2 5 -5 2 hhcurveto
          6 1 31 13 10 vvcurveto
          1 -1 2 -35 callgsubr
          -8 -10 -9 2 -11 -3 rrcurveto
          327 -8 rmoveto
          -15 -5 -38 -25 -14 vvcurveto
          10 0 3 8 0 7 -3 1 hvcurveto
          10 8 25 15 13 vvcurveto
          -55 -4 rmoveto
          -2 3 -2 1 5 41 34 1 2 vhcurveto
          2 -4 -4 3 -2 hhcurveto
          -4 -26 -22 -10 hvcurveto
          3 callgsubr
          -363 -156 rmoveto
          -5 4 -1 2 11 13 31 8 1 vhcurveto
          -9 -4 -22 -17 -12 vvcurveto
          319 195 rmoveto
          -4 8 vlineto
          6 41 37 3 1 hvcurveto
          -19 -3 -21 -23 -16 -10 rrcurveto
          -154 153 rmoveto
          -6 -42 -28 -7 hvcurveto
          9 26 19 13 17 hvcurveto
          0 -3 3 -1 vhcurveto
          234 -192 rmoveto
          -7 -3 -31 -17 -6 -4 rrcurveto
          -1 -3 -3 0 0 3 -1 1 13 24 18 10 7 hvcurveto
          -123 339 rmoveto
          3 2 9 9 5 vvcurveto
          2 -3 8 callgsubr
          -16 -24 13 -16 vvcurveto
          6 9 0 -5 1 hvcurveto
          81 -257 rmoveto
          -14 -10 -8 -12 -8 hvcurveto
          -38 callsubr
          5 25 15 6 3 hvcurveto
          2 -35 rmoveto
          -7 4 -1 4 9 6 9 8 5 vhcurveto
          -12 -8 -3 -6 -8 hvcurveto
          -261 -63 rmoveto
          -3 -17 -21 -7 -7 -15 rrcurveto
          4 2 36 27 6 vvcurveto
          -3 -4 1 3 -2 hvcurveto
          331 -39 rmoveto
          -2 -21 -11 -2 hvcurveto
          -4 vlineto
          9 1 14 8 8 vvcurveto
          -370 -5 rmoveto
          -8 -1 -13 -8 -4 -6 7 -1 rcurveline
          5 5 9 5 4 6 rrcurveto
          endchar
        </CharString>
        <CharString name="AE">
          215 -17 20 -1 -21 28 -21 23 -21 30 -21 67 47 -15 121 -99 99 -85 85 -65 65 -42 42 -10 39 -2 29 -8 31 1 44 -12 46 -10 149 -47 -20 27 -20 28 -20 35 -20 22 -20 23 24 hstemhm
          504 47 -47 94 -8 36 5 -20 hstemhm
          106 213 -128 128 -61 61 -56 56 -56 71 -63 178 -96 55 -55 72 -72 111 -70 55 36 176 20 36 hintmask 0010010100001010001010010101000001000110
          -17 -12 rmoveto
          hintmask 0100010100001010001010010101000001000110
          -6 24 3 6 -4 vhcurveto
          hintmask 0010010100001010001010010101000001000110
          29 26 7 28 hhcurveto
          hintmask 1000010100001010001010010100001001000110
          11 1 -5 5 hhcurveto
          11 3 22 68 6 16 5 15 3 -14 8 18 3 8 1 21 12 3 rrcurveto
          1 8 -1 5 6 14 5 11 hhcurveto
          4 4 -1 -3 2 hvcurveto
          -4 vlineto
          16 8 rlineto
          59 hlineto
          37 callgsubr
          -1 1 -17 -6 -31 -5 -27 -33 vvcurveto
          22 -13 33 -4 24 -6 rrcurveto
          hintmask 0001010100001010001010010101000001000110
          4 162 10 3 10 hhcurveto
          hintmask 1000010100000101001010010101000000010110
          20 38 -7 27 hhcurveto
          30 50 1 11 12 hvcurveto
          -9 3 0 47 7 vvcurveto
          2 2 11 3 5 vhcurveto
          -2 4 -1 7 -2 8 -5 21 rcurveline
          6 -9 1 -10 vhcurveto
          -20 -4 -4 -14 -82 -53 4 -54 hhcurveto
          -8 8 rlineto
          7 1 7 6 24 -6 52 19 vvcurveto
          8 4 rlineto
          18 20 34 5 39 hhcurveto
          29 32 -2 -2 32 hvcurveto
          3 2 5 29 callgsubr
          103 vlineto
          4 -4 0 -4 vhcurveto
          -4 hlineto
          -6 -5 0 -1 -5 hvcurveto
          -70 hlineto
          -7 -9 -1 -7 hhcurveto
          -2 -2 0 1 -1 hvcurveto
          -17 -37 -8 -25 hhcurveto
          -9 -2 2 6 -5 hvcurveto
          9 9 0 21 19 vvcurveto
          5 vlineto
          40 -5 7 22 1 4 8 2 vvcurveto
          hintmask 1000010100001010100000000100000010000110
          2 -4 3 -3 -10 -2 -7 -2 vhcurveto
          hintmask 1000010100001010001010100101000000100110
          -2 1 -3 -3 vvcurveto
          -3 -33 -20 -16 vhcurveto
          -39 -19 13 24 30 10 16 21 rlinecurve
          9 12 1 11 17 8 rrcurveto
          -4 2 0 5 3 1 1 11 callgsubr
          -4 1 5 0 3 1 4 1 1 hhcurveto
          -1 -3 6 1 hvcurveto
          2 6 2 3 vvcurveto
          -9 -38 -41 -7 1 hvcurveto
          0 -1 3 2 vvcurveto
          13 13 3 4 13 vhcurveto
          -7 3 rlineto
          -5 -11 -9 -3 hvcurveto
          -4 3 -9 -1 vvcurveto
          -1 -6 2 -3 hhcurveto
          -2 -3 -6 -4 hvcurveto
          2 3 0 3 3 hvcurveto
          hintmask 1000010100001010010010010101000001000110
          0 2 -35 callgsubr
          -21 -36 -37 -23 vhcurveto
          hintmask 1000010100001010000100010100000010000110
          6 -5 9 -8 -5 -10 0 -6 vhcurveto
          -1 5 -6 -3 vvcurveto
          -3 -43 -71 -1 -1 vhcurveto
          -13 -9 -6 6 -12 -16 8 -4 rcurveline
          -41 -16 -77 -63 -5 vvcurveto
          5 24 53 19 1 149 callsubr
          6 3 5 12 8 vvcurveto
          21 79 60 20 hvcurveto
          -14 -13 -10 -15 -1 hvcurveto
          -4 12 -2 -4 -2 -5 -4 -3 rlinecurve
          hintmask 1000010100001010001010001010001001000110
          4 -4 -15 -16 -55 -29 -5 -18 rlinecurve
          1 -3 -6 0 -3 hhcurveto
          5 25 32 -2 -2 vhcurveto
          -6 vlineto
          1 21 17 0 hvcurveto
          -9 hlineto
          3 4 rlineto
          3 -3 1 -2 -4 -2 -2 -2 -5 vhcurveto
          1 9 25 4 6 vhcurveto
          3 6 16 7 4 7 rrcurveto
          -2 -8 -2 -3 -6 hvcurveto
          7 11 12 1 9 vhcurveto
          21 13 -9 3 8 hhcurveto
          hintmask 1000010100001010001010001010000010000110
          28 hlineto
          3 16 9 8 4 vhcurveto
          -2 -2 -3 -8 -2 vvcurveto
          -2 4 -2 3 16 31 29 10 10 vhcurveto
          hintmask 1000010100001010001010100011000001000110
          -2 -7 -17 -13 -8 119 callgsubr
          33 19 32 23 34 17 8 4 11 0 9 4 -5 4 rcurveline
          5 3 13 3 6 hhcurveto
          0 callgsubr
          -8 -10 -20 -3 -16 -6 -10 -6 -1 vvcurveto
          1 2 0 3 7 hvcurveto
          32 21 21 7 41 hhcurveto
          -7 -11 -20 0 -9 -12 8 1 10 3 7 4 rrcurveto
          -3 -2 -7 -3 -2 vhcurveto
          12 12 14 10 8 hvcurveto
          hintmask 1000010100001010001010001011000001000110
          -5 -9 -9 -4 3 17 20 14 hhcurveto
          5 7 -6 -5 hvcurveto
          -5 -5 -11 -3 -4 -8 rrcurveto
          177 callsubr
          -24 callgsubr
          15 11 25 19 hhcurveto
          -4 9 -1 9 vhcurveto
          13 hlineto
          -13 -9 -14 -4 -13 -10 rrcurveto
          18 27 17 6 11 hvcurveto
          72 hlineto
          -8 3 1 -6 -9 -16 -3 -6 vvcurveto
          1 1 8 3 3 180 callsubr
          -51 -4 4 vlineto
          -8 -4 rlineto
          -43 hlineto
          114 callgsubr
          1 4 6 1 vvcurveto
          4 -5 rlineto
          3 4 -19 callgsubr
          2 -1 2 5 vvcurveto
          15 6 8 15 hvcurveto
          -14 -6 -12 -10 -9 -11 -12 2 rcurveline
          13 43 27 8 13 vhcurveto
          -5 hlineto
          -3 -2 0 -4 -1 hvcurveto
          -9 -13 -21 -6 -14 -9 -7 -4 6 -4 -7 -4 -4 4 rcurveline
          hintmask 1000010100001010001010010101000001000110
          -12 vlineto
          12 8 rlineto
          -8 -11 -6 -1 -10 vhcurveto
          -6 8 rlineto
          177 callsubr
          -15 vlineto
          -2 4 rlineto
          -3 -4 -3 -1 -3 -4 -4 1 -5 hhcurveto
          21 23 -18 24 vvcurveto
          -4 -8 rlineto
          hintmask 1000010100001010001010010101000001000110
          1 -3 2 -1 -10 -9 -5 -11 vhcurveto
          -5 1 -6 0 -3 4 rrcurveto
          177 callsubr
          -14 -12 rlineto
          -4 -1 -4 -4 vhcurveto
          -34 hlineto
          11 12 rlineto
          -6 228 callsubr
          vhcurveto
          18 -2 19 8 hhcurveto
          1 1 19 callsubr
          hvcurveto
          4 1 5 19 5 0 -4 -26 callsubr
          -1 -20 -24 -1 hhcurveto
          0 2 13 0 vhcurveto
          -18 -28 -53 -11 -3 vvcurveto
          -10 18 -1 15 vhcurveto
          13 hlineto
          23 24 1 12 17 hvcurveto
          -4 vlineto
          1 5 22 3 5 5 3 -5 12 10 11 1 10 hhcurveto
          24 hlineto
          hintmask 1000010100001010100000000101000001000110
          7 39 2 6 2 hvcurveto
          19 vlineto
          13 -4 68 -4 2 vhcurveto
          -8 6 -23 -7 -1 9 rrcurveto
          -103 hlineto
          hintmask 1000010100001010001010001011000000010110
          -8 5 rlineto
          -67 hlineto
          -5 -8 -10 -1 -9 -15 -13 6 -4 -14 -20 -8 -13 hhcurveto
          hintmask 0010010000101010001010010101000001000110
          -2 -2 2 1 hvcurveto
          -43 hlineto
          -5 -3 rlineto
          -15 hlineto
          -16 -18 -1 -4 -11 hvcurveto
          0 -20 3 -6 2 vhcurveto
          -3 -15 -17 -18 -16 vvcurveto
          -1 1 -7 4 vhcurveto
          -3 -5 -4 -4 223 callgsubr
          vhcurveto
          -39 -87 rlineto
          -2 1 -26 callsubr
          1 -19 -31 -10 -21 vhcurveto
          -36 -62 -81 -6 -21 vhcurveto
          -2 -2 -8 -1 -2 vhcurveto
          -11 -25 -11 -10 -20 vvcurveto
          -6 hlineto
          -2 -14 -7 -15 -7 -10 5 -5 rcurveline
          -5 -3 -11 -11 -2 -3 2 -5 -1 vvcurveto
          -11 6 -4 -6 -9 hvcurveto
          -8 -35 -5 3 rlineto
          -6 -26 -19 -24 -25 vvcurveto
          -6 hlineto
          -3 -15 -16 -11 -16 vvcurveto
          119 58 rmoveto
          hintmask 0001010100001010001010010101000001000110
          -14 -38 -35 -11 hhcurveto
          -1 -1 -19 callgsubr
          3 2 1 1 hvcurveto
          -3 3 20 3 62 48 12 16 rlinecurve
          -1 1 -5 -1 -9 -14 -15 -3 vvcurveto
          1 6 2 1 3 hvcurveto
          hintmask 0000110100001010001010010101000001000110
          -18 -22 3 -41 -33 hhcurveto
          hintmask 1000010100001010001010010101000001000110
          166 callgsubr
          hintmask 0000110100001010001010010101000000100110
          -4 -21 -7 0 -20 hhcurveto
          14 5 66 28 11 vvcurveto
          1 -1 2 -3 vhcurveto
          271 -27 rmoveto
          -7 5 -13 2 -7 1 11 7 rcurveline
          -3 4 13 16 15 7 15 17 rlinecurve
          -8 vlineto
          7 10 1 22 17 hhcurveto
          -10 vlineto
          9 6 -2 14 8 4 rrcurveto
          hintmask 1000001000001010001010010101000000010110
          4 2 17 12 3 2 rrcurveto
          -17 -23 0 -14 vvcurveto
          7 3 5 2 9 hvcurveto
          0 33 callsubr
          -10 -20 -21 -9 -1 vhcurveto
          hintmask 0001010100001010001010010101000000010110
          -1 3 -3 2 16 9 24 4 17 vhcurveto
          -5 vlineto
          -7 -2 -9 -5 -8 vvcurveto
          -1 0 28 callsubr
          32 16 -9 -17 -14 -1 -9 -18 rlinecurve
          -4 4 -12 -13 -17 -13 -10 -14 rlinecurve
          hintmask 0001010100001010001010010101000000100110
          -1 3 -2 1 vhcurveto
          38 16 15 19 65 36 -15 -20 rcurveline
          -4 3 -40 -52 -8 -7 rrcurveto
          -83 hlineto
          -3 -22 5 -3 hhcurveto
          hintmask 1000001000001010001010010101000001000110
          -16 -8 rlineto
          11 17 5 7 vhcurveto
          123 -13 rmoveto
          8 6 10 2 8 vvcurveto
          -7 hlineto
          11 25 21 3 4 vhcurveto
          4 hlineto
          20 28 rlineto
          8 vlineto
          2 23 2 26 vhcurveto
          42 -12 -5 15 hhcurveto
          5 5 0 1 2 hvcurveto
          -5 -9 -30 -25 -10 hhcurveto
          -2 -1 1 3 2 3 3 6 5 hvcurveto
          2 -3 -6 7 -2 hhcurveto
          -38 -19 -27 -16 -26 -22 3 -8 rcurveline
          15 12 50 38 15 -41 callgsubr
          -36 -36 rlineto
          -16 vlineto
          20 20 5 -4 rlineto
          3 20 62 19 2 vvcurveto
          0 3 -1 2 vhcurveto
          -20 -18 -16 -20 -19 -19 1 -2 1 -3 2 -2 15 8 8 21 16 3 -3 4 rcurveline
          27 32 rlineto
          -1 89 callgsubr
          10 42 3 2 vhcurveto
          -9 vlineto
          -10 -1 -24 -5 -13 vvcurveto
          8 8 6 2 7 hvcurveto
          hintmask 0001010100001010001010010101000001000110
          -7 -13 -36 -44 -13 -10 rrcurveto
          1 3 -65 callgsubr
          20 2 20 12 9 hvcurveto
          4 6 22 22 5 4 rrcurveto
          1 -1 0 -4 -1 -19 -28 0 -15 vvcurveto
          90 callgsubr
          7 9 10 6 11 5 rrcurveto
          -1 -3 0 -8 -8 vvcurveto
          hintmask 1000010001001010001010010100000010000110
          -17 0 -7 4 -4 vhcurveto
          -183 hlineto
          9 18 0 12 1 -1 11 callgsubr
          -13 -24 15 -14 -41 hhcurveto
          -6 -5 0 3 -5 hvcurveto
          -478 24 rmoveto
          48 107 -5 4 9 2 50 39 1 6 rlinecurve
          -1 2 2 0 1 hhcurveto
          2 0 1 1 11 48 32 4 4 hvcurveto
          -32 -49 -65 -10 hhcurveto
          2 1 15 3 4 vhcurveto
          -3 2 -1 1 4 vvcurveto
          11 6 10 10 3 hvcurveto
          0 6 28 callsubr
          3 21 8 27 17 hhcurveto
          7 21 7 7 9 hvcurveto
          -76 callgsubr
          -6 -11 -6 -5 -1 vhcurveto
          23 6 13 6 18 hvcurveto
          186 callsubr
          -1 vvcurveto
          -9 26 0 16 -3 vhcurveto
          -17 -3 -31 -20 -4 -16 -4 4 rcurveline
          -13 -17 -25 -8 -9 -18 rrcurveto
          -11 -15 -31 2 -19 vvcurveto
          15 9 17 15 hhcurveto
          -17 vlineto
          -5 8 rlineto
          -11 -4 -27 -16 -11 vvcurveto
          5 2 0 3 3 hvcurveto
          -9 -7 -17 -15 -9 hhcurveto
          0 16 6 7 vvcurveto
          1 -1 1 -1 -8 -20 -7 -7 -8 vhcurveto
          5 -5 rlineto
          -27 -7 -8 -16 -5 vvcurveto
          -3 1 -1 1 7 18 23 -1 3 vhcurveto
          -5 vlineto
          6 11 45 30 9 hhcurveto
          -1 -2 -4 -16 -16 vhcurveto
          -8 -97 -83 -10 hhcurveto
          8 7 7 2 9 vhcurveto
          383 4 rmoveto
          -5 vlineto
          29 11 -15 11 14 7 rrcurveto
          hintmask 1000010100001010001010010101000000100110
          -4 hlineto
          12 hmoveto
          -5 -4 -4 -4 -5 vvcurveto
          5 5 4 5 2 hvcurveto
          -94 24 rmoveto
          1 7 69 52 9 8 4 4 25 20 6 3 rrcurveto
          hintmask 1000010010001010001010010101000000010110
          4 8 rlineto
          -31 vlineto
          -12 -59 -6 -17 vvcurveto
          16 13 20 14 1 3 -65 callgsubr
          -30 -35 -46 -12 -28 -36 rrcurveto
          330 17 rmoveto
          -12 -6 -7 -10 hvcurveto
          4 5 14 5 7 vvcurveto
          -156 30 rmoveto
          16 -8 hlineto
          -13 -32 -30 -5 -15 hvcurveto
          11 29 17 15 15 vhcurveto
          -166 40 rmoveto
          -2 1 3 -2 1 hhcurveto
          3 17 24 4 7 hvcurveto
          23 14 39 19 25 vvcurveto
          -14 hlineto
          -64 -27 rlineto
          5 17 59 17 16 vvcurveto
          hintmask 1000010000010110001010010101000001000110
          4 -5 2 -3 -23 -33 -22 -10 -19 vhcurveto
          hintmask 1000010000100110100000000101000000100110
          -5 3 rlineto
          8 3 21 10 10 2 -25 25 11 vvcurveto
          28 100 29 19 13 vhcurveto
          -29 -30 -44 -35 -18 -22 rrcurveto
          -5 2 7 -3 1 hhcurveto
          5 5 2 6 4 0 2 -4 2 hvcurveto
          21 27 73 37 5 27 rrcurveto
          4 15 7 1 15 4 23 -6 18 25 25 5 25 hhcurveto
          3 5 0 -6 hvcurveto
          -14 -5 -11 -16 vvcurveto
          -16 -12 -21 -17 8 callsubr
          -1 hhcurveto
          39 36 5 8 rlineto
          -26 -58 -31 -5 -11 hvcurveto
          -4 -8 rlineto
          hintmask 1000010100001001001010010101000001000110
          27 17 32 27 23 callgsubr
          -12 -2 -59 -43 -18 -16 -1 12 -2 -15 -10 -16 -16 hhcurveto
          12 16 36 39 16 hhcurveto
          3 3 12 11 2 -27 callgsubr
          hintmask 1000010100001010001010010100100001000110
          -19 -29 -30 -12 -14 hvcurveto
          -76 callgsubr
          -2 -3 -2 -1 -1 vhcurveto
          -4 4 -8 -16 rlineto
          -3 3 -3 2 0 vvcurveto
          -21 -3 -32 -8 -14 hvcurveto
          10 4 3 10 hhcurveto
          -10 -7 rlineto
          -52 vlineto
          -20 -8 -37 -19 -4 vvcurveto
          11 19 11 4 10 hvcurveto
          -13 -15 rlineto
          -17 -19 -28 -8 -11 hvcurveto
          -5 -4 -25 -16 -6 -4 rrcurveto
          31 5 -10 3 19 vhcurveto
          -228 24 rmoveto
          -14 -8 -43 -20 -18 vvcurveto
          8 10 2 8 3 hvcurveto
          4 -4 8 8 3 callgsubr
          8 12 20 0 16 vvcurveto
          28 -28 rmoveto
          1 -1 3 -3 -2 vvcurveto
          -10 -18 0 -7 vhcurveto
          10 14 3 7 3 vhcurveto
          157 16 rmoveto
          8 13 24 -3 8 13 rrcurveto
          -6 -6 -3 -4 hhcurveto
          19 19 rlineto
          8 vlineto
          -6 -18 -19 8 -6 -17 -4 3 rcurveline
          -24 -15 rlineto
          -8 vlineto
          -34 -7 -62 -2 0 vvcurveto
          -9 -2 7 9 hvcurveto
          11 -12 -5 9 vvcurveto
          2 34 24 1 hvcurveto
          4 -4 7 3 -6 6 7 3 rlinecurve
          6 -4 rlineto
          14 vlineto
          hintmask 1000010000101010001010010100001000100110
          13 4 15 13 hhcurveto
          -5 vlineto
          -7 -5 -10 -8 -7 -7 59 28 rcurveline
          -47 callsubr
          -11 -13 -80 -53 -4 vvcurveto
          0 3 -5 1 13 31 29 6 15 vhcurveto
          21 8 rlineto
          -5 -20 -14 -12 -12 vhcurveto
          11 hlineto
          -7 -7 -16 -6 -3 vvcurveto
          18 12 7 17 1 hvcurveto
          -5 214 callgsubr
          9 47 32 0 hvcurveto
          59 28 4 7 8 4 8 1 rlinecurve
          -28 -28 rlineto
          -12 -13 -13 -7 -7 hvcurveto
          -1 5 -9 -1 vvcurveto
          -3 -1 -6 -5 -1 hhcurveto
          hintmask 1000010000010110100000000100100001000110
          25 19 32 27 hhcurveto
          -15 -12 0 -8 -6 vhcurveto
          4 -3 -25 -8 -21 -25 -6 -3 rlinecurve
          -3 4 -16 -16 -11 8 -12 -4 -9 8 rlinecurve
          87 12 rmoveto
          -7 -6 -14 -10 -7 -8 12 4 12 7 4 13 rrcurveto
          -259 12 rmoveto
          -5 0 -12 0 hvcurveto
          7 3 79 60 rlineto
          6 vlineto
          -19 -44 -11 -19 -12 hvcurveto
          -38 callsubr
          10 19 9 4 11 hvcurveto
          -10 -8 -32 -29 -9 hhcurveto
          193 40 rmoveto
          0 2 -5 0 vhcurveto
          -5 -18 -9 -5 -2 vhcurveto
          4 vlineto
          1 17 14 4 2 vhcurveto
          -33 -11 rmoveto
          7 26 11 4 vhcurveto
          0 -19 -15 -7 -9 vhcurveto
          -4 0 4 2 hvcurveto
          -129 97 rmoveto
          -1 3 rlineto
          2 16 17 31 7 19 17 32 16 -38 callsubr
          -5 -23 -20 -17 -23 -4 20 -2 rcurveline
          -8 -11 -30 -18 -11 vvcurveto
          17 8 22 17 hhcurveto
          -14 -23 -4 -25 -36 hhcurveto
          7 6 5 6 8 -19 callsubr
          -19 -27 -38 -10 -21 -26 rrcurveto
          hintmask 1000010100001010100000000100000101000110
          13 22 38 1 vhcurveto
          12 hlineto
          4 1 24 13 2 2 -3 29 callgsubr
          165 -72 rmoveto
          5 5 19 13 3 hhcurveto
          -2 -18 -19 -5 vhcurveto
          -91 44 rmoveto
          0 -1 2 1 12 17 12 12 4 -4 2 2 vvcurveto
          23 41 55 10 vhcurveto
          3 2 1 2 3 4 -1 3 3 vvcurveto
          3 1 3 4 1 vhcurveto
          4 -6 1 -10 -10 -8 -1 -9 -5 -4 4 -5 -4 -7 -5 -6 -8 -26 9 -24 -25 vvcurveto
          -28 7 -27 -7 -28 8 rrcurveto
          166 7 rmoveto
          -5 -4 -4 -3 hvcurveto
          -12 callsubr
          3 7 45 26 1 hhcurveto
          -1 6 -1 -3 vvcurveto
          0 21 22 3 1 vhcurveto
          -8 vlineto
          5 6 11 2 1 hvcurveto
          -5 vlineto
          31 16 4 9 -8 -5 -35 -9 -47 -31 -32 -15 rlinecurve
          194 9 rmoveto
          20 4 27 21 hhcurveto
          4 1 -9 -6 hvcurveto
          -13 vlineto
          4 -4 -4 0 -5 -11 -10 -4 -10 113 callsubr
          -399 34 rmoveto
          -10 -1 -19 -7 -11 vvcurveto
          74 callgsubr
          259 72 rmoveto
          hintmask 1000010100001010100000000101000000001110
          -9 6 1 -7 vvcurveto
          -2 -65 -31 -14 -12 vhcurveto
          1 15 57 43 15 2 rrcurveto
          -89 -23 rmoveto
          24 61 18 17 12 hhcurveto
          -18 -19 -37 -12 -9 -24 rrcurveto
          2 -2 3 -2 -6 -16 -15 -5 -1 vhcurveto
          -111 60 rmoveto
          -8 -26 -10 -11 -2 hvcurveto
          1 3 -65 callgsubr
          10 13 14 3 8 hvcurveto
          hintmask 1000010100001001001010010101000000100110
          134 7 rmoveto
          2 -6 3 -1 vhcurveto
          -3 -1 -8 -5 -2 -2 rrcurveto
          -4 15 0 14 16 vvcurveto
          26 6 10 26 5 vhcurveto
          4 7 32 12 6 hhcurveto
          0 -39 -23 1 -9 vhcurveto
          1 -6 14 16 24 -1 22 27 rlinecurve
          -28 vlineto
          -24 -23 -10 -13 -17 hvcurveto
          -4 16 rlineto
          -6 -6 -17 -13 -13 vvcurveto
          12 28 14 10 23 hvcurveto
          -21 -29 -13 -19 -13 vhcurveto
          12 -5 21 5 20 37 18 14 rlinecurve
          4 -1 1 -4 -3 vvcurveto
          -11 -1 -23 -4 -1 vhcurveto
          -63 -28 -5 -12 -13 6 -10 -10 rlinecurve
          12 11 7 9 4 vhcurveto
          -138 49 rmoveto
          1 -1 -2 2 -2 hhcurveto
          -5 -14 -9 -4 -2 1 -1 2 7 14 8 5 hvcurveto
          59 62 rmoveto
          hintmask 1000010100001010000100010101000001000110
          -4 vlineto
          -3 -27 -24 -4 vhcurveto
          -17 -6 2 -12 -9 -6 18 2 54 46 3 15 4 -4 rcurveline
          16 vlineto
          -25 -11 -40 -14 -2 -15 15 5 16 7 12 8 rrcurveto
          56 19 rmoveto
          hintmask 1000010100001010001001100010010000001110
          -6 vlineto
          10 0 5 6 6 hvcurveto
          13 6 11 -10 22 2 -1 6 2 vvcurveto
          -2 -2 -37 -31 0 vvcurveto
          -43 51 rmoveto
          -17 -8 -32 -9 -3 -21 rrcurveto
          1 -1 5 2 vvcurveto
          24 48 15 0 3 7 -4 -4 2 vhcurveto
          15 15 20 18 12 18 rrcurveto
          14 14 1 7 hhcurveto
          10 10 -1 -3 9 hvcurveto
          -139 -75 rlineto
          hintmask 1000010100001010001010100100001001000110
          -7 -9 -10 -6 -10 -5 rrcurveto
          9 7 39 39 0 vvcurveto
          140 -30 rmoveto
          hintmask 1000010100001010100000000101000001000110
          -7 -9 -6 -6 -3 hvcurveto
          5 14 5 3 5 hvcurveto
          177 callsubr
          1 -4 3 -1 vhcurveto
          21 -4 rmoveto
          -2 2 4 -3 4 hhcurveto
          3 2 1 4 hvcurveto
          -3 4 rlineto
          1 5 4 2 hhcurveto
          hintmask 1000010100001010001010010100000010000110
          18 4 8 9 17 6 rrcurveto
          1 -3 4 -1 -7 -12 -11 -5 -5 vhcurveto
          -7 11 -6 -2 -13 -8 -2 -9 rlinecurve
          -3 3 rlineto
          -1 -1 -3 -9 -1 vvcurveto
          173 16 rmoveto
          13 hlineto
          -13 -8 rlineto
          -176 16 rmoveto
          -6 -3 -3 -6 -3 hvcurveto
          8 4 1 7 4 hvcurveto
          -38 callgsubr
          101 3 rmoveto
          -2 2 4 -2 1 hhcurveto
          7 19 9 7 3 hvcurveto
          -4 -11 callsubr
          1 1 -19 callgsubr
          3 222 callgsubr
          3 23 18 16 11 vhcurveto
          1 -3 3 -2 -11 -21 -23 -13 -28 vhcurveto
          -3 -7 -11 -1 -5 hvcurveto
          -272 56 rmoveto
          4 -8 rlineto
          7 8 10 2 12 7 8 -1 7 hhcurveto
          -12 -12 -63 -32 -4 -2 -3 -7 -1 -3 rlinecurve
          31 16 19 -1 vhcurveto
          2 1 4 1 6 4 rrcurveto
          103 -40 rmoveto
          -2 -18 -4 -4 hvcurveto
          2 1 -40 callgsubr
          7 6 4 5 6 hvcurveto
          36 callsubr
          79 -4 rmoveto
          -4 -8 rlineto
          1 36 14 1 vvcurveto
          4 vlineto
          -75 12 rmoveto
          -8 -4 -11 -4 -5 -8 rrcurveto
          9 9 12 4 6 hvcurveto
          185 8 rmoveto
          -8 -4 -17 -10 -7 -10 13 4 10 10 9 10 rrcurveto
          -99 -16 rmoveto
          1 2 -40 callgsubr
          2 4 2 7 5 hvcurveto
          -10 -1 -1 -7 -5 hvcurveto
          endchar
        </CharString>
        <CharString name="Aacute">
          -37 callgsubr
          375 -20 hstemhm
          7 28 20 121 0 85 -65 110 14 40 41 22 -22 104 hintmask 100001010100110101010000
          20 -2 rmoveto
          hintmask 000101010100110101010000
          -98 callgsubr
          hintmask 100001010100110101010000
          -99 callsubr
          hintmask 010001010100110101010000
          -102 callsubr
          hintmask 001000010100110101010000
          17 callgsubr
          hintmask 100001010100110101010000
          165 callgsubr
          hintmask 100010010100111011010000
          -107 callsubr
          -91 callgsubr
          hintmask 100001011000110101010000
          -42 callsubr
          -19 -17 -2 -12 -15 vhcurveto
          hintmask 100001010010110101010000
          80 callsubr
          hintmask 100001100001111011010000
          -97 callsubr
          -3 10 -5 0 vhcurveto
          hintmask 100001100100110101010000
          13 33 52 38 hvcurveto
          -52 callsubr
          hintmask 100001010001111011100000
          -78 callsubr
          -103 callgsubr
          hintmask 100001010001110101010000
          18 41 46 11 14 hvcurveto
          23 18 50 30 1 12 rrcurveto
          4 vlineto
          -2 -15 -5 -4 -7 hvcurveto
          -3 5 rlineto
          -3 -2 -6 -5 -5 vvcurveto
          9 -4 hlineto
          -12 -84 -36 -32 -37 vhcurveto
          88 117 rmoveto
          4 -8 -28 -28 rlineto
          1 -3 -2 1 -2 -9 -1 -18 -8 hhcurveto
          -8 -20 -15 -4 -6 hvcurveto
          hintmask 100001010100111011010000
          -98 callsubr
          hintmask 100001010001110101010000
          -29 callgsubr
          hintmask 100001010010110101010000
          -20 -13 -28 -31 6 2 81 42 1 1 rlinecurve
          1 -2 -1 2 -3 hhcurveto
          35 -34 rmoveto
          -11 3 -15 3 -2 vhcurveto
          -12 -31 -16 -15 -3 hhcurveto
          17 35 27 9 11 vhcurveto
          -137 140 rmoveto
          18 0 -5 -5 17 hvcurveto
          -1 -1 -3 -2 -1 hhcurveto
          -3 3 -11 -11 -15 -16 -15 -9 rlinecurve
          18 14 11 17 vvcurveto
          232 -491 rmoveto
          -2 -5 4 -1 hhcurveto
          -2 -4 -11 -13 146 callgsubr
          0 27 18 12 15 vhcurveto
          6 0 2 -3 3 vhcurveto
          -17 -7 -55 -29 -3 vvcurveto
          20 4 20 11 16 13 rrcurveto
          -331 -37 rmoveto
          -14 -4 -32 -23 -13 vvcurveto
          -1 5 -4 1 vhcurveto
          1 28 10 5 23 vhcurveto
          2 3 5 7 1 vvcurveto
          43 194 rmoveto
          -12 -16 rlineto
          0 -42 -27 -10 -4 vhcurveto
          4 vlineto
          9 39 24 25 10 vhcurveto
          -33 -110 rmoveto
          -12 -5 -11 -9 -8 -10 rrcurveto
          5 3 4 4 2 5 -5 2 hhcurveto
          6 1 31 13 10 vvcurveto
          1 -1 2 -35 callgsubr
          -8 -10 -9 2 -11 -3 rrcurveto
          327 -8 rmoveto
          -15 -5 -38 -25 -14 vvcurveto
          10 0 3 8 0 7 -3 1 hvcurveto
          10 8 25 15 13 vvcurveto
          -55 -4 rmoveto
          -2 3 -2 1 5 41 34 1 2 vhcurveto
          2 -4 -4 3 -2 hhcurveto
          -4 -26 -22 -10 hvcurveto
          3 callgsubr
          -363 -156 rmoveto
          -5 4 -1 2 11 13 31 8 1 vhcurveto
          -9 -4 -22 -17 -12 vvcurveto
          319 195 rmoveto
          -4 8 vlineto
          6 41 37 3 1 hvcurveto
          -19 -3 -21 -23 -16 -10 rrcurveto
          -154 153 rmoveto
          -6 -42 -28 -7 hvcurveto
          9 26 19 13 17 hvcurveto
          0 -3 3 -1 vhcurveto
          234 -192 rmoveto
          -7 -3 -31 -17 -6 -4 rrcurveto
          -1 -3 -3 0 0 3 -1 1 13 24 18 10 7 hvcurveto
          -123 339 rmoveto
          3 2 9 9 5 vvcurveto
          2 -3 8 callgsubr
          -16 -24 13 -16 vvcurveto
          6 9 0 -5 1 hvcurveto
          81 -257 rmoveto
          -14 -10 -8 -12 -8 hvcurveto
          -38 callsubr
          5 25 15 6 3 hvcurveto
          2 -35 rmoveto
          -7 4 -1 4 9 6 9 8 5 vhcurveto
          -12 -8 -3 -6 -8 hvcurveto
          -261 -63 rmoveto
          -3 -17 -21 -7 -7 -15 rrcurveto
          4 2 36 27 6 vvcurveto
          -3 -4 1 3 -2 hvcurveto
          331 -39 rmoveto
          -2 -21 -11 -2 hvcurveto
          -4 vlineto
          9 1 14 8 8 vvcurveto
          -370 -5 rmoveto
          -8 -1 -13 -8 -4 -6 7 -1 rcurveline
          5 5 9 5 4 6 rrcurveto
          255 738 33 callgsubr
          -105 callgsubr
        </CharString>
        <CharString name="Acircumflex">
          1 118 171 65 195 endchar
        </CharString>
        <CharString name="Adieresis">
          1 123 171 65 200 endchar
        </CharString>
        <CharString name="Agrave">
          1 154 171 65 193 endchar
        </CharString>
        <CharString name="Aring">
          -37 callgsubr
          208 44 -23 -21 112 47 -17 30 hstemhm
          7 28 138 42 -19 110 -91 31 -26 41 -15 146 -131 65 -6 40 32 31 -31 113 hintmask 10000101010010011100100101000000
          20 -2 rmoveto
          hintmask 00010101010010011100100101000000
          -98 callgsubr
          hintmask 10000101010010011100100101000000
          -99 callsubr
          hintmask 01000101010010011100100101000000
          -102 callsubr
          hintmask 00100001010010011100100101000000
          17 callgsubr
          hintmask 10000101010010011100100101000000
          165 callgsubr
          hintmask 10001001010010011100100101000000
          -107 callsubr
          hintmask 10000101010010011010000101000000
          -91 callgsubr
          hintmask 10000101100010011100100101000000
          -42 callsubr
          -19 -17 -2 -12 -15 vhcurveto
          hintmask 10000101001010011100100101000000
          80 callsubr
          hintmask 10000110000110011010000101000000
          -97 callsubr
          hintmask 10000110010010011001000101000000
          -3 10 -5 0 vhcurveto
          hintmask 10000110010010011100001001000000
          13 33 52 38 hvcurveto
          -52 callsubr
          hintmask 10000101010010011010000101000000
          -78 callsubr
          hintmask 10000101000110011100001010000000
          -103 callgsubr
          18 41 46 11 14 hvcurveto
          23 18 50 30 1 12 rrcurveto
          4 vlineto
          -2 -15 -5 -4 -7 hvcurveto
          -3 5 rlineto
          -3 -2 -6 -5 -5 vvcurveto
          9 -4 hlineto
          -12 -84 -36 -32 -37 vhcurveto
          88 117 rmoveto
          4 -8 -28 -28 rlineto
          1 -3 -2 1 -2 -9 -1 -18 -8 hhcurveto
          -8 -20 -15 -4 -6 hvcurveto
          hintmask 10000101010010011010000101000000
          -98 callsubr
          hintmask 10000101000110011100100101000000
          -29 callgsubr
          hintmask 10000101001010011100100101000000
          -20 -13 -28 -31 6 2 81 42 1 1 rlinecurve
          1 -2 -1 2 -3 hhcurveto
          35 -34 rmoveto
          -11 3 -15 3 -2 vhcurveto
          -12 -31 -16 -15 -3 hhcurveto
          17 35 27 9 11 vhcurveto
          -137 140 rmoveto
          18 0 -5 -5 17 hvcurveto
          -1 -1 -3 -2 -1 hhcurveto
          -3 3 -11 -11 -15 -16 -15 -9 rlinecurve
          18 14 11 17 vvcurveto
          232 -491 rmoveto
          -2 -5 4 -1 hhcurveto
          -2 -4 -11 -13 146 callgsubr
          0 27 18 12 15 vhcurveto
          6 0 2 -3 3 vhcurveto
          -17 -7 -55 -29 -3 vvcurveto
          20 4 20 11 16 13 rrcurveto
          -331 -37 rmoveto
          -14 -4 -32 -23 -13 vvcurveto
          -1 5 -4 1 vhcurveto
          1 28 10 5 23 vhcurveto
          2 3 5 7 1 vvcurveto
          43 194 rmoveto
          -12 -16 rlineto
          0 -42 -27 -10 -4 vhcurveto
          4 vlineto
          9 39 24 25 10 vhcurveto
          -33 -110 rmoveto
          -12 -5 -11 -9 -8 -10 rrcurveto
          5 3 4 4 2 5 -5 2 hhcurveto
          6 1 31 13 10 vvcurveto
          1 -1 2 -35 callgsubr
          -8 -10 -9 2 -11 -3 rrcurveto
          327 -8 rmoveto
          -15 -5 -38 -25 -14 vvcurveto
          10 0 3 8 0 7 -3 1 hvcurveto
          10 8 25 15 13 vvcurveto
          -55 -4 rmoveto
          -2 3 -2 1 5 41 34 1 2 vhcurveto
          2 -4 -4 3 -2 hhcurveto
          -4 -26 -22 -10 hvcurveto
          3 callgsubr
          -363 -156 rmoveto
          -5 4 -1 2 11 13 31 8 1 vhcurveto
          -9 -4 -22 -17 -12 vvcurveto
          319 195 rmoveto
          -4 8 vlineto
          6 41 37 3 1 hvcurveto
          -19 -3 -21 -23 -16 -10 rrcurveto
          -154 153 rmoveto
          -6 -42 -28 -7 hvcurveto
          9 26 19 13 17 hvcurveto
          0 -3 3 -1 vhcurveto
          234 -192 rmoveto
          -7 -3 -31 -17 -6 -4 rrcurveto
          -1 -3 -3 0 0 3 -1 1 13 24 18 10 7 hvcurveto
          -123 339 rmoveto
          3 2 9 9 5 vvcurveto
          2 -3 8 callgsubr
          -16 -24 13 -16 vvcurveto
          6 9 0 -5 1 hvcurveto
          81 -257 rmoveto
          -14 -10 -8 -12 -8 hvcurveto
          -38 callsubr
          5 25 15 6 3 hvcurveto
          2 -35 rmoveto
          -7 4 -1 4 9 6 9 8 5 vhcurveto
          -12 -8 -3 -6 -8 hvcurveto
          -261 -63 rmoveto
          -3 -17 -21 -7 -7 -15 rrcurveto
          4 2 36 27 6 vvcurveto
          -3 -4 1 3 -2 hvcurveto
          331 -39 rmoveto
          -2 -21 -11 -2 hvcurveto
          -4 vlineto
          9 1 14 8 8 vvcurveto
          -370 -5 rmoveto
          -8 -1 -13 -8 -4 -6 7 -1 rcurveline
          5 5 9 5 4 6 rrcurveto
          67 635 rmoveto
          -27 16 44 -37 39 hhcurveto
          hintmask 10000101010010011100010000000000
          130 callgsubr
          hintmask 10000101010001101100010000000000
          -26 -28 -13 -27 hhcurveto
          -9 -16 -7 -7 hvcurveto
          -16 -14 -21 -23 vvcurveto
          -7 2 -8 4 -6 vhcurveto
          112 -55 rmoveto
          -13 callgsubr
          -21 17 rmoveto
          6 30 3 1 7 hvcurveto
          2 16 13 1 hhcurveto
          7 9 0 -8 -5 -3 -9 -6 hvcurveto
          -66 hlineto
          -29 10 callsubr
          17 5 rmoveto
          2 1 -2 -3 -2 -1 -2 -2 -3 -1 2 2 3 1 2 3 hvcurveto
          102 8 rmoveto
          2 1 -2 -2 171 callgsubr
          hvcurveto
          -167 50 rmoveto
          7 3 2 3 7 9 -7 -5 4 vhcurveto
          -8 -2 -6 -3 -7 vvcurveto
          -6 6 -3 6 vhcurveto
          8 4 6 2 hhcurveto
          2 0 -9 -9 hvcurveto
          hintmask 10000101010010101100010000000000
          -13 vlineto
          -23 -17 28 21 hvcurveto
          75 callsubr
          -27 callgsubr
          2 2 1 3 3 vhcurveto
          10 29 rmoveto
          4 -22 rlineto
          -4 hlineto
          -141 10 callsubr
          129 5 rmoveto
          2 1 -2 -3 -2 -1 -2 40 callsubr
          2 2 -8 callsubr
          -31 12 rmoveto
          17 -6 hlineto
          -2 -14 0 6 -1 hvcurveto
          -106 13 rmoveto
          17 4 rlineto
          1 128 callgsubr
          vvcurveto
          -4 -7 -2 -3 -3 -4 0 5 -1 vhcurveto
          94 4 32 callgsubr
          -1 2 2 2 -19 callgsubr
          hvcurveto
          22 hmoveto
          13 -4 hlineto
          12 4 32 callgsubr
          -1 2 2 2 -19 callgsubr
          hvcurveto
          -111 18 rmoveto
          2 1 -2 -3 -2 -1 -2 40 callsubr
          2 2 -8 callsubr
          hintmask 10000101010010011100100101000000
          29 8 rmoveto
          35 hlineto
          131 callsubr
          62 -8 rmoveto
          -13 callgsubr
          -104 8 rmoveto
          4 11 1 3 hhcurveto
          5 6 152 callsubr
          -4 -4 rlineto
          -8 -17 3 5 -5 hvcurveto
          -17 4 rmoveto
          2 1 -2 40 callsubr
          -2 -2 -3 -1 2 2 2 1 2 3 hvcurveto
          endchar
        </CharString>
        <CharString name="Atilde">
          -37 callgsubr
          225 26 -26 99 48 -20 hstemhm
          7 28 20 34 231 40 -8 71 55 27 hintmask 100001010100011110110000
          20 -2 rmoveto
          hintmask 000101010100011110110000
          -98 callgsubr
          hintmask 100001010100011110110000
          -99 callsubr
          hintmask 010001010100011111010000
          -102 callsubr
          hintmask 001000010100011110110000
          17 callgsubr
          hintmask 100001010100011110110000
          165 callgsubr
          hintmask 100010010100011111010000
          -107 callsubr
          -91 callgsubr
          -42 callsubr
          hintmask 100001011000011110110000
          -19 -17 -2 -12 -15 vhcurveto
          hintmask 100001010010011110110000
          80 callsubr
          hintmask 100001100001011110110000
          -97 callsubr
          -3 10 -5 0 13 33 52 38 vhcurveto
          -52 callsubr
          -78 callsubr
          -103 callgsubr
          18 41 46 11 14 hvcurveto
          23 18 50 30 1 12 rrcurveto
          4 vlineto
          -2 -15 -5 -4 -7 hvcurveto
          -3 5 rlineto
          -3 -2 -6 -5 -5 vvcurveto
          9 -4 hlineto
          -12 -84 -36 -32 -37 vhcurveto
          88 117 rmoveto
          4 -8 -28 -28 rlineto
          1 -3 -2 1 -2 -9 -1 -18 -8 hhcurveto
          -8 -20 -15 -4 -6 hvcurveto
          -98 callsubr
          -29 callgsubr
          hintmask 100001010010011110110000
          -20 -13 -28 -31 6 2 81 42 1 1 rlinecurve
          1 -2 -1 2 -3 hhcurveto
          35 -34 rmoveto
          -11 3 -15 3 -2 vhcurveto
          -12 -31 -16 -15 -3 hhcurveto
          17 35 27 9 11 vhcurveto
          -137 140 rmoveto
          18 0 -5 -5 17 hvcurveto
          -1 -1 -3 -2 -1 hhcurveto
          -3 3 -11 -11 -15 -16 -15 -9 rlinecurve
          18 14 11 17 vvcurveto
          232 -491 rmoveto
          -2 -5 4 -1 hhcurveto
          -2 -4 -11 -13 146 callgsubr
          0 27 18 12 15 vhcurveto
          6 0 2 -3 3 vhcurveto
          -17 -7 -55 -29 -3 vvcurveto
          20 4 20 11 16 13 rrcurveto
          -331 -37 rmoveto
          -14 -4 -32 -23 -13 vvcurveto
          -1 5 -4 1 vhcurveto
          1 28 10 5 23 vhcurveto
          2 3 5 7 1 vvcurveto
          43 194 rmoveto
          -12 -16 rlineto
          0 -42 -27 -10 -4 vhcurveto
          4 vlineto
          9 39 24 25 10 vhcurveto
          -33 -110 rmoveto
          -12 -5 -11 -9 -8 -10 rrcurveto
          5 3 4 4 2 5 -5 2 hhcurveto
          6 1 31 13 10 vvcurveto
          1 -1 2 -35 callgsubr
          -8 -10 -9 2 -11 -3 rrcurveto
          327 -8 rmoveto
          -15 -5 -38 -25 -14 vvcurveto
          10 0 3 8 0 7 -3 1 hvcurveto
          10 8 25 15 13 vvcurveto
          -55 -4 rmoveto
          -2 3 -2 1 5 41 34 1 2 vhcurveto
          2 -4 -4 3 -2 hhcurveto
          -4 -26 -22 -10 hvcurveto
          3 callgsubr
          -363 -156 rmoveto
          -5 4 -1 2 11 13 31 8 1 vhcurveto
          -9 -4 -22 -17 -12 vvcurveto
          319 195 rmoveto
          -4 8 vlineto
          6 41 37 3 1 hvcurveto
          -19 -3 -21 -23 -16 -10 rrcurveto
          -154 153 rmoveto
          -6 -42 -28 -7 hvcurveto
          9 26 19 13 17 hvcurveto
          0 -3 3 -1 vhcurveto
          234 -192 rmoveto
          -7 -3 -31 -17 -6 -4 rrcurveto
          -1 -3 -3 0 0 3 -1 1 13 24 18 10 7 hvcurveto
          -123 339 rmoveto
          3 2 9 9 5 vvcurveto
          2 -3 8 callgsubr
          -16 -24 13 -16 vvcurveto
          6 9 0 -5 1 hvcurveto
          81 -257 rmoveto
          -14 -10 -8 -12 -8 hvcurveto
          -38 callsubr
          5 25 15 6 3 hvcurveto
          2 -35 rmoveto
          -7 4 -1 4 9 6 9 8 5 vhcurveto
          -12 -8 -3 -6 -8 hvcurveto
          -261 -63 rmoveto
          -3 -17 -21 -7 -7 -15 rrcurveto
          4 2 36 27 6 vvcurveto
          -3 -4 1 3 -2 hvcurveto
          331 -39 rmoveto
          -2 -21 -11 -2 hvcurveto
          -4 vlineto
          9 1 14 8 8 vvcurveto
          -370 -5 rmoveto
          -8 -1 -13 -8 -4 -6 7 -1 rcurveline
          5 5 9 5 4 6 rrcurveto
          110 636 rmoveto
          -51 callgsubr
          -81 callgsubr
          hintmask 100001010100101110110000
          -105 callsubr
          13 11 8 11 1 vhcurveto
          48 callsubr
          132 callgsubr
        </CharString>
        <CharString name="B">
          25 -12 20 10 -21 79 151 -140 198 -24 24 8 27 64 27 47 -24 callsubr
          28 -20 36 -20 28 -20 27 -20 21 23 -20 -20 134 27 hstemhm
          61 28 -28 76 -62 26 -26 85 -12 55 -40 40 -26 204 -24 24 -24 41 27 23 29 23 24 35 hintmask 01101111001001011000100101110000
          113 -3 rmoveto
          hintmask 10101111001001010100100101110000
          -2 59 62 -7 60 hhcurveto
          28 69 12 12 49 hvcurveto
          112 46 7 47 113 vvcurveto
          63 -58 32 -61 28 vhcurveto
          39 34 21 35 53 vvcurveto
          39 -12 27 -24 40 vhcurveto
          -42 69 -132 -16 -16 7 -35 14 -61 -9 -41 9 rrcurveto
          -12 hlineto
          -39 -25 -10 -74 -51 1 -120 12 -4 hvcurveto
          -3 -11 -2 -23 2 vvcurveto
          hintmask 01101111001001010010100101110000
          -49 6 -47 -50 vvcurveto
          -1 -4 -1 -3 -5 -7 5 -3 -5 186 callgsubr
          -1 -1 vhcurveto
          -10 3 -61 5 -1 vhcurveto
          -3 -3 rlineto
          -88 vlineto
          -9 28 -6 3 vhcurveto
          114 15 rmoveto
          2 6 21 -6 24 36 rrcurveto
          -7 hlineto
          12 12 11 -6 4 vvcurveto
          -1 -1 10 -2 5 vhcurveto
          7 hlineto
          -3 5 -5 -4 vvcurveto
          -3 -10 -16 -9 -6 -9 rrcurveto
          hintmask 10101111001001011000100101110000
          -12 -4 -12 -12 -7 hhcurveto
          -9 -5 1 3 -10 hvcurveto
          140 64 rmoveto
          -2 -3 -4 -3 -4 -2 rrcurveto
          -3 2 3 -2 2 hhcurveto
          2 2 6 3 2 hvcurveto
          -2 3 -2 0 4 23 19 8 13 vhcurveto
          7 56 53 -1 7 vhcurveto
          21 17 20 16 22 16 rrcurveto
          -2 1 -6 -1 vvcurveto
          -8 -2 -7 -10 -4 vhcurveto
          -5 3 -12 -3 -17 -19 -10 -5 rlinecurve
          1 37 17 6 hhcurveto
          -6 vlineto
          -1 -15 -10 -5 -4 vhcurveto
          hintmask 10010111001001011000100101110000
          -24 -17 -41 -41 -26 -10 rrcurveto
          29 17 28 29 hhcurveto
          -4 -9 -55 -51 -7 hhcurveto
          -1 -3 -4 callsubr
          8 8 rlineto
          -18 2 -18 -6 -13 hvcurveto
          -22 callsubr
          8 8 rlineto
          -9 -30 -26 -6 hvcurveto
          19 8 rlineto
          -18 -11 -22 -3 -22 -18 -12 1 -17 hhcurveto
          11 7 3 19 10 10 rrcurveto
          hintmask 10101111001001010100100101110000
          21 20 20 10 32 hhcurveto
          -250 -57 rmoveto
          12 56 37 8 7 hvcurveto
          -3 -9 -21 -13 -5 hhcurveto
          -40 -19 -4 3 7 11 7 -2 10 12 rlinecurve
          6 4 -6 22 12 hhcurveto
          1 2 226 callgsubr
          -4 -5 0 -4 -5 7 callsubr
          17 1 30 15 16 hhcurveto
          hintmask 10010111001001011000010101110000
          -4 4 9 -1 7 hhcurveto
          10 hlineto
          -1 -25 -19 -5 -7 vhcurveto
          -13 -15 -20 -5 -19 vvcurveto
          31 32 12 20 25 hvcurveto
          -37 -9 -47 -5 -29 hhcurveto
          -16 -33 3 5 hvcurveto
          hintmask 10101111001001010010100101110000
          336 57 rmoveto
          11 16 rlineto
          19 29 21 15 11 hvcurveto
          -12 callsubr
          -48 -61 -23 -31 -20 vhcurveto
          -10 -16 -20 -7 -20 hhcurveto
          10 62 51 10 vhcurveto
          -347 -26 rmoveto
          3 0 2 -4 1 vhcurveto
          6 10 12 7 12 hhcurveto
          hintmask 10101111001001010100100101110000
          -41 callgsubr
          -12 -13 -15 -12 -13 -11 rrcurveto
          hintmask 10101111001001010010100101110000
          4 5 0 4 5 vvcurveto
          142 38 rmoveto
          5 24 -5 -3 7 hvcurveto
          -18 -25 -38 -22 -30 hhcurveto
          3 54 44 3 1 vhcurveto
          107 -28 rmoveto
          -8 -8 rlineto
          8 0 5 3 hvcurveto
          -166 72 rmoveto
          8 -16 -21 -14 -29 -18 -25 -8 rlinecurve
          15 27 32 8 20 21 rrcurveto
          -83 -36 rmoveto
          7 53 21 3 vhcurveto
          -9 -15 -31 -6 -12 -15 rrcurveto
          168 11 rmoveto
          -10 hlineto
          -6 2 -25 8 -5 3 rrcurveto
          -22 7 -2 70 35 vvcurveto
          31 1 1 9 vhcurveto
          5 5 -1 4 hhcurveto
          6 5 2 8 2 hvcurveto
          11 -1 rlineto
          8 30 1 16 hhcurveto
          59 40 -15 -60 21 hvcurveto
          hintmask 10010111001001010010100101110000
          -69 -55 -30 -62 vhcurveto
          -12 -11 8 -12 hhcurveto
          -172 48 rmoveto
          15 2 17 8 11 6 rrcurveto
          -4 vlineto
          -39 -40 rlineto
          -4 hlineto
          67 44 rmoveto
          2 -1 2 -7 -3 vvcurveto
          -5 -40 -28 -11 vhcurveto
          -4 hlineto
          hintmask 10101111001001010001010101110000
          12 15 31 7 12 -27 callgsubr
          2 1 2 8 3 vhcurveto
          316 -20 rmoveto
          10 28 16 12 1 hvcurveto
          4 -5 1 -2 -5 vvcurveto
          -7 -21 -11 -15 -6 vhcurveto
          -4 -8 -4 5 rlineto
          -7 -4 -2 -2 -6 hhcurveto
          126 callgsubr
          -296 98 rmoveto
          -32 vlineto
          -4 -7 -29 -27 -31 hhcurveto
          12 14 8 1 16 13 12 9 7 15 12 11 rrcurveto
          348 -4 rmoveto
          -19 -24 -31 -2 -10 -29 rrcurveto
          127 callgsubr
          vhcurveto
          -7 6 -1 -3 4 vvcurveto
          25 33 27 34 vhcurveto
          -413 -39 rmoveto
          -6 hlineto
          hintmask 10101111001001010010100011110000
          10 0 13 5 vhcurveto
          4 -8 39 21 rlineto
          -9 vlineto
          -27 -27 rlineto
          -8 -1 -7 -6 -3 hvcurveto
          -3 1 -1 2 2 2 1 3 3 vvcurveto
          338 41 rmoveto
          6 55 20 9 vhcurveto
          -16 -18 -42 -29 -2 9 -6 6 8 vvcurveto
          -268 34 rmoveto
          1 -1 0 -5 0 vvcurveto
          -20 -60 -5 -4 -25 vhcurveto
          29 43 1 20 26 vhcurveto
          -14 4 rmoveto
          -13 -62 -35 1 vhcurveto
          -4 hlineto
          24 2 9 8 25 11 5 16 13 hhcurveto
          365 -12 rmoveto
          6 -3 1 -9 1 -4 rrcurveto
          -2 -2 1 -1 -14 -11 -13 -13 hhcurveto
          -1 25 19 10 10 vhcurveto
          -110 8 rmoveto
          11 6 61 20 12 hhcurveto
          -47 callsubr
          -18 -21 -25 -11 -16 -23 -12 10 1 7 -13 7 rrcurveto
          91 23 rmoveto
          3 -3 9 -10 0 vvcurveto
          -11 -57 -15 -6 vhcurveto
          14 13 27 11 10 15 rrcurveto
          -407 24 rmoveto
          -4 0 7 1 hvcurveto
          8 15 4 -3 17 10 -10 5 13 9 rlinecurve
          2 4 22 17 2 7 20 24 6 hhcurveto
          -12 2 1 -4 3 hhcurveto
          -10 -16 -19 3 -11 -14 rrcurveto
          8 14 10 1 10 hvcurveto
          -7 -5 -5 -8 -6 vvcurveto
          10 28 32 41 29 13 10 -5 13 16 32 24 6 hhcurveto
          1 11 -1 -2 7 hvcurveto
          -8 -8 -5 4 -7 -23 -33 -7 -15 -18 rlinecurve
          4 vlineto
          -14 -2 -17 -22 -8 vvcurveto
          11 4 -1 5 9 7 rrcurveto
          34 24 74 31 9 vvcurveto
          4 -2 4 -6 vhcurveto
          8 18 52 42 12 hhcurveto
          212 callsubr
          9 vlineto
          hintmask 10101111001001011000100101110000
          -2 -18 -2 -2 -7 hvcurveto
          212 callsubr
          -5 4 rlineto
          hintmask 10010111001001011000100101110000
          8 7 14 8 11 hhcurveto
          5 -5 0 -7 -8 vvcurveto
          -63 -41 -42 -51 -31 vhcurveto
          -9 -27 -8 -8 -1 vhcurveto
          1 -1 -6 3 -1 hhcurveto
          -3 -14 -10 -10 -7 hvcurveto
          24 19 20 24 hhcurveto
          2 182 callsubr
          -9 -13 -20 1 -7 -12 rrcurveto
          11 hlineto
          -4 -5 0 -4 vhcurveto
          -33 -40 4 -32 -2 -23 -8 -2 hhcurveto
          -6 -11 3 2 hvcurveto
          0 57 33 2 vvcurveto
          -1 -2 3 -2 -15 -10 -21 -7 hhcurveto
          -1 -1 0 2 -1 hvcurveto
          -5 -20 -4 -15 -24 hhcurveto
          10 12 92 62 2 vvcurveto
          -3 -8 3 -4 hhcurveto
          -5 -1 -38 -26 -1 -5 -3 5 rcurveline
          -17 -16 -3 3 -4 -7 rlineto
          4 -1 -4 0 -3 hhcurveto
          -7 -2 -7 -5 -3 hvcurveto
          3 4 4 2 5 hhcurveto
          -15 -72 -58 -16 vhcurveto
          276 37 rmoveto
          4 66 31 14 vhcurveto
          hintmask 10101111001001010001010101110000
          -14 -40 -12 -8 -22 vhcurveto
          8 -8 -12 5 -12 hhcurveto
          97 28 rmoveto
          3 7 -7 -2 hvcurveto
          -8 -8 rlineto
          8 vlineto
          -9 -15 -21 -9 -17 -3 12 14 20 21 13 1 rrcurveto
          -365 -21 rmoveto
          4 -4 17 17 36 24 3 15 rlinecurve
          -17 -32 -41 -11 -11 hvcurveto
          63 28 rmoveto
          -7 -7 -2 -8 hvcurveto
          6 8 2 8 hvcurveto
          269 8 rmoveto
          -8 -5 -14 0 -5 -1 13 8 7 hhcurveto
          -107 27 rmoveto
          -11 -12 -14 -7 -10 -12 rrcurveto
          15 14 12 12 10 hvcurveto
          -3 1 -1 2 4 vvcurveto
          56 -3 rmoveto
          -10 -3 -13 -11 -1 -10 rrcurveto
          10 3 14 6 15 vvcurveto
          -284 -5 rmoveto
          3 -5 5 3 vvcurveto
          10 19 7 10 vhcurveto
          39 20 rlineto
          5 hlineto
          -11 -10 -52 -50 -11 hhcurveto
          7 0 5 5 1 vhcurveto
          237 -3 rmoveto
          hintmask 10101111001001010001010011110000
          8 56 20 11 1 0 3 0 hvcurveto
          -34 -17 rlineto
          -1 1 -1 2 1 5 9 6 6 vvcurveto
          0 -4 -1 -5 -11 vhcurveto
          -5 4 -3 -8 2 -10 -10 -2 rlinecurve
          2 1 11 3 3 vhcurveto
          -18 9 -19 -8 -7 hvcurveto
          87 35 rmoveto
          -6 -10 -26 0 -13 vvcurveto
          -1 126 callgsubr
          9 8 30 8 15 vvcurveto
          6 -9 0 -3 -6 -6 0 -9 vhcurveto
          -308 32 rmoveto
          18 7 28 11 17 13 rrcurveto
          -9 -34 -25 -2 vvcurveto
          -10 -3 -17 -19 -6 -5 rrcurveto
          1 -1 6 3 vvcurveto
          8 0 6 5 8 vhcurveto
          79 27 rmoveto
          hintmask 10101111001001011000001001110000
          -1 1 -7 -2 vvcurveto
          -22 -41 -17 -22 -8 vhcurveto
          12 20 42 32 8 5 rrcurveto
          209 -52 rmoveto
          -4 vlineto
          12 1 15 15 hhcurveto
          10 vlineto
          -12 -18 -9 -9 -1 hhcurveto
          -144 21 rmoveto
          -8 -1 -15 -9 -8 hhcurveto
          -1 89 callgsubr
          6 15 9 7 147 callsubr
          180 15 rmoveto
          -19 vlineto
          15 5 15 9 9 13 rrcurveto
          3 -1 -10 5 -2 -10 -5 -23 -5 hhcurveto
          -1 -1 3 4 -4 hvcurveto
          -217 hmoveto
          2 5 3 1 7 -10 1 8 vvcurveto
          16 9 50 4 vhcurveto
          28 hlineto
          hintmask 10101111000000111000100101110000
          2 1 2 1 2 hhcurveto
          212 callsubr
          3 5 -4 3 9 9 9 8 hhcurveto
          12 63 -34 -8 -38 -28 5 -11 -24 hvcurveto
          1 -3 2 0 vhcurveto
          -14 -14 -8 -14 -18 -12 17 -20 hhcurveto
          -12 4 -13 -4 -7 hvcurveto
          27 callgsubr
          5 2 vvcurveto
          209 -2 rmoveto
          -3 -4 -2 -4 -1 hvcurveto
          8 hlineto
          -56 10 rmoveto
          7 26 7 2 3 5 -6 -2 vhcurveto
          -6 -9 -18 -6 -1 hhcurveto
          -3 -5 2 4 hvcurveto
          -213 54 rmoveto
          hintmask 10101111001001011000100101110000
          -4 vlineto
          -12 -57 -42 2 2 vhcurveto
          32 vlineto
          212 callsubr
          5 39 7 16 12 vhcurveto
          36 11 rmoveto
          hintmask 10101110100011011000100101110000
          -10 -1 -5 -29 -17 -16 -10 -23 -26 hhcurveto
          5 5 43 39 27 18 rrcurveto
          233 -39 rmoveto
          5 3 8 4 7 hhcurveto
          -3 -9 -10 -5 vhcurveto
          212 callsubr
          -22 32 rmoveto
          1 -2 0 -1 -2 vvcurveto
          -6 -5 -5 -7 vhcurveto
          8 3 5 8 3 vhcurveto
          hintmask 10101111001001010010100101110000
          -302 -4 rmoveto
          8 hlineto
          -4 -1 -4 -1 -3 hhcurveto
          hintmask 10101111000101010100100101110000
          44 33 rmoveto
          4 -5 3 8 5 -3 rlineto
          7 5 18 13 10 hhcurveto
          hintmask 10101110101001011000100101110000
          -26 -52 -19 -17 -3 vhcurveto
          -1 -1 -6 -3 -1 hhcurveto
          hintmask 10101110100101010100100101110000
          5 19 26 -5 1 18 rrcurveto
          316 hmoveto
          -14 -18 -23 -1 -15 -13 rrcurveto
          20 40 12 12 vhcurveto
          -366 47 rmoveto
          -10 hlineto
          4 5 13 6 3 1 rrcurveto
          4 -1 -6 0 -5 hhcurveto
          2 1 10 9 2 1 -2 5 2 vvcurveto
          -4 hlineto
          -3 3 -4 -3 vvcurveto
          40 callsubr
          -7 vhcurveto
          24 vlineto
          hintmask 10101110010000111000100101110000
          4 -3 rlineto
          2 -1 6 7 vvcurveto
          11 2 13 7 3 vhcurveto
          -3 4 -5 4 vhcurveto
          99 hlineto
          20 -3 rlineto
          -2 -2 -19 -20 -4 vvcurveto
          0 17 10 4 8 vhcurveto
          3 -4 6 3 10 7 4 2 rlinecurve
          2 19 -6 -5 hvcurveto
          -10 -29 -11 -8 hvcurveto
          1 2 -40 callgsubr
          1 20 8 3 4 hvcurveto
          -8 vlineto
          -21 -13 -6 -1 -8 -21 -5 4 rcurveline
          -5 -4 -4 -1 -1 -5 2 3 vhcurveto
          -4 -6 -36 -27 1 vvcurveto
          -26 -18 -27 -14 -26 -19 rrcurveto
          1 6 0 6 5 18 -3 17 19 vvcurveto
          303 -63 rmoveto
          25 21 33 17 8 5 rrcurveto
          1 -1 3 -9 -2 vvcurveto
          -4 -4 0 -3 vhcurveto
          -5 hlineto
          -83 -8 rmoveto
          8 5 55 24 16 hhcurveto
          hintmask 10101111001001010100001001110000
          -3 -52 -36 -12 -4 vhcurveto
          6 -9 2 -3 3 vhcurveto
          -35 20 rmoveto
          9 3 7 8 8 vvcurveto
          2 1 -8 3 hhcurveto
          9 20 17 16 24 hhcurveto
          -4 vlineto
          -3 -9 -23 -26 -9 hhcurveto
          -8 -4 -17 -1 -10 hvcurveto
          -7 3 -11 10 -2 2 rrcurveto
          -197 32 rmoveto
          -17 -25 5 -3 -20 vhcurveto
          8 -4 rlineto
          3 16 25 -8 15 vvcurveto
          -8 -3 rlineto
          3 2 5 2 3 vhcurveto
          2 -4 -23 callgsubr
          312 12 rmoveto
          -5 0 -9 3 -3 vhcurveto
          -3 -12 -33 -20 -13 hhcurveto
          14 16 37 26 2 hhcurveto
          -241 -32 rmoveto
          16 22 69 40 31 hhcurveto
          -12 -10 -21 -3 -11 -11 rrcurveto
          -27 -27 12 -9 -57 hhcurveto
          -3 -2 0 4 -1 hvcurveto
          83 4 rmoveto
          10 14 45 4 18 vvcurveto
          -16 -5 -18 -7 -13 -8 12 15 28 9 7 19 rrcurveto
          -40 hlineto
          -11 -7 -38 -12 -4 hhcurveto
          7 17 22 15 hvcurveto
          37 48 -3 -15 31 hvcurveto
          -9 -3 -12 -3 -10 -2 rrcurveto
          -8 vlineto
          8 5 rlineto
          -3 1 1 0 2 hhcurveto
          3 3 2 1 1 hvcurveto
          -5 vlineto
          hintmask 10101111001001010001010101110000
          -15 -11 -6 -1 -3 -19 -3 12 rcurveline
          -6 -8 -17 -18 -8 -2 rrcurveto
          -8 -14 8 -14 hhcurveto
          -122 20 rmoveto
          -13 -12 rlineto
          10 9 10 6 5 hvcurveto
          -11 -8 rlineto
          216 15 rmoveto
          7 10 19 -5 2 16 rrcurveto
          3 -7 15 -8 -1 vvcurveto
          -3 -1 -3 -2 -2 hvcurveto
          -16 -3 -4 3 -6 -11 -22 -7 -8 -2 rlinecurve
          2 9 9 8 5 3 rrcurveto
          -229 -3 rmoveto
          -4 vlineto
          8 4 rlineto
          hintmask 10101111001001010100100101110000
          -23 19 rmoveto
          -21 -11 -7 2 -7 vvcurveto
          11 11 6 10 6 hvcurveto
          71 -3 rmoveto
          -7 -3 -5 -5 -4 -5 16 8 rcurveline
          -12 20 rmoveto
          -7 -11 -15 -2 -9 -10 rrcurveto
          0 2 -1 1 2 26 13 4 vhcurveto
          -83 11 rmoveto
          -6 6 -3 0 9 9 12 9 vhcurveto
          -22 callsubr
          -6 -8 -10 -3 -7 hvcurveto
          59 4 rmoveto
          -8 vlineto
          4 2 6 2 2 4 4 -4 rcurveline
          7 3 1 4 8 vvcurveto
          -28 hmoveto
          -16 -7 rlineto
          1 3 -65 callgsubr
          5 3 2 6 3 hvcurveto
          36 hmoveto
          -7 vlineto
          8 7 rlineto
          -62 1 rmoveto
          -1 -1 -3 -1 -2 -2 rrcurveto
          3 3 0 4 hvcurveto
          endchar
        </CharString>
        <CharString name="C">
          5 -12 37 -19 -21 25 -21 63 79 -24 24 335 -20 21 -24 callsubr
          24 -20 33 -20 33 -20 24 -20 48 20 0 89 -23 23 hstemhm
          23 23 123 27 316 22 hintmask 100100000100101111000000
          111 433 rmoveto
          2 -2 -7 3 -1 hhcurveto
          -5 -4 -9 -7 -1 hvcurveto
          7 2 7 6 6 3 rrcurveto
          210 -428 rmoveto
          -6 41 48 -11 43 hhcurveto
          hintmask 001100000100101111000000
          19 13 1 12 hhcurveto
          hintmask 010100000100101111000000
          12 10 -1 -3 12 hvcurveto
          2 3 1 6 8 45 -11 25 50 vvcurveto
          11 0 11 1 10 vhcurveto
          5 -2 -2 0 -3 -11 -53 -28 -35 -54 -41 -8 -35 hhcurveto
          -16 -76 20 27 hvcurveto
          9 -23 16 10 20 -17 27 18 vvcurveto
          42 23 81 18 46 vhcurveto
          50 19 114 41 66 hhcurveto
          32 33 0 -16 27 hvcurveto
          -4 6 20 -25 6 hhcurveto
          hintmask 100100100010010111000000
          8 4 5 8 hvcurveto
          -4 39 rlineto
          -1 8 0 7 7 31 1 6 1 vvcurveto
          39 -9 -51 0 -28 -32 -35 3 -36 hhcurveto
          -167 -100 -137 -124 -41 hvcurveto
          -3 -8 -3 -8 -17 vvcurveto
          -19 3 -33 5 -12 vhcurveto
          43 -111 2 -2 29 -59 6 -6 rlinecurve
          59 -59 16 -19 135 -20 rrcurveto
          144 19 rmoveto
          -2 -6 1 -2 -17 -9 -14 -17 hhcurveto
          5 23 16 6 vhcurveto
          67 36 rlineto
          -3 -39 -58 -18 -4 -7 2 3 5 20 -1 5 8 vhcurveto
          20 -3 rmoveto
          23 31 rlineto
          3 -5 1 -2 -6 vvcurveto
          -11 vlineto
          1 -2 3 -12 -2 vvcurveto
          127 callgsubr
          vhcurveto
          -32 hlineto
          3 4 2 4 5 vvcurveto
          -139 8 rmoveto
          0 -6 -1 -2 vhcurveto
          -42 7 rlineto
          8 callsubr
          -1 hhcurveto
          -1 -5 -3 -1 -2 hvcurveto
          5 vlineto
          -16 -31 8 7 -16 hvcurveto
          26 6 72 25 21 hhcurveto
          -22 -20 -17 -17 -12 -14 rrcurveto
          hintmask 100010000100101111000000
          39 21 55 58 hhcurveto
          -16 -6 -16 -17 -11 -13 3 -3 rcurveline
          -10 -6 -10 -9 -7 -9 rrcurveto
          -3 2 5 -40 callgsubr
          8 13 10 10 1 hvcurveto
          -7 hlineto
          38 35 25 25 54 hhcurveto
          1 -1 3 -2 -1 vvcurveto
          -15 -5 -13 -7 -15 -4 3 -8 rcurveline
          10 6 11 4 11 2 -8 -10 -22 -14 -5 -4 3 -8 rcurveline
          8 10 36 16 4 10 rrcurveto
          0 -1 4 5 vvcurveto
          5 1 5 4 1 vhcurveto
          -8 hlineto
          1 24 7 20 vhcurveto
          -21 -5 -16 -22 vvcurveto
          -17 -26 -12 -3 -3 hhcurveto
          -4 -16 -19 -5 -17 hvcurveto
          1 -4 3 -1 vhcurveto
          8 12 rlineto
          -5 -41 -27 -3 -1 hvcurveto
          -11 -2 7 8 rlineto
          -3 -1 -12 -5 -2 hhcurveto
          -6 -11 5 3 hvcurveto
          25 12 rmoveto
          -5 vlineto
          0 2 0 1 1 vhcurveto
          4 2 17 11 3 3 rrcurveto
          -6 -1 -21 -7 -4 vvcurveto
          3 12 rmoveto
          -4 -2 -5 -2 -2 -4 rrcurveto
          5 5 4 4 1 hvcurveto
          114 51 rmoveto
          -7 -15 -23 -19 -13 -10 rrcurveto
          12 41 36 17 hvcurveto
          -13 -17 -9 -12 -7 hvcurveto
          -284 hmoveto
          -3 5 1 -2 2 hhcurveto
          4 7 8 21 48 hvcurveto
          -8 -11 -8 -9 -8 -8 rrcurveto
          -1 -6 3 -2 hhcurveto
          -2 33 callsubr
          -10 -7 -3 -8 -9 -12 7 8 1 0 2 1 1 vhcurveto
          70 10 rmoveto
          -11 hlineto
          2 13 10 3 hhcurveto
          12 15 -4 -1 3 hvcurveto
          -2 -2 -51 -21 -11 -8 3 12 15 9 9 5 rrcurveto
          152 -4 rmoveto
          -9 -4 -8 -9 hvcurveto
          5 3 8 6 8 vvcurveto
          -285 48 rmoveto
          8 50 16 5 1 vhcurveto
          -9 -22 -26 -6 -12 vhcurveto
          8 11 15 19 16 hhcurveto
          0 6 0 -3 vvcurveto
          -10 -15 -24 1 -10 -14 rrcurveto
          90 callgsubr
          17 18 21 16 hhcurveto
          -5 vlineto
          -11 -13 -10 -19 -14 -12 rrcurveto
          -14 18 -37 12 28 vvcurveto
          234 -34 rmoveto
          1 5 -4 callsubr
          -42 -24 rlineto
          13 25 11 11 vhcurveto
          -140 16 rmoveto
          -3 1 1 -40 callgsubr
          2 4 2 2 2 hvcurveto
          4 5 -5 -1 hvcurveto
          -5 -9 -25 -7 -7 -2 rrcurveto
          10 14 3 2 11 vhcurveto
          -67 59 rmoveto
          -7 -10 -24 -13 -1 hhcurveto
          -8 -1 16 4 -3 hvcurveto
          6 4 29 7 4 9 rrcurveto
          -4 vlineto
          1 2 8 3 2 hhcurveto
          2 167 callsubr
          -8 -8 rlineto
          2 2 3 0 1 hhcurveto
          7 3 -9 -5 -6 -30 -14 -8 hvcurveto
          221 callgsubr
          8 5 16 8 10 vvcurveto
          -91 127 rmoveto
          -8 -5 rlineto
          2 3 3 14 3 3 -1 20 14 vvcurveto
          57 52 32 16 44 vhcurveto
          -3 1 7 -6 1 hhcurveto
          hintmask 100100100010101111000000
          8 16 13 1 hhcurveto
          1 4 -5 -3 hvcurveto
          11 3 52 32 4 vvcurveto
          4 -5 0 -3 vhcurveto
          -8 -6 -9 -6 -22 callsubr
          -55 -27 rlineto
          hintmask 100100100001101111000000
          3 -3 -3 -11 callgsubr
          17 29 26 11 vhcurveto
          63 32 rlineto
          -7 -2 -5 -10 -5 218 callgsubr
          -1 hvcurveto
          -31 -20 rlineto
          -7 vlineto
          16 12 0 19 3 hvcurveto
          2 -1 3 -2 -5 vvcurveto
          78 36 rlineto
          -12 callgsubr
          6 10 10 2 5 hvcurveto
          -24 -27 rlineto
          -4 vlineto
          -3 0 -4 -3 -1 vhcurveto
          -5 4 -9 -12 -19 -4 -8 -12 rlinecurve
          2 2 -5 2 2 3 5 2 hhcurveto
          10 6 29 8 7 vvcurveto
          2 1 -19 callgsubr
          2 19 callsubr
          vhcurveto
          7 3 4 1 7 hhcurveto
          6 3 0 -8 hvcurveto
          33 12 39 20 31 15 rrcurveto
          1 4 2 1 1 hhcurveto
          1 1 -1 -1 3 hvcurveto
          -5 -33 -23 -2 vhcurveto
          -8 -11 -5 -11 -12 hhcurveto
          -48 -87 -42 -7 -7 hvcurveto
          -15 -8 -63 0 -1 -23 8 4 rcurveline
          0 1 -3 -1 -10 -14 7 -8 vvcurveto
          -1 126 callgsubr
          28 2 -20 20 16 6 rrcurveto
          -15 vlineto
          hintmask 100101000010101111000000
          4 2 -40 callgsubr
          2 2 1 3 4 hvcurveto
          -12 -13 -14 -55 -18 hhcurveto
          -2 -4 3 1 -1 hvcurveto
          -51 -23 rlineto
          -8 2 -1 6 1 3 1 0 vhcurveto
          35 19 rlineto
          -15 -59 -25 -12 -15 vhcurveto
          37 7 16 39 38 9 rrcurveto
          -6 -9 -41 -9 -18 -22 -12 -4 -17 vhcurveto
          -8 vlineto
          11 14 28 1 10 hhcurveto
          -12 -14 -28 -11 -15 vvcurveto
          34 16 -7 11 20 13 rrcurveto
          -17 -4 -1 -17 -18 hhcurveto
          -9 16 -36 vlineto
          -4 -4 -10 -1 -7 -3 rrcurveto
          -4 10 0 0 1 2 1 3 8 vhcurveto
          -17 vlineto
          9 0 -11 -9 -2 -31 -6 -14 -6 hvcurveto
          8 12 rlineto
          -9 -6 -8 -4 -5 hvcurveto
          -5 2 -31 67 8 2 187 callsubr
          27 -40 rmoveto
          -3 1 -5 4 vhcurveto
          1 1 1 1 hhcurveto
          3 17 7 8 hvcurveto
          -4 -4 -3 -1 -5 hhcurveto
          -8 callgsubr
          hvcurveto
          31 32 rlineto
          -11 -2 -32 -28 -6 vvcurveto
          -12 35 rmoveto
          -7 vlineto
          10 2 23 6 12 vvcurveto
          -11 -10 -13 -12 hhcurveto
          -8 52 rmoveto
          4 -2 1 -3 -4 vvcurveto
          6 6 2 7 hvcurveto
          1 48 rmoveto
          -6 -12 -14 -6 -5 hvcurveto
          4 18 9 6 7 hvcurveto
          -4 36 rmoveto
          -5 vlineto
          4 43 24 1 8 callsubr
          -1 hhcurveto
          -15 -14 -14 -6 -14 hvcurveto
          28 hmoveto
          7 -4 rlineto
          14 9 41 14 20 vvcurveto
          -24 -9 -27 -12 -29 hvcurveto
          hintmask 100100001010101111000000
          35 65 rmoveto
          -5 -36 -9 -8 hvcurveto
          hintmask 100100010010101111000000
          14 14 13 13 hhcurveto
          hintmask 100100001010101111000000
          312 77 rmoveto
          4 1 9 5 vhcurveto
          2 3 -8 2 hhcurveto
          17 1 15 4 16 hvcurveto
          -17 5 -15 -17 vvcurveto
          -1 -29 18 7 -22 hvcurveto
          -249 44 rmoveto
          6 23 29 17 12 hhcurveto
          -4 vlineto
          -123 -63 rlineto
          5 vlineto
          5 12 47 14 7 13 rrcurveto
          261 -12 rmoveto
          6 3 3 2 5 1 3 -65 callgsubr
          -12 -13 -16 -8 -12 -13 rrcurveto
          -44 hlineto
          8 42 8 26 11 vhcurveto
          -201 23 rmoveto
          4 -8 3 4 27 14 1 10 rlinecurve
          10 -1 16 -2 9 -5 -4 -3 -8 0 -3 -4 -87 -44 rcurveline
          -8 hlineto
          2 20 33 -4 5 23 rrcurveto
          67 -3 rmoveto
          3 -5 rlineto
          9 8 7 7 13 vvcurveto
          -4 15 10 0 15 14 13 4 15 hhcurveto
          1 12 0 -4 4 hvcurveto
          -3 -9 -16 -17 -11 hhcurveto
          -1 -2 0 1 -1 hvcurveto
          -47 -24 rlineto
          2 2 9 14 1 2 6 -3 1 hhcurveto
          13 4 -1 14 7 vhcurveto
          6 -10 1 0 vhcurveto
          -9 0 -15 -5 hhcurveto
          -4 -6 2 0 hvcurveto
          -15 vlineto
          -8 8 rlineto
          -11 -9 -42 -20 -13 hhcurveto
          10 13 21 5 5 18 rrcurveto
          28 -16 rmoveto
          -9 -8 -11 -12 -12 hhcurveto
          20 21 -8 10 9 vhcurveto
          138 3 rmoveto
          -11 vlineto
          -3 -1 -23 -10 -4 hhcurveto
          4 21 20 7 vhcurveto
          -32 24 rmoveto
          3 callgsubr
          2 2 11 2 2 hhcurveto
          2 17 -13 -3 2 hvcurveto
          -3 -4 -11 0 -1 hhcurveto
          -52 -24 rlineto
          13 25 9 11 13 vhcurveto
          endchar
        </CharString>
        <CharString name="CR">
          -122 endchar
        </CharString>
        <CharString name="Ccedilla">
          5 175 0 67 203 endchar
        </CharString>
        <CharString name="D">
          103 -13 92 -75 87 0 20 0 44 0 138 0 240 -124 85 -33 -20 25 -20 24 -20 23 -20 22 -20 23 34 -23 -24 callsubr
          23 -20 24 -24 callsubr
          24 -20 23 -20 27 36 -3 71 -53 34 hstemhm
          640 -20 hstemhm
          63 31 -15 95 -72 72 -41 41 -20 20 -20 24 196 60 43 24 -24 47 -31 70 -46 118 -46 46 -32 32 hintmask 1010100001001000000001011010001100010000
          134 -13 rmoveto
          13 hlineto
          109 84 0 49 97 hvcurveto
          8 hlineto
          5 78 46 1 hvcurveto
          61 49 46 97 79 vvcurveto
          46 -15 30 -4 42 vhcurveto
          15 -6 -24 71 -22 hhcurveto
          -13 3 -4 22 -14 4 -44 43 rcurveline
          19 -20 -97 13 -18 hhcurveto
          -2 -1 -4 callsubr
          -64 hlineto
          2 -1 129 callgsubr
          -1 -2 -1 -2 -1 hvcurveto
          8 -66 -1 -9 1 vhcurveto
          0 -14 8 -1 vhcurveto
          -1 -13 -4 -2 hhcurveto
          -2 -23 7 1 -2 hvcurveto
          -12 hlineto
          1 -5 -22 3 -5 hhcurveto
          -20 -1 -9 -7 -10 -12 4 -31 rcurveline
          -24 -4 -20 -22 vvcurveto
          hintmask 1010101000000000000001010100001100100000
          -73 16 -75 -73 vvcurveto
          -15 -1 -13 -4 -17 vhcurveto
          2 3 -3 -2 hvcurveto
          -22 -8 -28 -24 -22 3 -22 -23 -5 -3 -35 -4 -7 5 -18 -11 vvcurveto
          -7 -2 -4 -4 vhcurveto
          16 -23 5 -6 6 -2 rrcurveto
          143 callgsubr
          5 23 rmoveto
          2 9 27 13 2 vvcurveto
          0 0 -1 3 -3 vhcurveto
          3 2 1 0 1 1 185 callgsubr
          -10 -7 -3 -10 hhcurveto
          11 8 2 8 11 8 rrcurveto
          9 5 14 3 15 vvcurveto
          5 -4 rlineto
          14 7 33 2 15 hhcurveto
          5 3 -4 callsubr
          -12 -14 -18 -11 -10 -15 rrcurveto
          11 1 2 11 7 vhcurveto
          -29 -5 15 -12 -10 -11 rrcurveto
          hintmask 1010101000000000000001011001001100100000
          -7 -7 -33 -15 -7 vvcurveto
          -5 5 -1 4 vhcurveto
          hintmask 1010101000000000000001011000011100100000
          5 7 0 8 hvcurveto
          -5 4 22 8 54 41 15 18 rlinecurve
          88 hlineto
          -15 -18 -24 -36 -25 vvcurveto
          hintmask 0101001000000000000001011010001001010000
          -44 -44 -8 -44 hhcurveto
          -19 -19 1 7 -17 hvcurveto
          162 57 rmoveto
          -7 -33 -47 -4 -1 0 -5 1 hvcurveto
          0 83 49 14 vvcurveto
          -17 -5 -32 -31 -3 -3 rrcurveto
          21 34 10 2 8 vhcurveto
          -5 8 -8 -12 -5 6 -10 -14 rlinecurve
          119 12 rmoveto
          2 -2 42 30 3 4 27 27 20 27 16 13 rrcurveto
          -11 -8 -1 -7 vvcurveto
          20 25 23 18 180 callsubr
          -7 -4 -47 -33 -9 vvcurveto
          22 10 30 14 hhcurveto
          10 3 18 15 6 vvcurveto
          7 vlineto
          -24 -16 -5 -10 -23 hvcurveto
          8 vlineto
          4 3 -25 -4 -3 -18 -24 -1 rlinecurve
          20 37 20 15 vhcurveto
          43 19 rlineto
          12 9 13 12 hhcurveto
          -16 -70 -25 -6 vvcurveto
          hintmask 1010100001000000000101011000011100001000
          3 82 21 2 14 vhcurveto
          -4 -9 -25 -41 -6 -9 -31 -62 -16 -12 -95 -45 rrcurveto
          5 vlineto
          -29 -49 -27 -12 -44 hhcurveto
          18 62 35 15 11 vhcurveto
          -202 -43 rmoveto
          -6 -6 -2 -2 -4 vvcurveto
          7 2 3 5 hvcurveto
          -19 callsubr
          28 7 rmoveto
          -5 -11 -2 -9 hvcurveto
          36 24 rmoveto
          -6 -3 -7 -6 146 callgsubr
          6 3 6 3 7 vvcurveto
          223 94 rmoveto
          -10 -8 -14 -26 -16 218 callgsubr
          -1 hvcurveto
          -32 -32 -25 -5 -16 -32 -25 -3 rlinecurve
          15 12 -1 21 13 11 21 18 30 6 24 12 rrcurveto
          6 12 8 21 18 hhcurveto
          -358 -89 rmoveto
          18 45 4 7 vhcurveto
          -5 -5 -36 -31 -5 hhcurveto
          -4 -1 10 4 -1 hvcurveto
          304 3 rmoveto
          7 -4 -6 -5 7 -4 rrcurveto
          10 13 50 35 12 vvcurveto
          -18 callgsubr
          -32 -16 1 -12 0 vvcurveto
          3 callgsubr
          -9 -17 -19 -11 -2 -1 0 23 callsubr
          -252 51 rmoveto
          3 -4 rlineto
          10 13 19 -14 30 62 -13 62 63 vvcurveto
          hintmask 1010100001000000000101011000101100100000
          16 9 42 104 vvcurveto
          176 callsubr
          4 -1 2 7 vvcurveto
          hintmask 1010010000000000000001011010001100100000
          14 16 21 15 12 9 -10 -2 12 vhcurveto
          23 -2 37 -7 23 -3 rrcurveto
          hintmask 1010100001001000000001011000101010010000
          -7 18 28 -24 17 hhcurveto
          23 -10 -2 4 14 -13 3 -8 17 -31 4 -5 rrcurveto
          -4 23 -69 3 vhcurveto
          -24 9 -21 -23 vvcurveto
          -77 -67 -86 -82 vhcurveto
          -143 hlineto
          -30 -6 -32 -35 hhcurveto
          10 12 15 5 7 15 rrcurveto
          -8 4 rmoveto
          -13 -2 -30 -22 -12 hhcurveto
          16 28 16 16 3 vhcurveto
          8 39 rmoveto
          8 -3 0 -5 vhcurveto
          -16 -13 -8 -15 hhcurveto
          19 13 -2 15 35 12 rrcurveto
          7 -16 1 -9 -14 vvcurveto
          -32 -26 -12 -18 vhcurveto
          7 5 29 25 13 vvcurveto
          342 -26 rmoveto
          -3 -13 -16 -3 hvcurveto
          hintmask 1010101000000000000001011010001001010000
          8 6 3 7 7 hvcurveto
          -4 1 -1 4 4 vvcurveto
          -394 17 rmoveto
          11 16 3 6 9 hvcurveto
          -17 -19 -17 -17 -5 vhcurveto
          375 20 rmoveto
          -4 -2 -4 -3 -3 -3 rrcurveto
          0 3 -1 0 5 3 2 7 vhcurveto
          -323 102 rmoveto
          -1 1 -9 -2 vvcurveto
          -20 -18 2 -7 -17 vhcurveto
          6 -1 -4 -25 callgsubr
          -1 -16 -6 -1 -4 hvcurveto
          14 15 30 13 8 19 rrcurveto
          -48 8 rmoveto
          12 8 21 24 3 11 8 -3 rcurveline
          -36 vlineto
          -7 -13 -2 -8 -3 2 -1 2 -2 hvcurveto
          -28 -28 rlineto
          407 36 rmoveto
          37 callgsubr
          143 callgsubr
          1 4 1 13 6 3 rrcurveto
          -16 vlineto
          3 4 60 32 rlineto
          -20 -19 -8 -12 -16 hvcurveto
          hintmask 1010101000000000000001011010001010010000
          -1 0 3 0 hvcurveto
          hintmask 1010101000000000000001011010001001010000
          21 39 -4 22 vvcurveto
          -16 -21 -35 -11 -3 -2 1 -1 hhcurveto
          143 callgsubr
          -4 -4 0 -5 -4 -4 rrcurveto
          9 -1 7 6 vvcurveto
          7 1 7 4 8 vhcurveto
          -1 2 2 0 2 hhcurveto
          13 18 12 9 6 hvcurveto
          0 -23 -7 -8 -5 vhcurveto
          23 47 -6 27 vvcurveto
          -18 -23 -31 -1 -18 -23 -10 41 -4 27 -18 40 rrcurveto
          hintmask 1010100100000010000001011010001010010000
          12 47 19 10 hvcurveto
          1 -39 -12 -7 hhcurveto
          -6 hlineto
          27 11 22 15 22 18 rrcurveto
          -17 -10 -18 -9 hhcurveto
          hintmask 1010100000100000010001011010001100100000
          -22 callsubr
          -6 -36 -19 -11 hvcurveto
          -2 -11 19 6 hvcurveto
          5 55 4 21 vvcurveto
          -9 -27 -7 -9 -8 hvcurveto
          hintmask 1010100010000001000001011010001001010000
          -3 4 11 14 13 -1 11 14 rlinecurve
          143 callgsubr
          1 -1 -6 0 -1 hhcurveto
          hintmask 1010100100001000000001011010001100100000
          -22 -12 -33 -9 hhcurveto
          hintmask 1010100000011000000001011010001100100000
          -7 -1 7 7 hvcurveto
          12 27 2 12 vvcurveto
          5 4 12 -6 10 vvcurveto
          -18 callgsubr
          hintmask 1010100001000001000001011010001100100000
          -12 -7 -11 2 -9 -15 rrcurveto
          176 callsubr
          2 -2 3 -2 vhcurveto
          hintmask 1010100100000100000001011010001100100000
          -6 -8 -9 -2 hhcurveto
          hintmask 1010100100000010000001011010001100100000
          -22 callsubr
          14 16 26 27 23 4 rrcurveto
          3 -10 5 0 -30 -31 -21 -11 -28 vhcurveto
          9 20 49 11 15 vvcurveto
          hintmask 1010101000000000000010111010001100100000
          -1 -7 4 -9 hhcurveto
          -14 -11 -9 -3 -1 1 -2 2 hvcurveto
          4 8 5 2 5 1 -65 callgsubr
          -6 -48 -17 -5 vvcurveto
          -4 3 -1 2 -2 vhcurveto
          -1 -4 -6 -1 -1 vhcurveto
          -1 11 -26 -11 -8 12 rrcurveto
          hintmask 1010010000000000000000111010001100001000
          24 12 rlineto
          8 vlineto
          -12 -1 -10 -5 -10 -6 rrcurveto
          4 16 19 16 5 vhcurveto
          -4 vlineto
          4 1 0 4 3 vvcurveto
          114 callgsubr
          -39 -24 rlineto
          -2 -2 -12 -6 vhcurveto
          10 vlineto
          -2 -9 -6 -1 -5 hhcurveto
          -6 -4 1 2 -6 hvcurveto
          3 20 65 1 10 vvcurveto
          4 vlineto
          -28 -21 -23 -27 hhcurveto
          12 14 31 18 13 8 rrcurveto
          -12 hlineto
          7 3 11 1 9 23 -6 -5 12 hhcurveto
          1 1 2 6 1 vvcurveto
          -7 2 9 -2 7 4 3 1 3 hhcurveto
          -4 -10 -28 8 -13 vvcurveto
          -6 2 -5 2 -5 vhcurveto
          11 8 29 17 11 hhcurveto
          -11 5 38 -11 12 hhcurveto
          -13 51 -31 4 -10 vhcurveto
          16 -17 24 -36 -1 vvcurveto
          -3 -3 -21 -8 0 vvcurveto
          -10 8 -12 vlineto
          5 3 19 12 5 hhcurveto
          -7 5 -4 -9 vvcurveto
          -8 -3 -28 -4 -13 vvcurveto
          7 7 5 2 3 -1 -10 5 7 5 10 8 hhcurveto
          -1 4 -13 -6 vvcurveto
          -2 -6 -5 -2 -2 vhcurveto
          -1 2 -2 4 vhcurveto
          -10 -17 -3 -8 vvcurveto
          24 13 rlineto
          1 -2 2 -8 -3 vvcurveto
          -4 -2 -19 -1 -4 vhcurveto
          4 -3 0 -10 -3 vvcurveto
          -11 -1 -21 -16 vhcurveto
          4 4 1 1 3 vvcurveto
          -8 -31 -37 -6 -21 hvcurveto
          4 -12 26 11 -15 0 13 8 rlinecurve
          7 6 12 2 8 5 -3 4 rcurveline
          2 5 9 2 5 1 rrcurveto
          -16 0 -15 -10 -9 vhcurveto
          12 vlineto
          -13 -30 -21 -1 hhcurveto
          -2 -4 -1 -17 -39 hvcurveto
          6 12 22 4 7 -19 callsubr
          -15 -6 -22 -12 -10 -14 rrcurveto
          12 3 16 13 8 vhcurveto
          -4 -31 rmoveto
          -5 -4 vlineto
          -383 36 rmoveto
          -6 -1 -5 -4 -1 -7 rrcurveto
          12 hlineto
          14 67 rmoveto
          -13 -22 -15 -8 -8 vhcurveto
          -1 2 0 8 3 vvcurveto
          14 16 9 15 vhcurveto
          -31 12 rmoveto
          18 31 31 6 6 vhcurveto
          4 -3 4 8 rlineto
          -20 vlineto
          -10 -4 -30 -17 -15 vvcurveto
          -2 3 -8 23 callsubr
          32 31 rlineto
          4 -19 hlineto
          -13 -14 -20 -13 hhcurveto
          -5 0 6 9 hvcurveto
          491 4 rmoveto
          -9 -1 -12 -3 -9 -76 callgsubr
          1 1 23 15 16 8 rrcurveto
          -8 4 hlineto
          -9 -2 -3 -4 -6 vvcurveto
          12 24 rmoveto
          -8 -16 -5 -7 -4 hvcurveto
          28 8 rlineto
          -95 3 rmoveto
          2 1 5 3 2 hhcurveto
          143 callgsubr
          1 3 -3 -2 hvcurveto
          10 6 2 23 11 7 rrcurveto
          -12 -2 -24 -16 -14 vvcurveto
          -1 165 callgsubr
          -403 44 rmoveto
          -4 5 4 0 5 hhcurveto
          8 10 2 10 hvcurveto
          -4 -8 -8 0 -9 hhcurveto
          15 25 8 8 12 vhcurveto
          4 -1 0 -4 -4 vvcurveto
          -4 vlineto
          -33 -31 -12 -13 -20 vhcurveto
          482 36 rmoveto
          -13 -10 -39 -5 -11 vvcurveto
          5 41 12 14 6 hvcurveto
          -23 15 rmoveto
          -9 0 -4 -6 0 0 -5 1 hvcurveto
          12 8 rlineto
          -4 0 3 4 hvcurveto
          -72 -8 rmoveto
          hintmask 1010100010001000000001011010001001010000
          -1 3 -6 1 vhcurveto
          4 9 -1 16 8 1 121 callgsubr
          -4 -7 0 -3 -2 vvcurveto
          8 16 32 3 3 hvcurveto
          -12 -5 -30 -13 -5 -17 rrcurveto
          -395 8 rmoveto
          4 32 rlineto
          3 1 1 -19 callgsubr
          -1 3 2 vvcurveto
          -5 hlineto
          5 -9 4 5 vvcurveto
          13 43 5 8 vhcurveto
          -9 -7 -7 -9 -4 -12 16 8 rcurveline
          hintmask 1010100000101000000001011000101100100000
          -2 1 -3 3 3 vvcurveto
          9 9 4 5 7 hvcurveto
          -31 -20 vlineto
          -4 -8 -4 3 rlineto
          hintmask 1010100001000000001001011010001100100000
          -6 -10 -18 8 -14 vvcurveto
          24 8 -28 -31 rlineto
          427 hmoveto
          23 hlineto
          4 23 -8 -7 -4 4 -3 -6 -6 -4 -6 -10 rlinecurve
          -419 95 rmoveto
          -3 -5 -9 -5 -4 -2 rrcurveto
          1 1 9 callgsubr
          hintmask 1010100001000000000101011010001100100000
          4 -2 5 -2 2 vhcurveto
          13 3 9 17 12 vvcurveto
          -11 -6 -12 -11 hhcurveto
          24 2 34 12 5 hhcurveto
          4 30 15 12 29 hvcurveto
          -24 callgsubr
          6 29 25 17 hhcurveto
          5 -3 rlineto
          -18 -18 -35 -11 -11 219 callgsubr
          -2 vhcurveto
          -16 -14 -20 -4 -14 hvcurveto
          -11 -4 -28 -10 -1 vvcurveto
          176 callsubr
          -8 vlineto
          hintmask 1010100001000000001001011010001100100000
          2 2 3 2 3 hhcurveto
          176 callsubr
          -4 vlineto
          8 3 7 0 2 hhcurveto
          hintmask 1010100001000000001001011010001100100000
          -2 -11 -14 -3 -10 vvcurveto
          8 8 16 -5 16 vvcurveto
          hintmask 1010100001000000100001011000101100100000
          -2 6 -2 0 -1 8 4 5 3 vhcurveto
          hintmask 1010100010000001000001011010001100100000
          1 -2 2 -8 -3 vvcurveto
          -21 -35 3 -12 -9 vhcurveto
          hintmask 1010100000010000001001011010001100100000
          435 9 rmoveto
          9 hlineto
          hintmask 1010100100000010000001011010001100100000
          0 0 15 -6 -5 -33 -5 -9 vhcurveto
          hintmask 1010100001000001000001011010001100100000
          0 1 28 callsubr
          hintmask 1010100000011000000001011010001100100000
          -122 27 rmoveto
          7 61 25 14 5 vhcurveto
          hintmask 1010100001000001000001011010001001010000
          -5 -4 -54 -39 -2 hhcurveto
          -4 -11 0 7 hvcurveto
          103 1 rmoveto
          hintmask 1010100001000000010001011000101001010000
          -1 1 4 -2 2 3 16 15 1 hhcurveto
          7 -2 2 -5 -3 -4 0 -5 -1 vhcurveto
          6 hlineto
          -6 -10 -7 -8 -3 vhcurveto
          -379 24 rmoveto
          4 -8 6 1 5 5 1 6 rlinecurve
          3 1 29 5 8 6 rrcurveto
          -8 hlineto
          -23 -8 0 -16 -17 hvcurveto
          -27 32 rmoveto
          73 callsubr
          14 33 25 15 hhcurveto
          hintmask 1010010000000000000001011010001100100000
          -15 -19 -34 -20 -23 -9 rrcurveto
          1 3 16 2 7 vhcurveto
          311 -4 rmoveto
          -6 -3 -18 -2 -9 vvcurveto
          -1 2 0 1 6 15 7 8 vhcurveto
          -169 -8 rmoveto
          6 12 2 0 4 vvcurveto
          -36 -16 rlineto
          12 12 vlineto
          7 44 42 1 hvcurveto
          7 5 1 5 hhcurveto
          13 5 -2 -3 -8 -42 -17 -12 -6 hvcurveto
          -8 vlineto
          19 14 20 3 23 10 rrcurveto
          -10 -1 -52 -33 -7 hhcurveto
          -7 -4 0 4 -7 hvcurveto
          -48 47 rmoveto
          -8 hlineto
          8 8 rlineto
          -1 -11 -15 -11 -11 113 callgsubr
          -36 -21 rlineto
          -8 hlineto
          14 18 32 10 6 24 3 -4 rcurveline
          32 hlineto
          -5 -1 35 -7 2 hhcurveto
          8 4 rlineto
          -4 29 vlineto
          -92 -39 rlineto
          -1 -9 -6 -7 -9 hhcurveto
          11 14 22 7 10 14 rrcurveto
          -91 28 rmoveto
          -4 1 6 0 3 13 12 4 13 hhcurveto
          -3 -23 -37 1 -17 vvcurveto
          -4 3 -4 -8 rlineto
          -5 6 -3 20 6 vvcurveto
          endchar
        </CharString>
        <CharString name="E">
          -44 callgsubr
          hstemhm
          70 24 -24 40 -40 79 -48 25 24 53 -53 67 -44 30 44 229 -26 26 -3 24 144 callsubr
          55 callsubr
          hintmask 00110100100010000011011001100100
          1 6 54 3 6 hhcurveto
          hintmask 10001100100010000011011001100001
          39 callsubr
          144 callsubr
          -58 callsubr
          hintmask 10001100100010000011011001010100
          -48 callsubr
          -74 callgsubr
          hintmask 10001100100010000011010100100100
          -21 callgsubr
          hintmask 10001100100010000011011001010100
          21 callgsubr
          hintmask 01000100100010000011011001001100
          13 callsubr
          -40 -32 -20 -19 rlineto
          144 callsubr
          168 callsubr
          hintmask 01000100100010000011011001100100
          51 callsubr
          hintmask 10001100100010000011011001001001
          -10 -12 -17 -6 -9 -13 -3 -5 2 -12 -6 -3 -17 -3 -6 -4 -17 -5 rrcurveto
          -6 4 -2 10 7 vvcurveto
          245 -17 rmoveto
          60 45 12 6 6 1 -5 -19 -17 -20 -17 -3 rrcurveto
          -5 7 -1 4 3 2 0 0 vhcurveto
          75 43 rlineto
          8 0 -10 -7 -37 -68 0 -30 hvcurveto
          -10 hlineto
          -19 -3 2 5 -8 hvcurveto
          -177 12 rmoveto
          1 1 6 5 1 2 rrcurveto
          1 -2 11 callgsubr
          -11 hlineto
          12 13 26 30 21 hhcurveto
          4 3 152 callsubr
          -9 -13 -25 -17 -14 hhcurveto
          -14 vlineto
          23 17 27 5 21 14 rrcurveto
          -4 vlineto
          -14 -9 -24 -16 -18 vvcurveto
          hintmask 00110100100010000011011001010100
          11 hlineto
          10 13 45 34 16 hhcurveto
          -5 vlineto
          -4 -3 -40 -24 -11 vvcurveto
          -4 4 -2 10 vhcurveto
          28 41 53 31 1 3 -65 callgsubr
          144 callsubr
          -39 callgsubr
          hintmask 01000100100010000011011001100100
          38 callsubr
          144 callsubr
          83 callsubr
          hintmask 01000001001000000000011001100100
          47 callsubr
          22 callgsubr
          29 callsubr
          55 callgsubr
          -68 callgsubr
          144 callsubr
          -3 -17 -7 18 -20 vvcurveto
          hintmask 10001100010010000011010100100100
          -76 callsubr
          hintmask 10001100100010000011011001001100
          67 callgsubr
          -15 callgsubr
          hintmask 10001010010010000011010010100100
          13 10 34 18 18 vvcurveto
          hintmask 10001010010010000011011001010100
          -22 callgsubr
          hintmask 10001001001000000000011001100100
          13 callgsubr
          hintmask 10001100010010000011011001001100
          40 callgsubr
          hintmask 10001001001000000000011001100100
          -86 callsubr
          hintmask 10001100100000001001011001100100
          1 3 6 1 hvcurveto
          -5 -31 -14 -15 hvcurveto
          -6 -48 -35 -1 2 -3 8 5 vvcurveto
          4 41 rmoveto
          12 6 21 18 -1 -1 rrcurveto
          2 -3 2 -1 -1 -7 -2 -2 vhcurveto
          7 27 48 11 16 21 -12 9 rcurveline
          -10 -4 -15 -12 -1 hhcurveto
          1 -2 4 -2 vhcurveto
          0 0 -2 -3 vvcurveto
          -5 -1 -7 -5 vhcurveto
          0 -1 0 -44 -30 vhcurveto
          -6 -7 -6 -1 vhcurveto
          30 16 4 35 17 vhcurveto
          4 vlineto
          -14 -12 -12 -13 hhcurveto
          5 7 12 1 8 vvcurveto
          -18 callgsubr
          -8 -8 rlineto
          1 -1 11 callgsubr
          12 21 3 8 7 vhcurveto
          -3 1 185 callgsubr
          144 callsubr
          1 callsubr
          hintmask 10001100100000001001011001100100
          8 8 rlineto
          hintmask 10001100100000010001011001100100
          -8 -3 -5 -9 hhcurveto
          1 4 4 9 callgsubr
          hintmask 10001100100000000101011001100100
          1 -2 0 -6 vhcurveto
          hintmask 10001100100001000010111001100100
          -87 callgsubr
          hintmask 10001100100100000011011001100100
          -62 callsubr
          hintmask 10001100100000100001011001001100
          -69 callsubr
          hintmask 10001100001000000000011001010010
          18 22 77 52 6 vvcurveto
          -9 -24 -18 -26 -25 hhcurveto
          7 vlineto
          -5 -5 -10 -13 -9 -2 rrcurveto
          3 -1 1 -2 -3 -5 -2 -5 -1 vvcurveto
          271 17 rmoveto
          11 5 38 14 13 hhcurveto
          -8 vlineto
          -10 -1 -11 -5 vhcurveto
          -42 hlineto
          -72 47 rmoveto
          -3 -10 -6 -3 -10 -2 8 -4 rcurveline
          -20 -26 2 -4 -44 hhcurveto
          20 41 33 10 18 hvcurveto
          -19 -31 rmoveto
          10 10 20 18 1 hhcurveto
          19 19 rlineto
          -38 callgsubr
          -9 -28 -11 -17 -17 hvcurveto
          -5 3 -8 -12 -23 -11 -16 -4 rlinecurve
          19 24 rlineto
          -7 hlineto
          0 5 11 2 2 6 -2 -1 vhcurveto
          16 9 16 25 1 1 rrcurveto
          20 38 36 4 43 hhcurveto
          15 2 -8 -10 -12 -6 -19 -6 -10 hvcurveto
          16 8 rlineto
          -7 vlineto
          -8 -17 -20 -5 -15 hvcurveto
          0 0 4 -4 4 vhcurveto
          -4 -11 -18 -20 -9 -13 -32 4 -3 hhcurveto
          hintmask 10001100100010000010111001001100
          -84 callsubr
          hintmask 10001100100010000010111001100100
          -6 6 14 -2 12 hhcurveto
          -3 -2 -47 -25 -3 hhcurveto
          -11 -1 7 8 hvcurveto
          114 1 rmoveto
          -3 -2 185 callsubr
          -4 vlineto
          4 2 0 3 3 vvcurveto
          -18 callgsubr
          199 13 rmoveto
          -10 -24 -5 -13 hvcurveto
          4 30 9 4 hvcurveto
          -177 9 rmoveto
          -10 -4 -7 -10 hvcurveto
          6 3 8 7 7 vvcurveto
          endchar
        </CharString>
        <CharString name="Eacute">
          -44 callgsubr
          -16 226 hstemhm
          70 24 -24 40 -40 56 -56 79 -48 102 -102 116 -44 30 -30 222 -148 74 129 26 -3 24 70 callsubr
          55 callsubr
          hintmask 0011010010001000001101010001000101000000
          1 6 54 3 6 hhcurveto
          70 callsubr
          39 callsubr
          hintmask 1000110010001000001101010000010101000000
          -58 callsubr
          hintmask 1000110010001000001101010000100110000000
          -48 callsubr
          hintmask 1000110010001000001100110001000101000000
          -74 callgsubr
          hintmask 1000110010001000001101001000010101000000
          -21 callgsubr
          hintmask 0100010010001000001101010000010101000000
          21 callgsubr
          13 callsubr
          rlineto
          hintmask 1000110010001000001101000100010101000000
          -40 -32 -20 -19 5 -2 5 -4 4 -2 rlinecurve
          16 vlineto
          57 39 rlineto
          hintmask 0100010010001000001101010001000101000000
          51 callsubr
          hintmask 1000110010001000001101010000010101000000
          -10 -12 -17 -6 -9 -13 -3 -5 2 -12 -6 -3 -17 -3 -6 -4 -17 -5 rrcurveto
          -6 4 -2 10 7 vvcurveto
          245 -17 rmoveto
          60 45 12 6 6 1 -5 -19 -17 -20 -17 -3 rrcurveto
          -5 7 -1 4 3 2 0 0 vhcurveto
          75 43 rlineto
          8 0 -10 -7 -37 -68 0 -30 hvcurveto
          -10 hlineto
          -19 -3 2 5 -8 hvcurveto
          -177 12 rmoveto
          1 1 6 5 1 2 rrcurveto
          1 -2 11 callgsubr
          -11 hlineto
          12 13 26 30 21 hhcurveto
          4 3 152 callsubr
          -9 -13 -25 -17 -14 hhcurveto
          -14 vlineto
          23 17 27 5 21 14 rrcurveto
          -4 vlineto
          -14 -9 -24 -16 -18 vvcurveto
          hintmask 0011010010001000001101010000100101000000
          11 hlineto
          10 13 45 34 16 hhcurveto
          -5 vlineto
          -4 -3 -40 -24 -11 vvcurveto
          -4 4 -2 10 vhcurveto
          28 41 53 31 1 3 -65 callgsubr
          70 callsubr
          -39 callgsubr
          hintmask 0100010010001000001101010001000101000000
          38 callsubr
          70 callsubr
          83 callsubr
          hintmask 0100010010001000001101010001000101000000
          47 callsubr
          hintmask 1000110010001000001101000100010101000000
          22 callgsubr
          70 callsubr
          29 callsubr
          hintmask 1000100100100000000001000100010101000000
          55 callgsubr
          -68 callgsubr
          70 callsubr
          -3 -17 -7 18 -20 vvcurveto
          hintmask 1000110001001000001101001000010101000000
          -76 callsubr
          67 callgsubr
          70 callsubr
          -15 callgsubr
          hintmask 1000101001001000001101000010010101000000
          13 10 34 18 18 vvcurveto
          hintmask 1000101001001000001101010000100101000000
          -22 callgsubr
          hintmask 1000100100100000000001010001000101000000
          13 callgsubr
          hintmask 1000110001001000001101010000010101000000
          40 callgsubr
          hintmask 1000100100100000000001010001000101000000
          -86 callsubr
          70 callsubr
          1 3 6 1 hvcurveto
          -5 -31 -14 -15 hvcurveto
          -6 -48 -35 -1 2 -3 8 5 vvcurveto
          4 41 rmoveto
          12 6 21 18 -1 -1 rrcurveto
          hintmask 1000110010001000001101000100010101000000
          2 -3 2 -1 -1 -7 -2 -2 vhcurveto
          7 27 48 11 16 21 -12 9 rcurveline
          -10 -4 -15 -12 -1 hhcurveto
          1 -2 4 -2 vhcurveto
          0 0 -2 -3 vvcurveto
          -5 -1 -7 -5 vhcurveto
          0 -1 0 -44 -30 vhcurveto
          hintmask 1000110010000000100101010001000101000000
          -6 -7 -6 -1 vhcurveto
          30 16 4 35 17 vhcurveto
          4 vlineto
          -14 -12 -12 -13 hhcurveto
          5 7 12 1 8 vvcurveto
          -18 callgsubr
          -8 -8 rlineto
          1 -1 11 callgsubr
          12 21 3 8 7 vhcurveto
          -3 1 185 callgsubr
          70 callsubr
          1 callsubr
          hintmask 1000110010000000100101000100010101000000
          8 8 rlineto
          hintmask 1000110010000001000101010001000101000000
          -8 -3 -5 -9 hhcurveto
          1 4 4 9 callgsubr
          hintmask 1000110010000000010101010001000101000000
          1 -2 0 -6 vhcurveto
          hintmask 1000110010000100001011010001000101000000
          -87 callgsubr
          hintmask 1000110010010000001101010001000101000000
          -62 callsubr
          hintmask 1000110010000010000101010000010101000000
          -69 callsubr
          hintmask 1000110000100000000001010000100101000000
          18 22 77 52 6 vvcurveto
          -9 -24 -18 -26 -25 hhcurveto
          7 vlineto
          hintmask 1000110000100000000000100100010110000000
          -5 -5 -10 -13 -9 -2 rrcurveto
          3 -1 1 -2 -3 -5 -2 -5 -1 vvcurveto
          271 17 rmoveto
          11 5 38 14 13 hhcurveto
          -8 vlineto
          -10 -1 -11 -5 vhcurveto
          -42 hlineto
          -72 47 rmoveto
          -3 -10 -6 -3 -10 -2 8 -4 rcurveline
          -20 -26 2 -4 -44 hhcurveto
          20 41 33 10 18 hvcurveto
          -19 -31 rmoveto
          10 10 20 18 1 hhcurveto
          19 19 rlineto
          -38 callgsubr
          -9 -28 -11 -17 -17 hvcurveto
          -5 3 -8 -12 -23 -11 -16 -4 rlinecurve
          19 24 rlineto
          -7 hlineto
          0 5 11 2 2 6 -2 -1 vhcurveto
          16 9 16 25 1 1 rrcurveto
          20 38 36 4 43 hhcurveto
          15 2 -8 -10 -12 -6 -19 -6 -10 hvcurveto
          16 8 rlineto
          -7 vlineto
          -8 -17 -20 -5 -15 hvcurveto
          0 0 4 -4 4 vhcurveto
          -4 -11 -18 -20 -9 -13 -32 4 -3 hhcurveto
          hintmask 1000110010001000001011010000001001000000
          -84 callsubr
          -6 6 14 -2 12 hhcurveto
          -3 -2 -47 -25 -3 hhcurveto
          -11 -1 7 8 hvcurveto
          114 1 rmoveto
          -3 -2 185 callsubr
          -4 vlineto
          4 2 0 3 3 vvcurveto
          -18 callgsubr
          199 13 rmoveto
          -10 -24 -5 -13 hvcurveto
          4 30 9 4 hvcurveto
          -177 9 rmoveto
          -10 -4 -7 -10 hvcurveto
          6 3 8 7 7 vvcurveto
          hintmask 1000110010001000001100110000001001000000
          149 237 33 callgsubr
          -88 callgsubr
          hintmask 1000110010001000001101010000100101000000
          72 callgsubr
          -28 callgsubr
          13 35 rmoveto
          10 9 -19 -10 hvcurveto
          -14 -22 13 10 hvcurveto
          6 6 4 0 7 hhcurveto
          49 -16 224 callgsubr
          -4 -4 -8 24 4 vhcurveto
          13 11 -20 -1 hvcurveto
          30 28 rmoveto
          15 15 -15 -14 hvcurveto
          -13 -22 7 20 1 1 1 4 hvcurveto
          -35 21 rmoveto
          1 8 -11 -23 4 hvcurveto
          -9 3 -15 11 -6 7 rrcurveto
          4 4 13 9 0 vvcurveto
          80 -23 rmoveto
          -8 10 -21 19 -12 12 rrcurveto
          3 12 6 5 4 vhcurveto
          -29 -21 rmoveto
          8 10 -10 -9 hvcurveto
          -2 -20 7 7 -10 hvcurveto
          4 5 4 1 5 hhcurveto
          endchar
        </CharString>
        <CharString name="Ecircumflex">
          -44 112 171 69 195 endchar
        </CharString>
        <CharString name="Edieresis">
          -44 callgsubr
          -16 118 hstemhm
          735 101 6 -20 hstemhm
          70 24 -24 40 -40 79 -48 25 -25 116 -91 43 -19 97 -74 30 3 207 -188 22 0 79 -22 22 48 39 37 26 -3 24 61 callgsubr
          55 callsubr
          hintmask 0011010010001000001101010100100100001101
          1 6 54 3 6 hhcurveto
          61 callgsubr
          39 callsubr
          hintmask 1000110010001000001101010100100011000001
          -58 callsubr
          hintmask 1000110010001000001101010100010000101110
          -48 callsubr
          hintmask 1000110010001000001100101100100100001101
          -74 callgsubr
          hintmask 1000110010001000001101010010001011000001
          -21 callgsubr
          61 callgsubr
          21 callgsubr
          hintmask 0100010010001000001101010100100011000001
          13 callsubr
          -40 -32 -20 -19 rlineto
          61 callgsubr
          168 callsubr
          hintmask 0100010010001000001101010100100100001101
          51 callsubr
          hintmask 1000110010001000001101010100100010101101
          -10 -12 -17 -6 -9 -13 -3 -5 2 -12 -6 -3 -17 -3 -6 -4 -17 -5 rrcurveto
          -6 4 -2 10 7 vvcurveto
          245 -17 rmoveto
          60 45 12 6 6 1 -5 -19 -17 -20 -17 -3 rrcurveto
          -5 7 -1 4 3 2 0 0 vhcurveto
          75 43 rlineto
          8 0 -10 -7 -37 -68 0 -30 hvcurveto
          -10 hlineto
          -19 -3 2 5 -8 hvcurveto
          -177 12 rmoveto
          1 1 6 5 1 2 rrcurveto
          1 -2 11 callgsubr
          -11 hlineto
          12 13 26 30 21 hhcurveto
          4 3 152 callsubr
          -9 -13 -25 -17 -14 hhcurveto
          -14 vlineto
          23 17 27 5 21 14 rrcurveto
          -4 vlineto
          hintmask 1000110010001000001101010100100011000001
          -14 -9 -24 -16 -18 vvcurveto
          hintmask 1000110010001000001101010100010000101101
          11 hlineto
          10 13 45 34 16 hhcurveto
          -5 vlineto
          hintmask 0011010010001000001101010100100100001101
          -4 -3 -40 -24 -11 vvcurveto
          -4 4 -2 10 vhcurveto
          28 41 53 31 1 3 -65 callgsubr
          61 callgsubr
          -39 callgsubr
          hintmask 0100010010001000001101010100100100001101
          38 callsubr
          61 callgsubr
          83 callsubr
          hintmask 0100010010001000001101010100100100001101
          47 callsubr
          22 callgsubr
          29 callsubr
          55 callgsubr
          hintmask 1000100100100000000001010100001011000001
          -68 callgsubr
          61 callgsubr
          -3 -17 -7 18 -20 vvcurveto
          hintmask 1000110001001000001101010010000100001101
          -76 callsubr
          hintmask 1000110010001000001101010100001011000001
          67 callgsubr
          -1 5 -3 25 5 0 0 11 callgsubr
          51 21 rmoveto
          61 callgsubr
          -9 -16 -35 -12 -17 vvcurveto
          -2 221 callgsubr
          7 4 8 10 1 5 rrcurveto
          hintmask 1000110010001000001101010100001011000001
          16 13 28 10 7 21 rrcurveto
          -27 hlineto
          -8 -10 rlineto
          37 41 rmoveto
          -10 -22 -11 -13 -1 hvcurveto
          8 25 10 14 hvcurveto
          -77 52 rmoveto
          8 hlineto
          hintmask 1000101001001000001101010001000100001101
          13 10 34 18 18 vvcurveto
          hintmask 1000101001001000001101010100100100001101
          -22 callgsubr
          hintmask 1000100100100000000001010100100100001101
          13 callgsubr
          hintmask 1000110001001000001101010100100011000001
          40 callgsubr
          hintmask 1000100100100000000001010100100010010101
          -86 callsubr
          hintmask 1000110010000000100101010100100100001101
          1 3 6 1 hvcurveto
          -5 -31 -14 -15 hvcurveto
          -6 -48 -35 -1 2 -3 8 5 vvcurveto
          4 41 rmoveto
          12 6 21 18 -1 -1 rrcurveto
          2 -3 2 -1 -1 -7 -2 -2 vhcurveto
          7 27 48 11 16 21 -12 9 rcurveline
          -10 -4 -15 -12 -1 hhcurveto
          1 -2 4 -2 vhcurveto
          0 0 -2 -3 vvcurveto
          -5 -1 -7 -5 vhcurveto
          0 -1 0 -44 -30 vhcurveto
          -6 -7 -6 -1 vhcurveto
          30 16 4 35 17 vhcurveto
          4 vlineto
          -14 -12 -12 -13 hhcurveto
          5 7 12 1 8 vvcurveto
          -18 callgsubr
          -8 -8 rlineto
          1 -1 11 callgsubr
          12 21 3 8 7 vhcurveto
          -3 1 185 callgsubr
          61 callgsubr
          1 callsubr
          hintmask 1000110010000000100101010100100100001101
          8 8 rlineto
          hintmask 1000110010000001000101010100100100001101
          -8 -3 -5 -9 hhcurveto
          1 4 4 9 callgsubr
          hintmask 1000110010000000010101010100100100001101
          1 -2 0 -6 vhcurveto
          hintmask 1000110010000100001011010100100010101101
          -87 callgsubr
          hintmask 1000110010010000001101010100100100001101
          -62 callsubr
          hintmask 1000110010000010000101010100100011000001
          -69 callsubr
          hintmask 1000110010001000001101010100010000101101
          18 22 77 52 6 vvcurveto
          hintmask 1000110000100000000000101100100100001110
          -9 -24 -18 -26 -25 hhcurveto
          7 vlineto
          -5 -5 -10 -13 -9 -2 rrcurveto
          3 -1 1 -2 -3 -5 -2 -5 -1 vvcurveto
          271 17 rmoveto
          11 5 38 14 13 hhcurveto
          -8 vlineto
          -10 -1 -11 -5 vhcurveto
          -42 hlineto
          -72 47 rmoveto
          -3 -10 -6 -3 -10 -2 8 -4 rcurveline
          -20 -26 2 -4 -44 hhcurveto
          20 41 33 10 18 hvcurveto
          -19 -31 rmoveto
          10 10 20 18 1 hhcurveto
          19 19 rlineto
          -38 callgsubr
          -9 -28 -11 -17 -17 hvcurveto
          -5 3 -8 -12 -23 -11 -16 -4 rlinecurve
          19 24 rlineto
          -7 hlineto
          0 5 11 2 2 6 -2 -1 vhcurveto
          16 9 16 25 1 1 rrcurveto
          20 38 36 4 43 hhcurveto
          15 2 -8 -10 -12 -6 -19 -6 -10 hvcurveto
          16 8 rlineto
          -7 vlineto
          -8 -17 -20 -5 -15 hvcurveto
          0 0 4 -4 4 vhcurveto
          -4 -11 -18 -20 -9 -13 -32 4 -3 hhcurveto
          hintmask 1000110010001000001011010100100011000001
          -84 callsubr
          hintmask 1000110010001000001011010100100100001101
          -6 6 14 -2 12 hhcurveto
          -3 -2 -47 -25 -3 hhcurveto
          -11 -1 7 8 hvcurveto
          114 1 rmoveto
          -3 -2 185 callsubr
          -4 vlineto
          4 2 0 3 3 vvcurveto
          -18 callgsubr
          199 13 rmoveto
          -10 -24 -5 -13 hvcurveto
          4 30 9 4 hvcurveto
          -177 9 rmoveto
          -10 -4 -7 -10 hvcurveto
          6 3 8 7 7 vvcurveto
          -82 153 88 callgsubr
          220 callsubr
          hintmask 1000110010001000001101001100100100001101
          220 callgsubr
          61 callgsubr
          -12 -1 -6 -28 215 callsubr
          0 -18 -9 -5 vvcurveto
          9 0 -11 -6 hvcurveto
          -11 -5 -10 -11 vvcurveto
          80 hmoveto
          2 -9 2 -1 -8 vvcurveto
          hintmask 1000110010001000001100101100100100001101
          -4 -3 -2 -11 -4 -27 0 4 vhcurveto
          4 vlineto
          6 4 36 10 1 hhcurveto
          -44 8 rmoveto
          5 callgsubr
          -4 callgsubr
          -44 -15 -1 -22 vhcurveto
          -95 callsubr
        </CharString>
        <CharString name="Egrave">
          -44 148 171 69 193 endchar
        </CharString>
</ttFont>
